<svg width="24" height="17" viewBox="0 0 24 17" fill="none" xmlns="http://www.w3.org/2000/svg">
<path fill-rule="evenodd" clip-rule="evenodd" d="M6.28746 15.4193L3.01187 14.5374L2.34415 13.7186V9.43526L0.555176 7.07314L2.34415 4.45907V0.427734L5.09061 3.7032L6.85439 0.742683L9.68904 3.38825L12.0015 0.805672L14.6037 3.76619L17.0604 0.427734L18.8871 3.26227L21.6267 0.679693V14.0335C21.6267 14.0335 13.1536 16.7421 6.28746 15.4193Z" fill="white"/>
<path fill-rule="evenodd" clip-rule="evenodd" d="M5.75 15.1043V2.38037L8.0511 4.96295L10.6873 2.38037L12.8385 5.34088L15.4842 2.38037L17.6889 4.89996L20.3125 2.38037L21.6253 4.0181V13.9075C21.6253 13.9075 19.8691 15.4822 15.0628 15.6082C10.2565 15.7342 5.75 15.1043 5.75 15.1043Z" fill="#FEC652"/>
<path fill-rule="evenodd" clip-rule="evenodd" d="M12.0001 10.6949L10.1929 8.04938L12.0001 5.34082L13.9094 8.01788L12.0001 10.6949Z" fill="white"/>
<path fill-rule="evenodd" clip-rule="evenodd" d="M21.6252 9.68713L19.8306 7.04156L21.6252 4.45898L23.6731 7.07306L21.6252 9.68713Z" fill="white"/>
<path fill-rule="evenodd" clip-rule="evenodd" d="M3.01179 8.67926L1.94092 7.04153L3.01179 5.78174L4.14565 7.2305L3.01179 8.67926Z" fill="#95E7EE"/>
<path fill-rule="evenodd" clip-rule="evenodd" d="M12.9016 9.62432L11.5693 8.04959L12.9016 6.41187L13.9725 8.04959L12.9016 9.62432Z" fill="#FF4A70"/>
<path fill-rule="evenodd" clip-rule="evenodd" d="M22.602 8.67927L21.625 7.23051L22.602 5.52979L23.6099 7.10453L22.602 8.67927Z" fill="#95E7EE"/>
<path fill-rule="evenodd" clip-rule="evenodd" d="M2.12472 3.67812e-05C2.31405 -0.00100617 2.50284 0.0201345 2.68724 0.0630265C3.05197 0.786778 3.83874 1.24912 4.31244 1.87398C4.5474 2.18326 5.1874 2.81064 5.1874 2.81064C5.1874 2.81064 6.13228 1.24786 6.50016 0.687884C6.63118 0.487577 6.71937 0.0976708 6.93732 0.000666678H7.37827C7.44126 0.0510584 7.39528 0.0227131 7.50425 0.0636564L9.50425 2.68655H9.56724C9.78016 2.05665 10.7294 1.3455 11.1301 0.813234C11.2945 0.595289 11.508 0.110899 11.755 0.00129657H12.2551L14.5052 2.68655V2.62356C14.7572 2.42451 14.8737 2.13791 15.0677 1.87398C15.5529 1.22191 16.0727 0.596361 16.6249 3.67812e-05H17.0627C17.4709 0.655129 18.0573 1.24723 18.5002 1.87335C18.6935 2.14673 18.7565 2.52529 19.125 2.62293C19.4898 1.89855 20.2765 1.4362 20.7502 0.811974C20.9449 0.554976 21.1225 0.189006 21.4375 0.0630265C21.5975 -0.0465756 21.8243 0.023343 22 0.0630265C22.3005 1.10551 22.1291 2.7993 22.126 4.05972C22.4882 4.41813 23.9767 6.60954 24 7.18086C23.4545 7.72194 23.1181 8.5301 22.6872 9.17952C22.5392 9.40188 22.2129 9.67084 22.1247 9.92847V10.9905C22.1247 12.0046 22.1877 13.2298 21.9987 14.0499C21.6454 14.2823 21.3587 14.6168 20.9361 14.7995C19.7335 15.3179 18.2148 15.3664 16.8113 15.6738L14.4365 15.7997C13.4368 16.0108 11.6258 16.0933 10.5613 15.8627H9.56221C8.85291 15.7078 7.93386 15.7651 7.24976 15.6108C5.50236 15.2221 3.69134 15.3374 2.4378 14.4877C2.20157 14.3277 2.07118 14.0058 1.87528 13.8011V9.92847C1.56976 9.00252 0.0516535 7.91406 0 6.8067C0.551811 6.27633 0.88189 5.45557 1.31276 4.80804C1.4652 4.57876 1.78583 4.33184 1.87528 4.05909V0.251996C1.96892 0.179094 2.05276 0.0944074 2.12472 3.67812e-05ZM11.9376 1.18676C11.7109 1.83556 10.9531 2.29223 10.5625 2.81001C9.96976 3.59486 9.26803 4.28712 8.68724 5.05811C8.49827 5.31007 8.32378 5.64328 8.06236 5.80769C7.72409 6.01933 7.0778 6.0439 6.68724 5.87068C6.2778 5.68675 6.04724 5.18157 5.74992 4.87103C5.02614 4.11011 3.04567 1.85319 2.8126 1.68627V4.05909C2.8126 4.05909 4.66457 6.60954 4.68724 7.18086C4.1411 7.71879 3.80535 8.53136 3.37512 9.17952C3.22709 9.40188 2.90016 9.67084 2.8126 9.92847V11.6771C3.74866 12.1974 4.97638 12.4531 6.18772 12.7384C6.93417 12.9148 7.72724 12.8323 8.43779 12.9904C9.32472 13.185 10.5543 12.6377 10.5625 13.74L10.3735 13.866C10.0542 14.1091 8.81323 13.9189 8.24882 13.866C7.04126 13.7519 5.68126 13.6833 4.56126 13.3664C3.97543 13.2008 3.3852 12.9488 2.81134 12.8046V13.5535C4.67717 14.6458 7.5326 14.8316 10.3704 14.9273C11.2321 14.9563 12.5172 15.1163 13.3707 14.9273H14.7458C15.3959 14.7837 16.2482 14.8196 16.8706 14.6754C18.0775 14.4001 19.1074 14.4234 20.1203 14.0505C20.4315 13.9359 21.0192 13.8615 21.183 13.6134V12.7384H21.12C20.3609 13.4446 17.2006 13.6455 15.8072 13.8628C15.2283 13.9529 13.5805 14.0518 13.4324 13.7368V13.2997C13.5477 13.2294 13.6535 13.1447 13.7474 13.0477C15.7531 13.0962 17.8356 12.8304 19.435 12.3611C19.8759 12.2307 20.9896 12.033 21.1849 11.7363V9.86611C20.8932 9.63557 20.7704 9.24566 20.56 8.92945C20.1707 8.34491 19.3915 7.68856 19.3102 6.86906C19.8772 6.28011 20.228 5.43227 20.6847 4.74568C20.8107 4.56049 21.1036 4.32428 21.1849 4.12145V1.68627H21.1219C20.5235 2.69411 19.4444 3.38699 18.7471 4.30853C18.3937 4.78347 17.9402 5.49148 17.4375 5.80769C17.0652 6.04138 16.3099 6.04201 15.9376 5.80769C15.5534 5.56518 15.2731 5.04803 14.9997 4.68332C14.4076 3.89343 13.5924 3.22637 12.9997 2.43522C12.708 2.04594 12.3843 1.40345 11.9376 1.18676ZM7.1874 1.24975C7.1874 1.24975 6.04724 2.73883 5.74992 3.62194C6.37165 4.04712 6.55244 5.05307 7.5622 5.05811C7.92756 4.49498 8.64378 4.01563 8.87496 3.37187H8.81197C8.71433 3.07267 7.1874 1.24912 7.1874 1.24912V1.24975ZM16.7502 1.24975C16.5424 1.66989 15.4198 3.13377 15.0627 3.3725V3.43549H15.1257C15.3953 3.91107 16.2274 5.06378 16.938 5.05937C17.3291 4.46727 18.1298 3.99799 18.3754 3.31077C17.8022 2.88937 17.3606 1.49667 16.7502 1.24912V1.24975ZM11.8123 4.68332C11.9809 4.68449 12.1488 4.70563 12.3124 4.74631C12.7433 5.62061 14.2652 7.15189 14.3124 8.11815C13.7682 8.67183 13.3046 9.53605 12.875 10.1792C12.6702 10.4859 12.5468 10.9716 12.1877 11.1158C12.034 11.2191 11.8595 11.1542 11.6876 11.1158C11.2567 10.2415 9.7348 8.71025 9.68756 7.74399C10.5443 6.88166 11.0041 5.58911 11.8123 4.68332ZM2.31244 5.06126C2.06614 5.57273 1.46079 6.55096 1.06268 6.9289C1.10173 7.0385 1.07465 6.99189 1.12567 7.05488C1.33984 7.74777 1.98299 8.29074 2.31307 8.92819L2.43906 8.8652C2.75402 8.20003 3.52945 7.66084 3.62646 6.86717C3.06331 6.4168 2.90142 5.47636 2.31244 5.05811V5.06126ZM21.5622 5.06126C21.3537 5.84422 20.5783 6.32105 20.3124 7.05929C20.7924 7.41518 21.2315 8.78836 21.7499 8.9326C21.9647 8.14208 22.8296 7.73202 22.9373 6.87221C22.5039 6.5138 22.0567 5.19543 21.5622 5.05811V5.06126ZM11.9376 5.99476C11.6913 6.50939 11.086 7.48825 10.6872 7.86808C10.7269 7.97768 10.6998 7.93107 10.7502 7.99406C10.9644 8.68694 11.6076 9.22991 11.9376 9.86737C12.0472 9.82832 12.0006 9.8554 12.0636 9.80438C12.5713 9.29353 12.795 8.49294 13.314 7.99343C13.2743 7.88383 13.3014 7.93044 13.251 7.86745C13.1553 7.54872 12.1984 6.09681 11.9376 5.99476ZM11.8117 13.1126C11.9803 13.1138 12.1482 13.1349 12.3118 13.1756L12.3748 13.3646C12.5443 13.5945 12.3956 13.8515 12.1858 13.9264C11.9553 14.0952 11.6983 13.9472 11.6233 13.7375C11.5194 13.5838 11.5849 13.4093 11.6233 13.2373C11.6928 13.2067 11.7566 13.1648 11.8123 13.1132L11.8117 13.1126Z" fill="black"/>
</svg>
