<svg width="170" height="34" viewBox="0 0 170 34" fill="none" xmlns="http://www.w3.org/2000/svg">
<rect width="170" height="34" rx="5" fill="black"/>
<path d="M49.248 19.4365C49.248 19.2314 49.2161 19.0492 49.1523 18.8896C49.0931 18.7301 48.986 18.5843 48.8311 18.4521C48.6761 18.32 48.4574 18.1924 48.1748 18.0693C47.8968 17.9417 47.5413 17.8118 47.1084 17.6797C46.6344 17.5339 46.1969 17.3721 45.7959 17.1943C45.3994 17.012 45.0531 16.8024 44.7568 16.5654C44.4606 16.3239 44.2305 16.0482 44.0664 15.7383C43.9023 15.4238 43.8203 15.0615 43.8203 14.6514C43.8203 14.2458 43.9046 13.8766 44.0732 13.5439C44.2464 13.2113 44.4902 12.9242 44.8047 12.6826C45.1237 12.4365 45.4997 12.2474 45.9326 12.1152C46.3656 11.9785 46.8441 11.9102 47.3682 11.9102C48.1064 11.9102 48.7422 12.0469 49.2754 12.3203C49.8132 12.5938 50.2256 12.9606 50.5127 13.4209C50.8044 13.8812 50.9502 14.3893 50.9502 14.9453H49.248C49.248 14.6172 49.1774 14.3278 49.0361 14.0771C48.8994 13.8219 48.6898 13.6214 48.4072 13.4756C48.1292 13.3298 47.776 13.2568 47.3477 13.2568C46.9421 13.2568 46.6048 13.3184 46.3359 13.4414C46.0671 13.5645 45.8665 13.7308 45.7344 13.9404C45.6022 14.1501 45.5361 14.387 45.5361 14.6514C45.5361 14.8382 45.5794 15.0091 45.666 15.1641C45.7526 15.3145 45.8848 15.4557 46.0625 15.5879C46.2402 15.7155 46.4635 15.8363 46.7324 15.9502C47.0013 16.0641 47.318 16.1735 47.6826 16.2783C48.234 16.4424 48.7148 16.6247 49.125 16.8252C49.5352 17.0212 49.877 17.2445 50.1504 17.4951C50.4238 17.7458 50.6289 18.0306 50.7656 18.3496C50.9023 18.6641 50.9707 19.0218 50.9707 19.4229C50.9707 19.8421 50.8864 20.2204 50.7178 20.5576C50.5492 20.8903 50.3076 21.1751 49.9932 21.4121C49.6833 21.6445 49.3096 21.8245 48.8721 21.9521C48.4391 22.0752 47.9561 22.1367 47.4229 22.1367C46.9443 22.1367 46.4727 22.0729 46.0078 21.9453C45.5475 21.8177 45.1283 21.624 44.75 21.3643C44.3717 21.0999 44.071 20.7718 43.8477 20.3799C43.6243 19.9834 43.5127 19.5208 43.5127 18.9922H45.2285C45.2285 19.3158 45.2832 19.5915 45.3926 19.8193C45.5065 20.0472 45.6637 20.234 45.8643 20.3799C46.0648 20.5212 46.2972 20.626 46.5615 20.6943C46.8304 20.7627 47.1175 20.7969 47.4229 20.7969C47.8239 20.7969 48.1589 20.7399 48.4277 20.626C48.7012 20.512 48.9062 20.3525 49.043 20.1475C49.1797 19.9424 49.248 19.7054 49.248 19.4365ZM53.8879 14.6035V22H52.2336V14.6035H53.8879ZM52.1242 12.6621C52.1242 12.4115 52.2063 12.2041 52.3703 12.04C52.5389 11.8714 52.7714 11.7871 53.0676 11.7871C53.3592 11.7871 53.5894 11.8714 53.758 12.04C53.9266 12.2041 54.0109 12.4115 54.0109 12.6621C54.0109 12.9082 53.9266 13.1133 53.758 13.2773C53.5894 13.4414 53.3592 13.5234 53.0676 13.5234C52.7714 13.5234 52.5389 13.4414 52.3703 13.2773C52.2063 13.1133 52.1242 12.9082 52.1242 12.6621ZM60.2299 14.6035H61.727V21.7949C61.727 22.4603 61.5857 23.0254 61.3031 23.4902C61.0206 23.9551 60.6264 24.3083 60.1205 24.5498C59.6146 24.7959 59.029 24.9189 58.3637 24.9189C58.0811 24.9189 57.7667 24.8779 57.4203 24.7959C57.0785 24.7139 56.7458 24.5817 56.4223 24.3994C56.1033 24.2217 55.8367 23.987 55.6225 23.6953L56.3949 22.7246C56.6592 23.0391 56.9509 23.2692 57.2699 23.415C57.5889 23.5609 57.9239 23.6338 58.2748 23.6338C58.6531 23.6338 58.9743 23.5632 59.2387 23.4219C59.5076 23.2852 59.7149 23.0824 59.8607 22.8135C60.0066 22.5446 60.0795 22.2165 60.0795 21.8291V16.2783L60.2299 14.6035ZM55.2055 18.3838V18.2402C55.2055 17.6797 55.2738 17.1693 55.4105 16.709C55.5473 16.2441 55.7432 15.8454 55.9984 15.5127C56.2536 15.1755 56.5635 14.918 56.9281 14.7402C57.2927 14.5579 57.7051 14.4668 58.1654 14.4668C58.6439 14.4668 59.0518 14.5534 59.3891 14.7266C59.7309 14.8997 60.0157 15.1481 60.2436 15.4717C60.4714 15.7907 60.6492 16.1735 60.7768 16.6201C60.9089 17.0622 61.0069 17.5544 61.0707 18.0967V18.5547C61.0115 19.0833 60.9112 19.5664 60.7699 20.0039C60.6286 20.4414 60.4418 20.8197 60.2094 21.1387C59.977 21.4577 59.6898 21.7038 59.348 21.877C59.0108 22.0501 58.612 22.1367 58.1518 22.1367C57.7006 22.1367 57.2927 22.0433 56.9281 21.8564C56.5681 21.6696 56.2582 21.4076 55.9984 21.0703C55.7432 20.7331 55.5473 20.3366 55.4105 19.8809C55.2738 19.4206 55.2055 18.9215 55.2055 18.3838ZM56.8529 18.2402V18.3838C56.8529 18.721 56.8848 19.0355 56.9486 19.3271C57.017 19.6188 57.1195 19.8763 57.2563 20.0996C57.3975 20.3184 57.5753 20.4915 57.7895 20.6191C58.0082 20.7422 58.2657 20.8037 58.5619 20.8037C58.9493 20.8037 59.266 20.7217 59.5121 20.5576C59.7628 20.3936 59.9542 20.1725 60.0863 19.8945C60.223 19.612 60.3188 19.2975 60.3734 18.9512V17.7139C60.3461 17.445 60.2891 17.1943 60.2025 16.9619C60.1205 16.7295 60.0089 16.5267 59.8676 16.3535C59.7263 16.1758 59.5486 16.0391 59.3344 15.9434C59.1202 15.8431 58.8673 15.793 58.5756 15.793C58.2794 15.793 58.0219 15.8568 57.8031 15.9844C57.5844 16.112 57.4044 16.2874 57.2631 16.5107C57.1264 16.734 57.0238 16.9938 56.9555 17.29C56.8871 17.5863 56.8529 17.903 56.8529 18.2402ZM64.8697 16.1826V22H63.2223V14.6035H64.774L64.8697 16.1826ZM64.5758 18.0283L64.0426 18.0215C64.0471 17.4974 64.1201 17.0166 64.2613 16.5791C64.4072 16.1416 64.6077 15.7656 64.8629 15.4512C65.1227 15.1367 65.4326 14.8952 65.7926 14.7266C66.1526 14.5534 66.5536 14.4668 66.9957 14.4668C67.3512 14.4668 67.6725 14.5169 67.9596 14.6172C68.2512 14.7129 68.4996 14.8701 68.7047 15.0889C68.9143 15.3076 69.0738 15.5924 69.1832 15.9434C69.2926 16.2897 69.3473 16.7158 69.3473 17.2217V22H67.693V17.2148C67.693 16.8594 67.6406 16.5791 67.5357 16.374C67.4355 16.1644 67.2874 16.0163 67.0914 15.9297C66.9 15.8385 66.6607 15.793 66.3736 15.793C66.0911 15.793 65.8382 15.8522 65.6148 15.9707C65.3915 16.0892 65.2024 16.251 65.0475 16.4561C64.8971 16.6611 64.7809 16.8981 64.6988 17.167C64.6168 17.4359 64.5758 17.723 64.5758 18.0283ZM78.5654 20.2568V14.6035H80.2197V22H78.6611L78.5654 20.2568ZM78.7979 18.7188L79.3516 18.7051C79.3516 19.2018 79.2969 19.6598 79.1875 20.0791C79.0781 20.4938 78.9095 20.8561 78.6816 21.166C78.4538 21.4714 78.1621 21.7106 77.8066 21.8838C77.4512 22.0524 77.0251 22.1367 76.5283 22.1367C76.1683 22.1367 75.8379 22.0843 75.5371 21.9795C75.2363 21.8747 74.9766 21.7129 74.7578 21.4941C74.5436 21.2754 74.3773 20.9906 74.2588 20.6396C74.1403 20.2887 74.0811 19.8695 74.0811 19.3818V14.6035H75.7285V19.3955C75.7285 19.6644 75.7604 19.89 75.8242 20.0723C75.888 20.25 75.9746 20.3936 76.084 20.5029C76.1934 20.6123 76.321 20.6898 76.4668 20.7354C76.6126 20.7809 76.7676 20.8037 76.9316 20.8037C77.401 20.8037 77.7702 20.7126 78.0391 20.5303C78.3125 20.3434 78.5062 20.0928 78.6201 19.7783C78.7386 19.4639 78.7979 19.1107 78.7979 18.7188ZM83.3625 16.0254V24.8438H81.715V14.6035H83.2326L83.3625 16.0254ZM88.1818 18.2334V18.377C88.1818 18.9147 88.118 19.4137 87.9904 19.874C87.8674 20.3298 87.6828 20.7285 87.4367 21.0703C87.1952 21.4076 86.8967 21.6696 86.5412 21.8564C86.1857 22.0433 85.7756 22.1367 85.3107 22.1367C84.8505 22.1367 84.4471 22.0524 84.1008 21.8838C83.759 21.7106 83.4696 21.4668 83.2326 21.1523C82.9956 20.8379 82.8042 20.4688 82.6584 20.0449C82.5171 19.6165 82.4169 19.1471 82.3576 18.6367V18.083C82.4169 17.5407 82.5171 17.0485 82.6584 16.6064C82.8042 16.1644 82.9956 15.7839 83.2326 15.4648C83.4696 15.1458 83.759 14.8997 84.1008 14.7266C84.4426 14.5534 84.8413 14.4668 85.2971 14.4668C85.7619 14.4668 86.1743 14.5579 86.5344 14.7402C86.8944 14.918 87.1975 15.1732 87.4436 15.5059C87.6896 15.834 87.8742 16.2305 87.9973 16.6953C88.1203 17.1556 88.1818 17.6683 88.1818 18.2334ZM86.5344 18.377V18.2334C86.5344 17.8916 86.5025 17.5749 86.4387 17.2832C86.3749 16.987 86.2746 16.7272 86.1379 16.5039C86.0012 16.2806 85.8257 16.1074 85.6115 15.9844C85.4019 15.8568 85.149 15.793 84.8527 15.793C84.5611 15.793 84.3104 15.8431 84.1008 15.9434C83.8911 16.0391 83.7157 16.1735 83.5744 16.3467C83.4331 16.5199 83.3238 16.7227 83.2463 16.9551C83.1688 17.1829 83.1141 17.4313 83.0822 17.7002V19.0264C83.1369 19.3545 83.2303 19.6553 83.3625 19.9287C83.4947 20.2021 83.6815 20.4209 83.923 20.585C84.1691 20.7445 84.4836 20.8242 84.8664 20.8242C85.1626 20.8242 85.4156 20.7604 85.6252 20.6328C85.8348 20.5052 86.0057 20.3298 86.1379 20.1064C86.2746 19.8786 86.3749 19.6165 86.4387 19.3203C86.5025 19.0241 86.5344 18.7096 86.5344 18.377ZM94.6793 20.3594L96.3883 14.6035H97.441L97.1539 16.3262L95.4313 22H94.4879L94.6793 20.3594ZM93.6744 14.6035L95.0074 20.3867L95.1168 22H94.0641L92.0611 14.6035H93.6744ZM99.0406 20.3184L100.333 14.6035H101.939L99.943 22H98.8902L99.0406 20.3184ZM97.6188 14.6035L99.3072 20.291L99.5191 22H98.5758L96.8326 16.3193L96.5455 14.6035H97.6188ZM104.624 14.6035V22H102.97V14.6035H104.624ZM102.86 12.6621C102.86 12.4115 102.942 12.2041 103.106 12.04C103.275 11.8714 103.507 11.7871 103.804 11.7871C104.095 11.7871 104.325 11.8714 104.494 12.04C104.663 12.2041 104.747 12.4115 104.747 12.6621C104.747 12.9082 104.663 13.1133 104.494 13.2773C104.325 13.4414 104.095 13.5234 103.804 13.5234C103.507 13.5234 103.275 13.4414 103.106 13.2773C102.942 13.1133 102.86 12.9082 102.86 12.6621ZM109.619 14.6035V15.8066H105.449V14.6035H109.619ZM106.652 12.792H108.3V19.9561C108.3 20.1839 108.332 20.3594 108.396 20.4824C108.464 20.6009 108.557 20.6807 108.676 20.7217C108.794 20.7627 108.933 20.7832 109.093 20.7832C109.207 20.7832 109.316 20.7764 109.421 20.7627C109.526 20.749 109.61 20.7354 109.674 20.7217L109.681 21.9795C109.544 22.0205 109.384 22.057 109.202 22.0889C109.024 22.1208 108.819 22.1367 108.587 22.1367C108.209 22.1367 107.874 22.0706 107.582 21.9385C107.29 21.8018 107.062 21.5807 106.898 21.2754C106.734 20.9701 106.652 20.5645 106.652 20.0586V12.792ZM112.318 11.5V22H110.677V11.5H112.318ZM112.03 18.0283L111.497 18.0215C111.502 17.5111 111.572 17.0394 111.709 16.6064C111.85 16.1735 112.046 15.7975 112.297 15.4785C112.552 15.1549 112.858 14.9066 113.213 14.7334C113.569 14.5557 113.963 14.4668 114.396 14.4668C114.76 14.4668 115.088 14.5169 115.38 14.6172C115.676 14.7174 115.932 14.8792 116.146 15.1025C116.36 15.3213 116.522 15.6084 116.631 15.9639C116.745 16.3148 116.802 16.7432 116.802 17.249V22H115.148V17.2354C115.148 16.8799 115.095 16.5973 114.99 16.3877C114.89 16.1781 114.742 16.0277 114.546 15.9365C114.35 15.8408 114.111 15.793 113.828 15.793C113.532 15.793 113.27 15.8522 113.042 15.9707C112.819 16.0892 112.632 16.251 112.482 16.4561C112.331 16.6611 112.217 16.8981 112.14 17.167C112.067 17.4359 112.03 17.723 112.03 18.0283ZM125.596 13.373L122.623 22H120.825L124.571 12.0469H125.719L125.596 13.373ZM128.085 22L125.104 13.373L124.974 12.0469H126.129L129.889 22H128.085ZM127.941 18.3086V19.6689H122.527V18.3086H127.941ZM132.171 16.0254V24.8438H130.523V14.6035H132.041L132.171 16.0254ZM136.99 18.2334V18.377C136.99 18.9147 136.926 19.4137 136.799 19.874C136.676 20.3298 136.491 20.7285 136.245 21.0703C136.003 21.4076 135.705 21.6696 135.349 21.8564C134.994 22.0433 134.584 22.1367 134.119 22.1367C133.659 22.1367 133.255 22.0524 132.909 21.8838C132.567 21.7106 132.278 21.4668 132.041 21.1523C131.804 20.8379 131.612 20.4688 131.467 20.0449C131.325 19.6165 131.225 19.1471 131.166 18.6367V18.083C131.225 17.5407 131.325 17.0485 131.467 16.6064C131.612 16.1644 131.804 15.7839 132.041 15.4648C132.278 15.1458 132.567 14.8997 132.909 14.7266C133.251 14.5534 133.65 14.4668 134.105 14.4668C134.57 14.4668 134.983 14.5579 135.343 14.7402C135.703 14.918 136.006 15.1732 136.252 15.5059C136.498 15.834 136.682 16.2305 136.805 16.6953C136.929 17.1556 136.99 17.6683 136.99 18.2334ZM135.343 18.377V18.2334C135.343 17.8916 135.311 17.5749 135.247 17.2832C135.183 16.987 135.083 16.7272 134.946 16.5039C134.809 16.2806 134.634 16.1074 134.42 15.9844C134.21 15.8568 133.957 15.793 133.661 15.793C133.369 15.793 133.119 15.8431 132.909 15.9434C132.699 16.0391 132.524 16.1735 132.383 16.3467C132.241 16.5199 132.132 16.7227 132.054 16.9551C131.977 17.1829 131.922 17.4313 131.89 17.7002V19.0264C131.945 19.3545 132.039 19.6553 132.171 19.9287C132.303 20.2021 132.49 20.4209 132.731 20.585C132.977 20.7445 133.292 20.8242 133.675 20.8242C133.971 20.8242 134.224 20.7604 134.433 20.6328C134.643 20.5052 134.814 20.3298 134.946 20.1064C135.083 19.8786 135.183 19.6165 135.247 19.3203C135.311 19.0241 135.343 18.7096 135.343 18.377ZM139.846 16.0254V24.8438H138.198V14.6035H139.716L139.846 16.0254ZM144.665 18.2334V18.377C144.665 18.9147 144.601 19.4137 144.474 19.874C144.351 20.3298 144.166 20.7285 143.92 21.0703C143.678 21.4076 143.38 21.6696 143.024 21.8564C142.669 22.0433 142.259 22.1367 141.794 22.1367C141.334 22.1367 140.93 22.0524 140.584 21.8838C140.242 21.7106 139.953 21.4668 139.716 21.1523C139.479 20.8379 139.287 20.4688 139.142 20.0449C139 19.6165 138.9 19.1471 138.841 18.6367V18.083C138.9 17.5407 139 17.0485 139.142 16.6064C139.287 16.1644 139.479 15.7839 139.716 15.4648C139.953 15.1458 140.242 14.8997 140.584 14.7266C140.926 14.5534 141.325 14.4668 141.78 14.4668C142.245 14.4668 142.658 14.5579 143.018 14.7402C143.378 14.918 143.681 15.1732 143.927 15.5059C144.173 15.834 144.357 16.2305 144.48 16.6953C144.604 17.1556 144.665 17.6683 144.665 18.2334ZM143.018 18.377V18.2334C143.018 17.8916 142.986 17.5749 142.922 17.2832C142.858 16.987 142.758 16.7272 142.621 16.5039C142.484 16.2806 142.309 16.1074 142.095 15.9844C141.885 15.8568 141.632 15.793 141.336 15.793C141.044 15.793 140.794 15.8431 140.584 15.9434C140.374 16.0391 140.199 16.1735 140.058 16.3467C139.916 16.5199 139.807 16.7227 139.729 16.9551C139.652 17.1829 139.597 17.4313 139.565 17.7002V19.0264C139.62 19.3545 139.714 19.6553 139.846 19.9287C139.978 20.2021 140.165 20.4209 140.406 20.585C140.652 20.7445 140.967 20.8242 141.35 20.8242C141.646 20.8242 141.899 20.7604 142.108 20.6328C142.318 20.5052 142.489 20.3298 142.621 20.1064C142.758 19.8786 142.858 19.6165 142.922 19.3203C142.986 19.0241 143.018 18.7096 143.018 18.377ZM147.63 11.5V22H145.976V11.5H147.63ZM152.496 22.1367C151.949 22.1367 151.454 22.0479 151.012 21.8701C150.575 21.6878 150.201 21.4349 149.891 21.1113C149.586 20.7878 149.351 20.4072 149.187 19.9697C149.023 19.5322 148.941 19.0605 148.941 18.5547V18.2812C148.941 17.7025 149.025 17.1784 149.194 16.709C149.362 16.2396 149.597 15.8385 149.898 15.5059C150.199 15.1686 150.554 14.9111 150.964 14.7334C151.374 14.5557 151.819 14.4668 152.297 14.4668C152.826 14.4668 153.288 14.5557 153.685 14.7334C154.081 14.9111 154.41 15.1618 154.669 15.4854C154.934 15.8044 155.13 16.1849 155.257 16.627C155.389 17.069 155.455 17.5566 155.455 18.0898V18.7939H149.741V17.6113H153.829V17.4814C153.819 17.1852 153.76 16.9072 153.651 16.6475C153.546 16.3877 153.384 16.1781 153.165 16.0186C152.947 15.859 152.655 15.7793 152.29 15.7793C152.017 15.7793 151.773 15.8385 151.559 15.957C151.349 16.071 151.174 16.2373 151.033 16.4561C150.891 16.6748 150.782 16.9391 150.704 17.249C150.632 17.5544 150.595 17.8984 150.595 18.2812V18.5547C150.595 18.8783 150.638 19.179 150.725 19.457C150.816 19.7305 150.948 19.9697 151.121 20.1748C151.295 20.3799 151.504 20.5417 151.75 20.6602C151.996 20.7741 152.277 20.8311 152.591 20.8311C152.988 20.8311 153.341 20.7513 153.651 20.5918C153.961 20.4323 154.23 20.2067 154.457 19.915L155.326 20.7559C155.166 20.9883 154.959 21.2116 154.704 21.4258C154.448 21.6354 154.136 21.8063 153.767 21.9385C153.402 22.0706 152.979 22.1367 152.496 22.1367Z" fill="white"/>
<path d="M26.9182 19.0482C26.7091 18.9599 26.5112 18.855 26.3417 18.7004C25.8613 18.2644 25.5391 17.74 25.46 17.0941C25.426 16.7905 25.426 16.4814 25.4995 16.1778C25.5956 15.7749 25.7934 15.4216 26.093 15.1235C26.2852 14.9358 26.483 14.7537 26.6751 14.566C26.7938 14.4501 26.8164 14.2789 26.7147 14.152C26.4999 13.887 26.2625 13.6386 25.9799 13.4344C25.6295 13.1749 25.2339 12.9983 24.8043 12.8989C24.4991 12.8327 24.1939 12.7941 23.8774 12.8217C23.3517 12.8713 22.8487 13.0149 22.3513 13.1805C21.9557 13.3074 21.5714 13.3461 21.1644 13.2301C20.6953 13.0921 20.2205 12.9652 19.7288 12.91C19.2258 12.8548 18.7397 12.8879 18.2649 13.0645C17.6714 13.2853 17.2136 13.6607 16.8463 14.163C16.575 14.5329 16.3715 14.9358 16.2358 15.3719C16.0776 15.8742 16.0041 16.3931 16.0041 16.6746C15.9815 17.4198 16.055 17.9166 16.1624 18.4079C16.2471 18.7832 16.3658 19.1476 16.5071 19.5064C16.8406 20.362 17.2758 21.1568 17.8693 21.8634C18.1858 22.2387 18.5475 22.5644 19.0053 22.7631C19.2992 22.8901 19.6044 22.9398 19.9153 22.8901C20.2431 22.8404 20.5596 22.7245 20.8705 22.6086C21.0683 22.5368 21.2661 22.4706 21.4753 22.4375C21.8087 22.3823 22.1253 22.443 22.4418 22.5368C22.7752 22.6362 23.0974 22.7521 23.4309 22.8404C23.9339 22.9729 24.3974 22.9122 24.8382 22.6472C25.3865 22.316 25.7934 21.8468 26.1495 21.3335C26.5451 20.7539 26.8786 20.1412 27.0934 19.4732C27.1612 19.2856 27.099 19.12 26.9182 19.0482Z" fill="white"/>
<path d="M22.6267 12.5898C22.6833 12.5843 22.7454 12.5788 22.8019 12.5733C23.2032 12.5401 23.5819 12.4573 23.921 12.2255C24.1754 12.0489 24.3958 11.8446 24.5936 11.6128C24.8367 11.3257 25.0402 11.0111 25.1645 10.6578C25.2549 10.4039 25.2832 10.1334 25.3114 9.86847C25.3284 9.70839 25.3284 9.55383 25.3397 9.39375C25.3567 9.14536 25.1815 8.94664 24.8989 9.01288C24.6162 9.07912 24.3393 9.16192 24.0737 9.28336C23.6724 9.46551 23.305 9.69735 23.0224 10.0396C22.5137 10.6523 22.2933 11.3699 22.248 12.1482C22.248 12.1924 22.248 12.231 22.248 12.2752C22.248 12.496 22.4007 12.6229 22.6267 12.5898Z" fill="white"/>
</svg>
