<svg width="170" height="34" viewBox="0 0 170 34" fill="none" xmlns="http://www.w3.org/2000/svg">
<rect width="170" height="34" rx="5" fill="#4285F4"/>
<rect x="1" y="1" width="32" height="32" rx="4" fill="white"/>
<path d="M48.9918 19.4365C48.9918 19.2314 48.9599 19.0492 48.896 18.8896C48.8368 18.7301 48.7297 18.5843 48.5748 18.4521C48.4198 18.32 48.2011 18.1924 47.9185 18.0693C47.6405 17.9417 47.285 17.8118 46.8521 17.6797C46.3781 17.5339 45.9406 17.3721 45.5396 17.1943C45.1431 17.012 44.7968 16.8024 44.5005 16.5654C44.2043 16.3239 43.9742 16.0482 43.8101 15.7383C43.646 15.4238 43.564 15.0615 43.564 14.6514C43.564 14.2458 43.6483 13.8766 43.8169 13.5439C43.9901 13.2113 44.2339 12.9242 44.5484 12.6826C44.8674 12.4365 45.2434 12.2474 45.6763 12.1152C46.1093 11.9785 46.5878 11.9102 47.1119 11.9102C47.8502 11.9102 48.4859 12.0469 49.0191 12.3203C49.5569 12.5938 49.9693 12.9606 50.2564 13.4209C50.5481 13.8812 50.6939 14.3893 50.6939 14.9453H48.9918C48.9918 14.6172 48.9211 14.3278 48.7798 14.0771C48.6431 13.8219 48.4335 13.6214 48.1509 13.4756C47.8729 13.3298 47.5197 13.2568 47.0914 13.2568C46.6858 13.2568 46.3485 13.3184 46.0796 13.4414C45.8108 13.5645 45.6102 13.7308 45.4781 13.9404C45.3459 14.1501 45.2798 14.387 45.2798 14.6514C45.2798 14.8382 45.3231 15.0091 45.4097 15.1641C45.4963 15.3145 45.6285 15.4557 45.8062 15.5879C45.9839 15.7155 46.2072 15.8363 46.4761 15.9502C46.745 16.0641 47.0617 16.1735 47.4263 16.2783C47.9778 16.4424 48.4585 16.6247 48.8687 16.8252C49.2789 17.0212 49.6207 17.2445 49.8941 17.4951C50.1675 17.7458 50.3726 18.0306 50.5093 18.3496C50.646 18.6641 50.7144 19.0218 50.7144 19.4229C50.7144 19.8421 50.6301 20.2204 50.4615 20.5576C50.2929 20.8903 50.0513 21.1751 49.7369 21.4121C49.427 21.6445 49.0533 21.8245 48.6158 21.9521C48.1828 22.0752 47.6998 22.1367 47.1666 22.1367C46.688 22.1367 46.2164 22.0729 45.7515 21.9453C45.2912 21.8177 44.872 21.624 44.4937 21.3643C44.1155 21.0999 43.8147 20.7718 43.5914 20.3799C43.3681 19.9834 43.2564 19.5208 43.2564 18.9922H44.9722C44.9722 19.3158 45.0269 19.5915 45.1363 19.8193C45.2502 20.0472 45.4074 20.234 45.608 20.3799C45.8085 20.5212 46.0409 20.626 46.3052 20.6943C46.5741 20.7627 46.8612 20.7969 47.1666 20.7969C47.5676 20.7969 47.9026 20.7399 48.1714 20.626C48.4449 20.512 48.65 20.3525 48.7867 20.1475C48.9234 19.9424 48.9918 19.7054 48.9918 19.4365ZM53.6316 14.6035V22H51.9773V14.6035H53.6316ZM51.8679 12.6621C51.8679 12.4115 51.95 12.2041 52.114 12.04C52.2826 11.8714 52.5151 11.7871 52.8113 11.7871C53.103 11.7871 53.3331 11.8714 53.5017 12.04C53.6703 12.2041 53.7546 12.4115 53.7546 12.6621C53.7546 12.9082 53.6703 13.1133 53.5017 13.2773C53.3331 13.4414 53.103 13.5234 52.8113 13.5234C52.5151 13.5234 52.2826 13.4414 52.114 13.2773C51.95 13.1133 51.8679 12.9082 51.8679 12.6621ZM59.9736 14.6035H61.4707V21.7949C61.4707 22.4603 61.3294 23.0254 61.0468 23.4902C60.7643 23.9551 60.3701 24.3083 59.8642 24.5498C59.3584 24.7959 58.7727 24.9189 58.1074 24.9189C57.8248 24.9189 57.5104 24.8779 57.164 24.7959C56.8222 24.7139 56.4895 24.5817 56.166 24.3994C55.847 24.2217 55.5804 23.987 55.3662 23.6953L56.1386 22.7246C56.403 23.0391 56.6946 23.2692 57.0136 23.415C57.3326 23.5609 57.6676 23.6338 58.0185 23.6338C58.3968 23.6338 58.7181 23.5632 58.9824 23.4219C59.2513 23.2852 59.4586 23.0824 59.6044 22.8135C59.7503 22.5446 59.8232 22.2165 59.8232 21.8291V16.2783L59.9736 14.6035ZM54.9492 18.3838V18.2402C54.9492 17.6797 55.0175 17.1693 55.1543 16.709C55.291 16.2441 55.4869 15.8454 55.7421 15.5127C55.9974 15.1755 56.3072 14.918 56.6718 14.7402C57.0364 14.5579 57.4488 14.4668 57.9091 14.4668C58.3877 14.4668 58.7955 14.5534 59.1328 14.7266C59.4746 14.8997 59.7594 15.1481 59.9873 15.4717C60.2151 15.7907 60.3929 16.1735 60.5205 16.6201C60.6526 17.0622 60.7506 17.5544 60.8144 18.0967V18.5547C60.7552 19.0833 60.6549 19.5664 60.5136 20.0039C60.3724 20.4414 60.1855 20.8197 59.9531 21.1387C59.7207 21.4577 59.4335 21.7038 59.0918 21.877C58.7545 22.0501 58.3558 22.1367 57.8955 22.1367C57.4443 22.1367 57.0364 22.0433 56.6718 21.8564C56.3118 21.6696 56.0019 21.4076 55.7421 21.0703C55.4869 20.7331 55.291 20.3366 55.1543 19.8809C55.0175 19.4206 54.9492 18.9215 54.9492 18.3838ZM56.5966 18.2402V18.3838C56.5966 18.721 56.6285 19.0355 56.6923 19.3271C56.7607 19.6188 56.8632 19.8763 57 20.0996C57.1412 20.3184 57.319 20.4915 57.5332 20.6191C57.7519 20.7422 58.0094 20.8037 58.3056 20.8037C58.693 20.8037 59.0097 20.7217 59.2558 20.5576C59.5065 20.3936 59.6979 20.1725 59.83 19.8945C59.9668 19.612 60.0625 19.2975 60.1171 18.9512V17.7139C60.0898 17.445 60.0328 17.1943 59.9462 16.9619C59.8642 16.7295 59.7526 16.5267 59.6113 16.3535C59.47 16.1758 59.2923 16.0391 59.0781 15.9434C58.8639 15.8431 58.611 15.793 58.3193 15.793C58.0231 15.793 57.7656 15.8568 57.5468 15.9844C57.3281 16.112 57.1481 16.2874 57.0068 16.5107C56.8701 16.734 56.7675 16.9938 56.6992 17.29C56.6308 17.5863 56.5966 17.903 56.5966 18.2402ZM64.6134 16.1826V22H62.966V14.6035H64.5177L64.6134 16.1826ZM64.3195 18.0283L63.7863 18.0215C63.7908 17.4974 63.8638 17.0166 64.005 16.5791C64.1509 16.1416 64.3514 15.7656 64.6066 15.4512C64.8664 15.1367 65.1763 14.8952 65.5363 14.7266C65.8963 14.5534 66.2974 14.4668 66.7394 14.4668C67.0949 14.4668 67.4162 14.5169 67.7033 14.6172C67.9949 14.7129 68.2433 14.8701 68.4484 15.0889C68.658 15.3076 68.8175 15.5924 68.9269 15.9434C69.0363 16.2897 69.091 16.7158 69.091 17.2217V22H67.4367V17.2148C67.4367 16.8594 67.3843 16.5791 67.2794 16.374C67.1792 16.1644 67.0311 16.0163 66.8351 15.9297C66.6437 15.8385 66.4044 15.793 66.1173 15.793C65.8348 15.793 65.5819 15.8522 65.3585 15.9707C65.1352 16.0892 64.9461 16.251 64.7912 16.4561C64.6408 16.6611 64.5246 16.8981 64.4425 17.167C64.3605 17.4359 64.3195 17.723 64.3195 18.0283ZM75.6226 14.6035V22H73.9683V14.6035H75.6226ZM73.8589 12.6621C73.8589 12.4115 73.941 12.2041 74.105 12.04C74.2737 11.8714 74.5061 11.7871 74.8023 11.7871C75.094 11.7871 75.3241 11.8714 75.4927 12.04C75.6613 12.2041 75.7457 12.4115 75.7457 12.6621C75.7457 12.9082 75.6613 13.1133 75.4927 13.2773C75.3241 13.4414 75.094 13.5234 74.8023 13.5234C74.5061 13.5234 74.2737 13.4414 74.105 13.2773C73.941 13.1133 73.8589 12.9082 73.8589 12.6621ZM78.8611 16.1826V22H77.2136V14.6035H78.7654L78.8611 16.1826ZM78.5671 18.0283L78.0339 18.0215C78.0385 17.4974 78.1114 17.0166 78.2527 16.5791C78.3985 16.1416 78.599 15.7656 78.8543 15.4512C79.114 15.1367 79.4239 14.8952 79.7839 14.7266C80.144 14.5534 80.545 14.4668 80.9871 14.4668C81.3425 14.4668 81.6638 14.5169 81.9509 14.6172C82.2426 14.7129 82.491 14.8701 82.696 15.0889C82.9057 15.3076 83.0652 15.5924 83.1746 15.9434C83.2839 16.2897 83.3386 16.7158 83.3386 17.2217V22H81.6843V17.2148C81.6843 16.8594 81.6319 16.5791 81.5271 16.374C81.4268 16.1644 81.2787 16.0163 81.0828 15.9297C80.8914 15.8385 80.6521 15.793 80.365 15.793C80.0824 15.793 79.8295 15.8522 79.6062 15.9707C79.3829 16.0892 79.1938 16.251 79.0388 16.4561C78.8884 16.6611 78.7722 16.8981 78.6902 17.167C78.6082 17.4359 78.5671 17.723 78.5671 18.0283ZM90.1164 20.3594L91.8253 14.6035H92.8781L92.591 16.3262L90.8683 22H89.925L90.1164 20.3594ZM89.1115 14.6035L90.4445 20.3867L90.5539 22H89.5011L87.4982 14.6035H89.1115ZM94.4777 20.3184L95.7697 14.6035H97.3761L95.38 22H94.3273L94.4777 20.3184ZM93.0558 14.6035L94.7443 20.291L94.9562 22H94.0128L92.2697 16.3193L91.9826 14.6035H93.0558ZM100.061 14.6035V22H98.4066V14.6035H100.061ZM98.2972 12.6621C98.2972 12.4115 98.3793 12.2041 98.5433 12.04C98.7119 11.8714 98.9444 11.7871 99.2406 11.7871C99.5322 11.7871 99.7624 11.8714 99.931 12.04C100.1 12.2041 100.184 12.4115 100.184 12.6621C100.184 12.9082 100.1 13.1133 99.931 13.2773C99.7624 13.4414 99.5322 13.5234 99.2406 13.5234C98.9444 13.5234 98.7119 13.4414 98.5433 13.2773C98.3793 13.1133 98.2972 12.9082 98.2972 12.6621ZM105.056 14.6035V15.8066H100.886V14.6035H105.056ZM102.089 12.792H103.737V19.9561C103.737 20.1839 103.769 20.3594 103.833 20.4824C103.901 20.6009 103.994 20.6807 104.113 20.7217C104.231 20.7627 104.37 20.7832 104.53 20.7832C104.644 20.7832 104.753 20.7764 104.858 20.7627C104.963 20.749 105.047 20.7354 105.111 20.7217L105.118 21.9795C104.981 22.0205 104.822 22.057 104.639 22.0889C104.461 22.1208 104.256 22.1367 104.024 22.1367C103.646 22.1367 103.311 22.0706 103.019 21.9385C102.727 21.8018 102.5 21.5807 102.336 21.2754C102.171 20.9701 102.089 20.5645 102.089 20.0586V12.792ZM107.755 11.5V22H106.114V11.5H107.755ZM107.468 18.0283L106.934 18.0215C106.939 17.5111 107.01 17.0394 107.146 16.6064C107.288 16.1735 107.483 15.7975 107.734 15.4785C107.989 15.1549 108.295 14.9066 108.65 14.7334C109.006 14.5557 109.4 14.4668 109.833 14.4668C110.197 14.4668 110.525 14.5169 110.817 14.6172C111.113 14.7174 111.369 14.8792 111.583 15.1025C111.797 15.3213 111.959 15.6084 112.068 15.9639C112.182 16.3148 112.239 16.7432 112.239 17.249V22H110.585V17.2354C110.585 16.8799 110.532 16.5973 110.427 16.3877C110.327 16.1781 110.179 16.0277 109.983 15.9365C109.787 15.8408 109.548 15.793 109.265 15.793C108.969 15.793 108.707 15.8522 108.479 15.9707C108.256 16.0892 108.069 16.251 107.919 16.4561C107.768 16.6611 107.654 16.8981 107.577 17.167C107.504 17.4359 107.468 17.723 107.468 18.0283ZM124.8 16.9141V20.7148C124.659 20.9017 124.438 21.1068 124.137 21.3301C123.841 21.5488 123.446 21.738 122.954 21.8975C122.462 22.057 121.849 22.1367 121.115 22.1367C120.491 22.1367 119.919 22.0319 119.4 21.8223C118.88 21.6081 118.431 21.2959 118.053 20.8857C117.679 20.4756 117.39 19.9766 117.185 19.3887C116.98 18.7962 116.877 18.1217 116.877 17.3652V16.6748C116.877 15.9229 116.971 15.2529 117.157 14.665C117.349 14.0726 117.622 13.5713 117.978 13.1611C118.333 12.751 118.762 12.4411 119.263 12.2314C119.769 12.0173 120.341 11.9102 120.979 11.9102C121.794 11.9102 122.469 12.0469 123.002 12.3203C123.54 12.5892 123.955 12.9629 124.246 13.4414C124.538 13.9199 124.722 14.4668 124.8 15.082H123.118C123.064 14.7357 122.957 14.4258 122.797 14.1523C122.642 13.8789 122.419 13.6647 122.127 13.5098C121.84 13.3503 121.466 13.2705 121.006 13.2705C120.61 13.2705 120.261 13.3457 119.96 13.4961C119.659 13.6465 119.409 13.8675 119.208 14.1592C119.012 14.4508 118.864 14.8063 118.764 15.2256C118.664 15.6449 118.613 16.1234 118.613 16.6611V17.3652C118.613 17.9121 118.67 18.3975 118.784 18.8213C118.903 19.2451 119.071 19.6029 119.29 19.8945C119.513 20.1862 119.785 20.4072 120.104 20.5576C120.423 20.7035 120.783 20.7764 121.184 20.7764C121.576 20.7764 121.897 20.7445 122.148 20.6807C122.398 20.6123 122.597 20.5326 122.742 20.4414C122.893 20.3457 123.009 20.2546 123.091 20.168V18.1924H121.02V16.9141H124.8ZM126.022 18.3838V18.2266C126.022 17.6934 126.099 17.1989 126.254 16.7432C126.409 16.2829 126.633 15.8841 126.924 15.5469C127.22 15.2051 127.58 14.9408 128.004 14.7539C128.433 14.5625 128.916 14.4668 129.453 14.4668C129.996 14.4668 130.479 14.5625 130.903 14.7539C131.331 14.9408 131.693 15.2051 131.99 15.5469C132.286 15.8841 132.511 16.2829 132.666 16.7432C132.821 17.1989 132.899 17.6934 132.899 18.2266V18.3838C132.899 18.917 132.821 19.4115 132.666 19.8672C132.511 20.3229 132.286 20.7217 131.99 21.0635C131.693 21.4007 131.333 21.665 130.91 21.8564C130.486 22.0433 130.005 22.1367 129.467 22.1367C128.925 22.1367 128.439 22.0433 128.011 21.8564C127.587 21.665 127.227 21.4007 126.931 21.0635C126.635 20.7217 126.409 20.3229 126.254 19.8672C126.099 19.4115 126.022 18.917 126.022 18.3838ZM127.669 18.2266V18.3838C127.669 18.7165 127.703 19.0309 127.772 19.3271C127.84 19.6234 127.947 19.8831 128.093 20.1064C128.239 20.3298 128.426 20.5052 128.654 20.6328C128.882 20.7604 129.153 20.8242 129.467 20.8242C129.772 20.8242 130.037 20.7604 130.26 20.6328C130.488 20.5052 130.675 20.3298 130.821 20.1064C130.966 19.8831 131.074 19.6234 131.142 19.3271C131.215 19.0309 131.251 18.7165 131.251 18.3838V18.2266C131.251 17.8984 131.215 17.5885 131.142 17.2969C131.074 17.0007 130.964 16.7386 130.814 16.5107C130.668 16.2829 130.481 16.1051 130.253 15.9775C130.03 15.8454 129.763 15.7793 129.453 15.7793C129.144 15.7793 128.875 15.8454 128.647 15.9775C128.424 16.1051 128.239 16.2829 128.093 16.5107C127.947 16.7386 127.84 17.0007 127.772 17.2969C127.703 17.5885 127.669 17.8984 127.669 18.2266ZM133.765 18.3838V18.2266C133.765 17.6934 133.843 17.1989 133.998 16.7432C134.153 16.2829 134.376 15.8841 134.668 15.5469C134.964 15.2051 135.324 14.9408 135.748 14.7539C136.176 14.5625 136.659 14.4668 137.197 14.4668C137.739 14.4668 138.222 14.5625 138.646 14.7539C139.074 14.9408 139.437 15.2051 139.733 15.5469C140.029 15.8841 140.255 16.2829 140.41 16.7432C140.565 17.1989 140.642 17.6934 140.642 18.2266V18.3838C140.642 18.917 140.565 19.4115 140.41 19.8672C140.255 20.3229 140.029 20.7217 139.733 21.0635C139.437 21.4007 139.077 21.665 138.653 21.8564C138.229 22.0433 137.748 22.1367 137.211 22.1367C136.668 22.1367 136.183 22.0433 135.754 21.8564C135.331 21.665 134.971 21.4007 134.674 21.0635C134.378 20.7217 134.153 20.3229 133.998 19.8672C133.843 19.4115 133.765 18.917 133.765 18.3838ZM135.413 18.2266V18.3838C135.413 18.7165 135.447 19.0309 135.515 19.3271C135.584 19.6234 135.691 19.8831 135.836 20.1064C135.982 20.3298 136.169 20.5052 136.397 20.6328C136.625 20.7604 136.896 20.8242 137.211 20.8242C137.516 20.8242 137.78 20.7604 138.003 20.6328C138.231 20.5052 138.418 20.3298 138.564 20.1064C138.71 19.8831 138.817 19.6234 138.885 19.3271C138.958 19.0309 138.995 18.7165 138.995 18.3838V18.2266C138.995 17.8984 138.958 17.5885 138.885 17.2969C138.817 17.0007 138.708 16.7386 138.557 16.5107C138.411 16.2829 138.225 16.1051 137.997 15.9775C137.773 15.8454 137.507 15.7793 137.197 15.7793C136.887 15.7793 136.618 15.8454 136.39 15.9775C136.167 16.1051 135.982 16.2829 135.836 16.5107C135.691 16.7386 135.584 17.0007 135.515 17.2969C135.447 17.5885 135.413 17.8984 135.413 18.2266ZM146.56 14.6035H148.057V21.7949C148.057 22.4603 147.916 23.0254 147.634 23.4902C147.351 23.9551 146.957 24.3083 146.451 24.5498C145.945 24.7959 145.359 24.9189 144.694 24.9189C144.412 24.9189 144.097 24.8779 143.751 24.7959C143.409 24.7139 143.076 24.5817 142.753 24.3994C142.434 24.2217 142.167 23.987 141.953 23.6953L142.725 22.7246C142.99 23.0391 143.281 23.2692 143.6 23.415C143.919 23.5609 144.254 23.6338 144.605 23.6338C144.983 23.6338 145.305 23.5632 145.569 23.4219C145.838 23.2852 146.045 23.0824 146.191 22.8135C146.337 22.5446 146.41 22.2165 146.41 21.8291V16.2783L146.56 14.6035ZM141.536 18.3838V18.2402C141.536 17.6797 141.604 17.1693 141.741 16.709C141.878 16.2441 142.074 15.8454 142.329 15.5127C142.584 15.1755 142.894 14.918 143.259 14.7402C143.623 14.5579 144.036 14.4668 144.496 14.4668C144.974 14.4668 145.382 14.5534 145.719 14.7266C146.061 14.8997 146.346 15.1481 146.574 15.4717C146.802 15.7907 146.98 16.1735 147.107 16.6201C147.239 17.0622 147.337 17.5544 147.401 18.0967V18.5547C147.342 19.0833 147.242 19.5664 147.1 20.0039C146.959 20.4414 146.772 20.8197 146.54 21.1387C146.307 21.4577 146.02 21.7038 145.678 21.877C145.341 22.0501 144.942 22.1367 144.482 22.1367C144.031 22.1367 143.623 22.0433 143.259 21.8564C142.899 21.6696 142.589 21.4076 142.329 21.0703C142.074 20.7331 141.878 20.3366 141.741 19.8809C141.604 19.4206 141.536 18.9215 141.536 18.3838ZM143.183 18.2402V18.3838C143.183 18.721 143.215 19.0355 143.279 19.3271C143.347 19.6188 143.45 19.8763 143.587 20.0996C143.728 20.3184 143.906 20.4915 144.12 20.6191C144.339 20.7422 144.596 20.8037 144.892 20.8037C145.28 20.8037 145.596 20.7217 145.843 20.5576C146.093 20.3936 146.285 20.1725 146.417 19.8945C146.553 19.612 146.649 19.2975 146.704 18.9512V17.7139C146.677 17.445 146.62 17.1943 146.533 16.9619C146.451 16.7295 146.339 16.5267 146.198 16.3535C146.057 16.1758 145.879 16.0391 145.665 15.9434C145.451 15.8431 145.198 15.793 144.906 15.793C144.61 15.793 144.352 15.8568 144.134 15.9844C143.915 16.112 143.735 16.2874 143.594 16.5107C143.457 16.734 143.354 16.9938 143.286 17.29C143.218 17.5863 143.183 17.903 143.183 18.2402ZM151.33 11.5V22H149.676V11.5H151.33ZM156.195 22.1367C155.649 22.1367 155.154 22.0479 154.712 21.8701C154.275 21.6878 153.901 21.4349 153.591 21.1113C153.286 20.7878 153.051 20.4072 152.887 19.9697C152.723 19.5322 152.641 19.0605 152.641 18.5547V18.2812C152.641 17.7025 152.725 17.1784 152.894 16.709C153.062 16.2396 153.297 15.8385 153.598 15.5059C153.899 15.1686 154.254 14.9111 154.664 14.7334C155.074 14.5557 155.519 14.4668 155.997 14.4668C156.526 14.4668 156.988 14.5557 157.385 14.7334C157.781 14.9111 158.11 15.1618 158.369 15.4854C158.634 15.8044 158.83 16.1849 158.957 16.627C159.089 17.069 159.155 17.5566 159.155 18.0898V18.7939H153.441V17.6113H157.528V17.4814C157.519 17.1852 157.46 16.9072 157.351 16.6475C157.246 16.3877 157.084 16.1781 156.865 16.0186C156.647 15.859 156.355 15.7793 155.99 15.7793C155.717 15.7793 155.473 15.8385 155.259 15.957C155.049 16.071 154.874 16.2373 154.733 16.4561C154.591 16.6748 154.482 16.9391 154.404 17.249C154.332 17.5544 154.295 17.8984 154.295 18.2812V18.5547C154.295 18.8783 154.338 19.179 154.425 19.457C154.516 19.7305 154.648 19.9697 154.821 20.1748C154.995 20.3799 155.204 20.5417 155.45 20.6602C155.696 20.7741 155.977 20.8311 156.291 20.8311C156.688 20.8311 157.041 20.7513 157.351 20.5918C157.661 20.4323 157.93 20.2067 158.157 19.915L159.026 20.7559C158.866 20.9883 158.659 21.2116 158.403 21.4258C158.148 21.6354 157.836 21.8063 157.467 21.9385C157.102 22.0706 156.679 22.1367 156.195 22.1367Z" fill="white"/>
<path fill-rule="evenodd" clip-rule="evenodd" d="M23.6236 17.1085C23.6236 16.6156 23.5794 16.1417 23.4973 15.6868H16.9512V18.3753H20.6918C20.5307 19.2442 20.041 19.9803 19.3049 20.4731V22.2171H21.5511C22.8654 21.0071 23.6236 19.2252 23.6236 17.1085Z" fill="#4285F4"/>
<path fill-rule="evenodd" clip-rule="evenodd" d="M16.9495 23.901C18.8261 23.901 20.3995 23.2786 21.5495 22.2171L19.3032 20.4731C18.6808 20.8902 17.8847 21.1366 16.9495 21.1366C15.1392 21.1366 13.6069 19.9139 13.0604 18.2711H10.7383V20.0719C11.882 22.3434 14.2325 23.901 16.9495 23.901Z" fill="#34A853"/>
<path fill-rule="evenodd" clip-rule="evenodd" d="M13.0614 18.2711C12.9224 17.8541 12.8434 17.4086 12.8434 16.9505C12.8434 16.4924 12.9224 16.0469 13.0614 15.6299V13.8291H10.7393C10.2685 14.7674 10 15.8289 10 16.9505C10 18.0721 10.2685 19.1336 10.7393 20.0719L13.0614 18.2711Z" fill="#FBBC05"/>
<path fill-rule="evenodd" clip-rule="evenodd" d="M16.9495 12.7644C17.97 12.7644 18.8862 13.1151 19.6065 13.8038L21.6 11.8103C20.3963 10.6887 18.823 10 16.9495 10C14.2325 10 11.882 11.5575 10.7383 13.8291L13.0604 15.6299C13.6069 13.9871 15.1392 12.7644 16.9495 12.7644Z" fill="#EA4335"/>
</svg>
