<svg width="20" height="18" viewBox="0 0 20 18" fill="none" xmlns="http://www.w3.org/2000/svg">
<path d="M16.0526 14.4H3.09259C2.61259 14.4 2.19259 14.16 1.95259 13.74C1.71259 13.32 1.77259 12.84 2.01259 12.42L2.67259 11.4C3.75259 9.78 4.29259 7.92 4.29259 6C4.29259 3.78 5.73259 1.74 7.83259 1.02C8.19259 0.36 8.85259 0 9.57259 0C10.2926 0 10.9526 0.36 11.3126 1.02C13.4126 1.74 14.8526 3.78 14.8526 6C14.8526 7.92 15.3926 9.78 16.4726 11.4L17.1326 12.42C17.3726 12.84 17.4326 13.32 17.1926 13.74C17.0126 14.16 16.5326 14.4 16.0526 14.4Z" fill="white"/>
<path d="M6.60059 15.6C6.90059 16.98 8.10059 18 9.54059 18C10.9806 18 12.1806 16.98 12.4806 15.6H6.60059Z" fill="white"/>
<path d="M18.2221 4.49075C17.9444 4.15449 17.4395 4.10199 17.097 4.37475C16.753 4.64675 16.7002 5.13974 16.9778 5.4768C17.3843 5.96901 17.5995 6.56473 17.5995 7.19961C17.5995 7.83526 17.3843 8.43098 16.9778 8.92319C16.7001 9.26022 16.7529 9.75324 17.097 10.026C17.2442 10.1428 17.4227 10.2 17.5995 10.2C17.8332 10.2 18.0644 10.1005 18.222 9.90921C18.8526 9.14577 19.1998 8.18404 19.1998 7.19961C19.1998 6.21587 18.8526 5.25415 18.2221 4.49075Z" fill="white"/>
<path d="M2.22158 8.92399C1.81505 8.43098 1.60055 7.83531 1.60055 7.20044C1.60055 6.56481 1.81501 5.96833 2.22158 5.4769C2.50008 5.13988 2.44648 4.64686 2.10315 4.37411C1.75983 4.10212 1.25486 4.15466 0.97715 4.4909C0.346512 5.25352 0 6.21603 0 7.20044C0 8.18331 0.346512 9.14502 0.975537 9.90844C1.13478 10.1005 1.36609 10.2 1.59976 10.2C1.77581 10.2 1.95347 10.1436 2.10154 10.026C2.44486 9.75403 2.4993 9.26024 2.22158 8.92399Z" fill="white"/>
</svg>
