<svg width="341" height="388" viewBox="0 0 341 388" fill="none" xmlns="http://www.w3.org/2000/svg">
<path d="M308.915 140.209H279V92.9218C276.83 61.0702 251.565 0.980841 171.068 0H169.26C89.9 0 64.3767 65.768 62 100.82V140.209H32.085C23.5708 140.222 15.41 143.611 9.39434 149.632C3.37871 155.652 -1.10036e-05 163.811 0 172.318L0 356.2C0 364.702 3.38037 372.857 9.39748 378.869C15.4146 384.881 23.5755 388.258 32.085 388.258H308.915C317.424 388.258 325.585 384.881 331.602 378.869C337.62 372.857 341 364.702 341 356.2V172.318C341 163.811 337.621 155.652 331.606 149.632C325.59 143.611 317.429 140.222 308.915 140.209ZM93 140.209V102.42C93.5683 95.761 100.802 30.9739 169.312 30.9739H170.5C239.63 31.8515 247.122 86.2624 248 94.3156V140.209H93Z" fill="white"/>
</svg>
