<svg width="21" height="21" viewBox="0 0 21 21" fill="none" xmlns="http://www.w3.org/2000/svg">
<path d="M17.8969 0.400002H3.3031C1.65541 0.400002 0.400024 1.65539 0.400024 3.30308V17.8969C0.400024 19.5446 1.65541 20.8 3.3031 20.8H17.8969C19.5446 20.8 20.8 19.5446 20.8 17.8969V3.30308C20.8 1.65539 19.5446 0.400002 17.8969 0.400002ZM10.6 16.72C13.9739 16.72 16.72 14.0523 16.72 10.8354C16.72 10.2862 16.6416 9.65846 16.4846 9.18769H18.2108V17.5046C18.2108 17.8969 17.8969 18.2892 17.4262 18.2892H3.77387C3.38157 18.2892 2.98926 17.9754 2.98926 17.5046V9.10923H4.79388C4.63695 9.65846 4.55849 10.2077 4.55849 10.7569C4.48003 14.0523 7.22618 16.72 10.6 16.72ZM10.6 14.3662C8.4031 14.3662 6.67695 12.64 6.67695 10.5215C6.67695 8.40308 8.4031 6.67692 10.6 6.67692C12.7969 6.67692 14.5231 8.40308 14.5231 10.5215C14.5231 12.7185 12.7969 14.3662 10.6 14.3662ZM18.1323 5.97077C18.1323 6.44154 17.74 6.83385 17.2693 6.83385H15.0723C14.6016 6.83385 14.2093 6.44154 14.2093 5.97077V3.85231C14.2093 3.38154 14.6016 2.98923 15.0723 2.98923H17.2693C17.74 2.98923 18.1323 3.38154 18.1323 3.85231V5.97077Z" fill="white"/>
</svg>
