<svg width="22" height="20" viewBox="0 0 22 20" fill="none" xmlns="http://www.w3.org/2000/svg">
<path d="M1.6 0C0.7176 0 0 0.7176 0 1.6V17.6C0 18.4824 0.7176 19.2 1.6 19.2H12.8C13.6824 19.2 14.4 18.4824 14.4 17.6V10.4H8C7.5584 10.4 7.2 10.0416 7.2 9.6C7.2 9.1584 7.5584 8.8 8 8.8H14.4V1.6C14.4 0.7176 13.6824 0 12.8 0H1.6ZM14.4 8.8V10.4H18.8687L17.0344 12.2344C16.9576 12.3081 16.8963 12.3964 16.8541 12.4941C16.8118 12.5918 16.7895 12.6969 16.7884 12.8034C16.7874 12.9098 16.8075 13.0154 16.8478 13.1139C16.888 13.2125 16.9475 13.302 17.0227 13.3773C17.098 13.4525 17.1875 13.512 17.2861 13.5522C17.3846 13.5925 17.4902 13.6126 17.5966 13.6116C17.7031 13.6105 17.8082 13.5882 17.9059 13.5459C18.0036 13.5037 18.0919 13.4424 18.1656 13.3656L21.3656 10.1656C21.5156 10.0156 21.5998 9.81214 21.5998 9.6C21.5998 9.38786 21.5156 9.18441 21.3656 9.03437L18.1656 5.83437C18.0911 5.75774 18.0019 5.69682 17.9034 5.65523C17.8049 5.61363 17.6991 5.59219 17.5922 5.59219C17.433 5.59223 17.2775 5.63973 17.1455 5.72862C17.0135 5.81751 16.911 5.94375 16.8511 6.0912C16.7912 6.23865 16.7767 6.40061 16.8093 6.55637C16.842 6.71214 16.9203 6.85463 17.0344 6.96562L18.8687 8.8H14.4Z" fill="white"/>
</svg>
