<svg width="18" height="19" viewBox="0 0 18 19" fill="none" xmlns="http://www.w3.org/2000/svg">
<path d="M8.55019 13.3C10.1376 13.3 11.4002 12.0355 11.4002 10.45C11.4002 8.86442 10.1376 7.59998 8.55019 7.59998C6.96274 7.59998 5.7002 8.86442 5.7002 10.45C5.7002 12.0355 6.96274 13.3 8.55019 13.3Z" fill="white"/>
<path d="M16.9261 8.72669C16.7023 7.63263 16.2648 6.59345 15.6389 5.66865C15.0238 4.75881 14.2402 3.9752 13.3304 3.36015C12.4055 2.73441 11.3663 2.297 10.2723 2.0729C9.69769 1.95636 9.11259 1.89906 8.52624 1.9019V0L4.75 2.85L8.52624 5.7V3.8019C8.98604 3.8 9.44584 3.8437 9.88949 3.9349C10.7398 4.10913 11.5474 4.44905 12.2664 4.93525C12.9754 5.41333 13.5857 6.02359 14.0638 6.73264C14.8061 7.83011 15.2019 9.12508 15.2 10.45C15.1998 11.3391 15.0222 12.2192 14.6775 13.0387C14.5099 13.4335 14.305 13.8114 14.0657 14.1673C13.8254 14.5211 13.5525 14.8516 13.2506 15.1544C12.331 16.0723 11.1635 16.7019 9.89139 16.966C9.00669 17.1446 8.0952 17.1446 7.2105 16.966C6.35982 16.7916 5.55183 16.4514 4.83265 15.9647C4.12441 15.4871 3.5148 14.8775 3.03715 14.1692C2.29573 13.0706 1.89972 11.7754 1.9 10.45H0C0.00101096 12.154 0.510042 13.819 1.46205 15.2323C2.0775 16.1406 2.86032 16.9234 3.76865 17.5389C5.17999 18.4941 6.8458 19.0031 8.54999 19C9.1288 18.9999 9.70614 18.9417 10.2733 18.8261C11.3665 18.6004 12.405 18.1631 13.3304 17.5389C13.7848 17.2327 14.2082 16.8831 14.5948 16.4948C14.982 16.1066 15.3318 15.683 15.6398 15.2294C16.5942 13.8185 17.1029 12.1534 17.1 10.45C17.0999 9.87118 17.0417 9.29385 16.9261 8.72669V8.72669Z" fill="white"/>
</svg>
