<svg width="395" height="384" viewBox="0 0 395 384" fill="none" xmlns="http://www.w3.org/2000/svg">
<path d="M16 176C11.7565 176 7.68687 177.686 4.68629 180.686C1.68571 183.687 0 187.757 0 192C0 196.243 1.68571 200.313 4.68629 203.314C7.68687 206.314 11.7565 208 16 208H106.54V176H16ZM362.54 0H138.54C130.053 0 121.914 3.37142 115.913 9.37258C109.911 15.3737 106.54 23.5131 106.54 32V176H233.38L196.69 139.31C194.41 137.091 192.843 134.243 192.189 131.13C191.535 128.016 191.825 124.778 193.02 121.83C194.019 119.371 195.613 117.199 197.66 115.51C199.708 113.82 202.143 112.667 204.747 112.153C207.35 111.639 210.041 111.781 212.577 112.566C215.112 113.351 217.412 114.755 219.27 116.65L283.27 180.65C286.268 183.65 287.953 187.718 287.953 191.96C287.953 196.202 286.268 200.27 283.27 203.27L219.27 267.27C217.053 269.574 214.195 271.162 211.067 271.826C207.939 272.491 204.683 272.203 201.72 271C199.753 270.192 197.965 269.003 196.46 267.5C194.951 265.992 193.759 264.199 192.954 262.224C192.148 260.249 191.746 258.133 191.77 256C191.789 253.871 192.234 251.767 193.079 249.812C193.924 247.858 195.152 246.092 196.69 244.62L233.38 208H106.54V352C106.54 360.487 109.911 368.626 115.913 374.627C121.914 380.629 130.053 384 138.54 384H362.54C371.027 384 379.166 380.629 385.167 374.627C391.169 368.626 394.54 360.487 394.54 352V32C394.54 23.5131 391.169 15.3737 385.167 9.37258C379.166 3.37142 371.027 0 362.54 0V0Z" fill="white"/>
</svg>
