<svg width="24" height="20" viewBox="0 0 24 20" fill="none" xmlns="http://www.w3.org/2000/svg">
<path d="M23.7199 2.87999C22.8799 3.23999 21.92 3.48 20.96 3.6C21.92 3 22.7599 2.04 23.1199 0.960002C22.1599 1.56 21.2 1.92 20 2.16C19.16 1.2 17.8399 0.599998 16.5199 0.599998C13.8799 0.599998 11.7199 2.76 11.7199 5.4C11.7199 5.76 11.7199 6.11999 11.8399 6.47999C7.87995 6.23999 4.27994 4.31999 1.87994 1.43999C1.51994 2.15999 1.27994 2.99999 1.27994 3.83999C1.27994 5.51999 2.11995 6.96 3.43995 7.8C2.59995 7.8 1.87994 7.56 1.27994 7.2C1.27994 9.48 2.95994 11.52 5.11994 11.88C4.75994 12 4.27995 12 3.79995 12C3.43995 12 3.19995 12 2.83995 11.88C3.43995 13.8 5.23995 15.24 7.39995 15.24C5.71995 16.56 3.67995 17.28 1.39995 17.28C1.03995 17.28 0.679951 17.28 0.199951 17.16C2.35995 18.48 4.87995 19.32 7.63995 19.32C16.5199 19.32 21.3199 12 21.3199 5.63999V5.03999C22.2799 4.67999 23.1199 3.83999 23.7199 2.87999Z" fill="white"/>
</svg>
