<svg width="22" height="17" viewBox="0 0 22 17" fill="none" xmlns="http://www.w3.org/2000/svg">
<path d="M21.4557 6.69575C21.4557 6.2303 21.3781 5.68727 21.3781 5.06667C21.3006 4.44606 21.223 3.82545 21.1454 3.28242C20.9903 2.66182 20.7575 2.19637 20.2921 1.80849C19.9042 1.42061 19.3612 1.18787 18.8181 1.1103C17.0339 0.87757 14.3963 0.799999 10.8278 0.799999C7.25936 0.799999 4.54419 0.87757 2.83752 1.1103C2.29449 1.18787 1.75147 1.42061 1.36359 1.80849C0.975709 2.19637 0.665401 2.66182 0.510249 3.28242C0.355098 3.82545 0.277532 4.36848 0.277532 5.06667C0.199956 5.68727 0.199951 6.2303 0.199951 6.69575C0.199951 7.1612 0.199951 7.70424 0.199951 8.47999C0.199951 9.25575 0.199951 9.87636 0.199951 10.2642C0.199951 10.7297 0.277532 11.2727 0.277532 11.8933C0.355107 12.5139 0.432674 13.1345 0.510249 13.6776C0.665401 14.2982 0.898133 14.7636 1.36359 15.1515C1.75147 15.5394 2.29449 15.7721 2.83752 15.8497C4.62176 16.0824 7.25936 16.16 10.8278 16.16C14.3963 16.16 17.1115 16.0824 18.8181 15.8497C19.3612 15.7721 19.9042 15.5394 20.2921 15.1515C20.6799 14.7636 20.9903 14.2982 21.1454 13.6776C21.3006 13.1345 21.3781 12.5915 21.3781 11.8933C21.4557 11.2727 21.4557 10.7297 21.4557 10.2642C21.4557 9.79879 21.4557 9.25575 21.4557 8.47999C21.4557 7.70424 21.4557 7.08363 21.4557 6.69575ZM14.9393 9.1006L8.81087 12.9018C8.73329 12.9794 8.57814 13.057 8.42299 13.057C8.26783 13.057 8.19026 13.057 8.03511 12.9794C7.80238 12.8242 7.64723 12.5915 7.64723 12.2812V4.60121C7.64723 4.2909 7.80238 4.05818 8.03511 3.90303C8.26783 3.74788 8.57814 3.74788 8.81087 3.90303L14.9393 7.70424C15.1721 7.85939 15.3272 8.09212 15.3272 8.32485C15.3272 8.55757 15.1721 8.94545 14.9393 9.1006Z" fill="white"/>
</svg>
