<svg width="20" height="20" viewBox="0 0 20 20" fill="none" xmlns="http://www.w3.org/2000/svg">
<path d="M5.79343 14.0618C4.68361 12.9317 3.80375 11.5872 3.20481 10.1063C2.60587 8.62542 2.29974 7.03755 2.30416 5.43464C2.30328 5.29631 2.25745 5.16221 2.17391 5.05351C2.09037 4.94481 1.97387 4.86769 1.84279 4.83431C1.71171 4.80094 1.57351 4.81321 1.45 4.8692C1.32649 4.92518 1.22469 5.02169 1.16066 5.1435C0.165452 7.05411 -0.203793 9.24175 0.107404 11.3837C0.418602 13.5256 1.39376 15.5083 2.88901 17.0394C4.38426 18.5704 6.32041 19.5687 8.4118 19.8869C10.5032 20.2051 12.6391 19.8264 14.5043 18.8067C14.6235 18.741 14.7178 18.6364 14.7724 18.5096C14.827 18.3828 14.8388 18.2409 14.8058 18.1065C14.7728 17.972 14.6969 17.8527 14.5903 17.7674C14.4836 17.6821 14.3522 17.6357 14.2168 17.6355C12.6518 17.64 11.1014 17.3265 9.65552 16.7131C8.20962 16.0996 6.89691 15.1985 5.79343 14.0618Z" fill="white"/>
<path d="M17.0438 8.29132C17.2895 8.29892 17.5354 8.29051 17.7801 8.26615C18.0105 8.24424 18.2329 8.16788 18.4297 8.04306C18.6264 7.91824 18.7922 7.74837 18.914 7.54681C19.0358 7.34525 19.1103 7.1175 19.1316 6.88146C19.153 6.64542 19.1205 6.40754 19.0369 6.18651C18.5473 4.92203 17.8146 3.77118 16.8824 2.80229C15.9502 1.83341 14.8374 1.06624 13.6101 0.546331C13.3993 0.457467 13.1714 0.419403 12.9439 0.435079C12.7165 0.450755 12.4956 0.519752 12.2984 0.636741C12.1011 0.75373 11.9327 0.915584 11.8062 1.10981C11.6798 1.30403 11.5985 1.52542 11.5689 1.7569C11.5288 2.10116 11.5177 2.44831 11.5357 2.79452C11.6204 4.24879 12.232 5.61833 13.2507 6.63503C14.2695 7.65173 15.6221 8.24237 17.0438 8.29132Z" fill="white"/>
<path d="M16.9425 10.3885C15.8859 10.3504 14.8481 10.0909 13.8932 9.62601C12.9383 9.16116 12.0865 8.50082 11.3904 7.68575C10.6944 6.87068 10.1688 5.91816 9.84604 4.88697C9.52332 3.85579 9.41035 2.76781 9.51409 1.69017C9.53854 1.44829 9.50643 1.20392 9.42043 0.977268C9.33442 0.750613 9.19698 0.548176 9.01947 0.386688C8.84196 0.225201 8.62947 0.1093 8.39956 0.048565C8.16966 -0.01217 7.92895 -0.0159951 7.69732 0.0374058C7.20005 0.151717 6.7123 0.305791 6.23856 0.498209C5.96614 0.609949 5.71894 0.777619 5.51217 0.990893C5.3054 1.20417 5.14345 1.45853 5.03628 1.73833C4.33313 3.56889 4.16714 5.56989 4.55868 7.49571C4.95021 9.42153 5.88224 11.1884 7.24035 12.5793C8.59846 13.9703 10.3236 14.9249 12.2039 15.3259C14.0842 15.7269 16.038 15.5569 17.8253 14.8367C18.0978 14.7279 18.3455 14.5629 18.5532 14.3521C18.761 14.1412 18.9242 13.8889 19.0329 13.6108C19.2076 13.1645 19.3504 12.7058 19.4604 12.2383C19.5141 12.0013 19.512 11.7546 19.4541 11.5186C19.3963 11.2826 19.2844 11.0641 19.1277 10.8812C18.9711 10.6983 18.7741 10.5562 18.5532 10.4667C18.3323 10.3772 18.0938 10.3429 17.8573 10.3666C17.5531 10.3921 17.2476 10.3994 16.9425 10.3885Z" fill="white"/>
</svg>
