<svg width="25" height="19" viewBox="0 0 25 19" fill="none" xmlns="http://www.w3.org/2000/svg">
<path d="M21.1019 1.57501C19.5132 0.846038 17.8094 0.308936 16.0281 0.00129081C15.9957 -0.00464886 15.9632 0.0102003 15.9465 0.03985C15.7274 0.42958 15.4847 0.937957 15.3147 1.33757C13.3988 1.05071 11.4927 1.05071 9.61602 1.33757C9.44601 0.929096 9.1945 0.42958 8.97439 0.03985C8.95769 0.011174 8.92526 -0.00367514 8.89284 0.00129081C7.1125 0.307914 5.40879 0.845016 3.819 1.57501C3.80522 1.58095 3.79344 1.59083 3.7856 1.60369C0.554032 6.43161 -0.33127 11.1409 0.103007 15.7917C0.104955 15.8145 0.117759 15.8362 0.135432 15.8501C2.26753 17.4159 4.33288 18.3664 6.35981 18.9965C6.39224 19.0064 6.42661 18.9946 6.44725 18.9679C6.92671 18.3131 7.35412 17.6227 7.72058 16.8966C7.7422 16.8541 7.72155 16.8036 7.67735 16.7868C6.9994 16.5297 6.35387 16.2161 5.73289 15.8601C5.68376 15.8314 5.67982 15.7611 5.72505 15.7275C5.85572 15.6296 5.98644 15.5277 6.11122 15.4248C6.13381 15.406 6.16527 15.4021 6.1918 15.4139C10.2713 17.2765 14.6878 17.2765 18.7191 15.4139C18.7457 15.401 18.7771 15.405 18.8007 15.4238C18.9255 15.5267 19.0562 15.6295 19.1878 15.7274C19.233 15.7611 19.2301 15.8313 19.181 15.86C18.56 16.223 17.9145 16.5296 17.2355 16.7858C17.1913 16.8026 17.1717 16.8541 17.1933 16.8966C17.5677 17.6216 17.9951 18.312 18.4657 18.9668C18.4854 18.9945 18.5207 19.0064 18.5531 18.9965C20.5899 18.3664 22.6552 17.4159 24.7873 15.8501C24.806 15.8362 24.8178 15.8155 24.8198 15.7927C25.3395 10.4158 23.9492 5.74514 21.1342 1.60466C21.1274 1.59083 21.1157 1.58095 21.1019 1.57501ZM8.32988 12.9598C7.10169 12.9598 6.08966 11.8323 6.08966 10.4475C6.08966 9.06269 7.08202 7.93508 8.32988 7.93508C9.58749 7.93508 10.5897 9.07257 10.5701 10.4475C10.5701 11.8323 9.57765 12.9598 8.32988 12.9598ZM16.6127 12.9598C15.3845 12.9598 14.3725 11.8323 14.3725 10.4475C14.3725 9.06269 15.3648 7.93508 16.6127 7.93508C17.8703 7.93508 18.8725 9.07257 18.8529 10.4475C18.8529 11.8323 17.8704 12.9598 16.6127 12.9598Z" fill="#5865F2"/>
</svg>
