<svg width="24" height="24" viewBox="0 0 24 24" fill="none" xmlns="http://www.w3.org/2000/svg">
<path d="M18.6671 24H5.33381C3.90932 24 2.57001 23.4452 1.56261 22.4378C0.555259 21.4306 0.000488281 20.0912 0.000488281 18.6666V17.3332C0.000488281 16.5968 0.597411 15.9999 1.33383 15.9999C2.07025 15.9999 2.66717 16.5968 2.66717 17.3332V18.6666C2.66717 19.3789 2.94458 20.0486 3.44816 20.5522C3.95189 21.0559 4.62151 21.3333 5.33381 21.3333H18.6671C19.3794 21.3333 20.049 21.0559 20.5527 20.5522C21.0564 20.0485 21.3338 19.3788 21.3338 18.6666V17.3332C21.3338 16.5968 21.9307 15.9999 22.6671 15.9999C23.4035 15.9999 24.0005 16.5968 24.0005 17.3332V18.6666C24.0005 20.0911 23.4457 21.4304 22.4383 22.4378C21.4309 23.4452 20.0916 24 18.6671 24ZM12.0005 18.6666C11.816 18.6666 11.6404 18.6291 11.4807 18.5615C11.3316 18.4985 11.1916 18.407 11.069 18.2874C11.069 18.2873 11.069 18.2873 11.0689 18.2873C11.0681 18.2864 11.0672 18.2855 11.0663 18.2847C11.0661 18.2845 11.0658 18.2842 11.0655 18.2839C11.0648 18.2833 11.0641 18.2826 11.0634 18.2819C11.063 18.2814 11.0626 18.281 11.0621 18.2805C11.0616 18.2801 11.061 18.2794 11.0606 18.2791C11.0597 18.2781 11.0586 18.2771 11.0577 18.2762L5.72435 12.9428C5.20367 12.4221 5.20367 11.5779 5.72435 11.0571C6.24503 10.5365 7.08931 10.5364 7.60999 11.0571L10.6672 14.1143V1.33334C10.6671 0.596923 11.264 0 12.0005 0C12.7369 0 13.3339 0.596923 13.3339 1.33334V14.1143L16.391 11.0571C16.9116 10.5365 17.756 10.5365 18.2766 11.0571C18.7973 11.5778 18.7973 12.4221 18.2766 12.9428L12.9433 18.2761C12.9423 18.277 12.9413 18.278 12.9404 18.279C12.9399 18.2794 12.9393 18.2801 12.9389 18.2804C12.9384 18.2809 12.938 18.2813 12.9375 18.2818C12.9369 18.2825 12.9361 18.2832 12.9355 18.2838C12.9353 18.2841 12.9349 18.2844 12.9347 18.2846C12.9339 18.2855 12.933 18.2863 12.9321 18.2872C12.932 18.2872 12.932 18.2872 12.932 18.2873C12.9173 18.3016 12.9025 18.3154 12.8873 18.329C12.7756 18.4285 12.6513 18.5062 12.5198 18.5616C12.5193 18.5618 12.519 18.562 12.5185 18.5622C12.518 18.5624 12.5176 18.5626 12.517 18.5628C12.3581 18.6297 12.1836 18.6666 12.0005 18.6666Z" fill="white"/>
</svg>
