<svg width="512" height="512" viewBox="0 0 512 512" fill="none" xmlns="http://www.w3.org/2000/svg">
<g clip-path="url(#clip0_3270_13944)">
<path d="M335.084 207.085L469.332 72.837V128C469.332 139.782 478.883 149.333 490.665 149.333C502.447 149.333 511.999 139.782 511.999 128V21.335C511.999 20.632 511.962 19.929 511.893 19.228C511.862 18.912 511.803 18.606 511.758 18.295C511.704 17.918 511.66 17.54 511.586 17.165C511.515 16.807 511.417 16.46 511.328 16.109C511.247 15.786 511.176 15.461 511.079 15.141C510.975 14.796 510.845 14.463 510.724 14.126C510.609 13.807 510.504 13.485 510.374 13.17C510.244 12.855 510.09 12.554 509.946 12.247C509.793 11.923 509.649 11.596 509.479 11.278C509.321 10.984 509.142 10.704 508.971 10.418C508.785 10.107 508.609 9.792 508.406 9.488C508.195 9.172 507.959 8.875 507.732 8.571C507.542 8.318 507.366 8.058 507.164 7.811C506.721 7.272 506.255 6.753 505.762 6.26C505.758 6.256 505.755 6.252 505.751 6.248C505.747 6.244 505.743 6.242 505.74 6.238C505.246 5.745 504.728 5.278 504.188 4.835C503.941 4.632 503.681 4.456 503.427 4.266C503.124 4.039 502.827 3.804 502.511 3.593C502.207 3.39 501.892 3.214 501.58 3.028C501.294 2.857 501.015 2.678 500.721 2.52C500.403 2.35 500.077 2.206 499.752 2.053C499.445 1.908 499.143 1.755 498.829 1.624C498.514 1.494 498.192 1.388 497.872 1.274C497.535 1.153 497.203 1.024 496.859 0.92C496.539 0.823 496.213 0.752 495.89 0.671C495.539 0.582 495.192 0.484 494.835 0.413C494.46 0.339 494.082 0.294 493.705 0.24C493.394 0.196 493.088 0.136 492.772 0.105C492.071 0.037 491.369 0 490.666 0H383.999C372.217 0 362.666 9.551 362.666 21.333C362.666 33.115 372.217 42.666 383.999 42.666H439.162L304.914 176.915C296.583 185.246 296.583 198.754 304.914 207.085C313.245 215.416 326.753 215.416 335.084 207.085Z" fill="white"/>
<path d="M176.915 304.915L42.667 439.163V384C42.667 372.218 33.116 362.667 21.334 362.667C9.551 362.667 0 372.218 0 384V490.667C0 491.37 0.037 492.072 0.106 492.772C0.137 493.087 0.196 493.393 0.241 493.705C0.295 494.082 0.339 494.461 0.414 494.835C0.485 495.193 0.583 495.539 0.672 495.89C0.753 496.214 0.824 496.539 0.921 496.859C1.025 497.203 1.154 497.536 1.275 497.872C1.39 498.192 1.495 498.514 1.625 498.829C1.755 499.144 1.909 499.445 2.054 499.752C2.207 500.076 2.351 500.403 2.521 500.721C2.679 501.015 2.858 501.294 3.029 501.58C3.215 501.891 3.391 502.207 3.594 502.511C3.805 502.827 4.04 503.123 4.267 503.427C4.457 503.681 4.633 503.941 4.836 504.188C5.279 504.728 5.746 505.247 6.239 505.74C6.243 505.744 6.245 505.748 6.249 505.751C6.253 505.755 6.257 505.758 6.261 505.762C6.754 506.254 7.273 506.721 7.812 507.164C8.059 507.367 8.319 507.543 8.572 507.732C8.876 507.959 9.173 508.195 9.489 508.406C9.792 508.609 10.107 508.785 10.419 508.971C10.705 509.142 10.984 509.321 11.279 509.479C11.597 509.649 11.924 509.793 12.248 509.946C12.555 510.091 12.857 510.244 13.171 510.374C13.486 510.504 13.807 510.609 14.127 510.724C14.464 510.845 14.797 510.974 15.142 511.079C15.462 511.176 15.787 511.247 16.11 511.328C16.461 511.417 16.808 511.515 17.166 511.586C17.541 511.66 17.919 511.704 18.296 511.758C18.607 511.802 18.914 511.862 19.229 511.893C19.929 511.962 20.631 511.999 21.333 511.999H21.334H128C139.782 511.999 149.333 502.448 149.333 490.666C149.333 478.884 139.782 469.333 128 469.333H72.837L207.085 335.085C215.416 326.754 215.416 313.246 207.085 304.915C198.754 296.584 185.246 296.584 176.915 304.915Z" fill="white"/>
<path d="M507.735 503.425C507.961 503.123 508.196 502.827 508.406 502.512C508.61 502.208 508.786 501.892 508.972 501.58C509.142 501.295 509.321 501.016 509.478 500.723C509.648 500.405 509.793 500.077 509.946 499.752C510.091 499.446 510.243 499.145 510.374 498.831C510.504 498.516 510.61 498.194 510.724 497.874C510.845 497.537 510.974 497.205 511.078 496.861C511.175 496.541 511.246 496.215 511.327 495.892C511.416 495.541 511.514 495.194 511.585 494.837C511.659 494.462 511.703 494.084 511.758 493.707C511.802 493.396 511.862 493.09 511.893 492.774C511.962 492.073 511.999 491.37 511.999 490.667V384C511.999 372.218 502.448 362.667 490.666 362.667C478.884 362.667 469.333 372.218 469.333 384V439.163L335.084 304.915C326.753 296.584 313.245 296.584 304.914 304.915C296.583 313.246 296.583 326.754 304.914 335.085L439.162 469.333H383.999C372.217 469.333 362.666 478.884 362.666 490.666C362.666 502.448 372.217 512 383.999 512H490.666C491.369 512 492.071 511.963 492.771 511.894C493.086 511.863 493.392 511.804 493.704 511.759C494.081 511.705 494.46 511.661 494.834 511.586C495.192 511.515 495.538 511.417 495.889 511.328C496.213 511.247 496.538 511.176 496.858 511.079C497.202 510.975 497.535 510.846 497.871 510.725C498.191 510.61 498.513 510.505 498.828 510.375C499.142 510.245 499.443 510.092 499.749 509.947C500.074 509.794 500.402 509.65 500.72 509.479C501.013 509.322 501.292 509.143 501.577 508.973C501.889 508.787 502.205 508.61 502.509 508.407C502.824 508.196 503.12 507.962 503.422 507.736C503.677 507.545 503.938 507.368 504.186 507.165C504.721 506.726 505.236 506.262 505.726 505.773C505.734 505.766 505.742 505.759 505.749 505.752C505.756 505.745 505.763 505.736 505.77 505.729C506.258 505.239 506.722 504.725 507.162 504.189C507.367 503.941 507.544 503.68 507.735 503.425Z" fill="white"/>
<path d="M72.837 42.667H128C139.782 42.667 149.333 33.116 149.333 21.334C149.333 9.551 139.782 0 128 0H21.333H21.332C20.63 0 19.927 0.037 19.228 0.106C18.912 0.137 18.606 0.196 18.295 0.241C17.918 0.295 17.54 0.339 17.165 0.413C16.807 0.484 16.46 0.582 16.109 0.671C15.786 0.752 15.461 0.823 15.141 0.92C14.796 1.024 14.463 1.154 14.126 1.275C13.807 1.39 13.485 1.495 13.17 1.625C12.855 1.756 12.552 1.909 12.245 2.055C11.922 2.207 11.595 2.351 11.278 2.521C10.983 2.679 10.703 2.859 10.416 3.03C10.106 3.215 9.791 3.39 9.488 3.593C9.171 3.805 8.873 4.041 8.568 4.269C8.316 4.458 8.057 4.633 7.812 4.835C6.725 5.727 5.727 6.725 4.835 7.812C4.633 8.057 4.458 8.316 4.269 8.569C4.041 8.874 3.805 9.172 3.593 9.489C3.39 9.792 3.215 10.106 3.029 10.417C2.858 10.703 2.678 10.984 2.52 11.279C2.35 11.596 2.207 11.922 2.054 12.246C1.909 12.553 1.755 12.856 1.624 13.171C1.494 13.486 1.389 13.807 1.274 14.127C1.153 14.464 1.024 14.797 0.919 15.142C0.822 15.462 0.751 15.787 0.67 16.11C0.581 16.461 0.483 16.808 0.412 17.166C0.338 17.541 0.294 17.919 0.24 18.296C0.196 18.607 0.136 18.914 0.105 19.229C0.037 19.928 0 20.63 0 21.333V128C0 139.782 9.551 149.333 21.333 149.333C33.115 149.333 42.666 139.782 42.666 128V72.837L176.914 207.085C185.245 215.416 198.753 215.416 207.084 207.085C215.415 198.754 215.415 185.246 207.084 176.915L72.837 42.667Z" fill="white"/>
</g>
<defs>
<clipPath id="clip0_3270_13944">
<rect width="512" height="512" fill="white"/>
</clipPath>
</defs>
</svg>
