<svg width="512" height="512" viewBox="0 0 512 512" fill="none" xmlns="http://www.w3.org/2000/svg">
<path d="M320.106 172.772C320.137 173.088 320.196 173.394 320.241 173.705C320.295 174.082 320.339 174.46 320.413 174.835C320.484 175.193 320.582 175.54 320.671 175.891C320.752 176.214 320.823 176.539 320.92 176.859C321.024 177.204 321.154 177.537 321.275 177.874C321.39 178.193 321.495 178.515 321.625 178.83C321.756 179.145 321.909 179.448 322.055 179.755C322.207 180.078 322.351 180.405 322.521 180.722C322.679 181.016 322.858 181.296 323.029 181.582C323.215 181.893 323.391 182.208 323.594 182.512C323.805 182.828 324.041 183.125 324.268 183.429C324.458 183.682 324.633 183.942 324.836 184.188C325.728 185.275 326.725 186.273 327.813 187.165C328.059 187.367 328.319 187.543 328.572 187.732C328.876 187.96 329.173 188.195 329.49 188.407C329.793 188.61 330.108 188.786 330.419 188.972C330.705 189.143 330.985 189.323 331.28 189.481C331.597 189.651 331.924 189.795 332.248 189.947C332.555 190.092 332.857 190.245 333.172 190.376C333.487 190.506 333.809 190.612 334.129 190.726C334.466 190.847 334.798 190.976 335.142 191.08C335.462 191.177 335.788 191.248 336.111 191.329C336.462 191.418 336.809 191.516 337.166 191.587C337.541 191.661 337.919 191.706 338.296 191.76C338.607 191.804 338.913 191.864 339.228 191.895C339.928 191.964 340.631 192.001 341.333 192.001H448C459.782 192.001 469.333 182.45 469.333 170.668C469.333 158.886 459.782 149.335 448 149.335H392.837L505.752 36.4178C514.083 28.0868 514.083 14.5788 505.752 6.24776C497.421 -2.08324 483.913 -2.08324 475.582 6.24776L362.667 119.163V63.9998C362.667 52.2178 353.116 42.6668 341.334 42.6668C329.551 42.6668 320 52.2178 320 63.9998V170.667V170.668C320 171.37 320.037 172.072 320.106 172.772Z" fill="white"/>
<path d="M170.667 42.6668C158.885 42.6668 149.334 52.2178 149.334 63.9998V119.163L36.4183 6.24776C28.0873 -2.08324 14.5793 -2.08324 6.24825 6.24776C-2.08275 14.5788 -2.08275 28.0868 6.24825 36.4178L119.163 149.333H64.0003C52.2183 149.333 42.6673 158.884 42.6673 170.666C42.6673 182.449 52.2183 192 64.0003 192H170.667C171.37 192 172.072 191.963 172.772 191.894C173.088 191.863 173.394 191.804 173.705 191.759C174.082 191.705 174.46 191.661 174.835 191.587C175.193 191.516 175.54 191.418 175.891 191.329C176.214 191.248 176.539 191.177 176.859 191.08C177.204 190.976 177.537 190.846 177.874 190.725C178.193 190.61 178.515 190.505 178.83 190.375C179.145 190.244 179.448 190.091 179.755 189.945C180.078 189.793 180.405 189.649 180.722 189.479C181.017 189.321 181.297 189.141 181.584 188.97C181.895 188.785 182.209 188.609 182.512 188.406C182.829 188.194 183.127 187.958 183.432 187.73C183.684 187.541 183.943 187.366 184.189 187.164C185.276 186.272 186.273 185.275 187.166 184.187C187.368 183.941 187.543 183.682 187.732 183.43C187.96 183.125 188.196 182.827 188.408 182.51C188.611 182.207 188.786 181.893 188.972 181.582C189.143 181.296 189.323 181.015 189.481 180.72C189.651 180.403 189.794 180.077 189.947 179.753C190.092 179.446 190.246 179.143 190.377 178.828C190.507 178.513 190.612 178.192 190.727 177.872C190.848 177.535 190.977 177.202 191.082 176.857C191.179 176.537 191.25 176.212 191.331 175.889C191.42 175.538 191.518 175.191 191.589 174.833C191.663 174.458 191.707 174.08 191.761 173.703C191.805 173.392 191.865 173.085 191.896 172.77C191.965 172.07 192.002 171.368 192.002 170.666V170.665V63.9998C192 52.2178 182.449 42.6668 170.667 42.6668Z" fill="white"/>
<path d="M191.894 339.228C191.863 338.912 191.804 338.606 191.759 338.295C191.705 337.918 191.661 337.54 191.587 337.165C191.516 336.807 191.418 336.46 191.329 336.109C191.248 335.786 191.177 335.461 191.08 335.141C190.976 334.796 190.846 334.463 190.725 334.126C190.61 333.807 190.505 333.485 190.375 333.17C190.244 332.855 190.091 332.552 189.945 332.245C189.793 331.922 189.649 331.595 189.479 331.278C189.321 330.983 189.141 330.703 188.97 330.416C188.785 330.105 188.609 329.791 188.406 329.488C188.194 329.171 187.958 328.873 187.73 328.568C187.541 328.316 187.366 328.057 187.164 327.811C186.272 326.724 185.275 325.727 184.187 324.834C183.941 324.632 183.682 324.457 183.43 324.268C183.125 324.04 182.827 323.804 182.51 323.592C182.207 323.389 181.893 323.214 181.582 323.028C181.296 322.857 181.015 322.677 180.72 322.519C180.403 322.349 180.077 322.206 179.753 322.053C179.446 321.908 179.143 321.754 178.828 321.623C178.513 321.493 178.192 321.388 177.872 321.273C177.535 321.152 177.202 321.023 176.857 320.918C176.537 320.821 176.212 320.75 175.889 320.669C175.538 320.58 175.191 320.482 174.833 320.411C174.458 320.337 174.08 320.293 173.703 320.239C173.392 320.195 173.085 320.135 172.77 320.104C172.07 320.035 171.367 319.998 170.665 319.998H64.0003C52.2183 319.998 42.6673 329.549 42.6673 341.331C42.6673 353.113 52.2183 362.664 64.0003 362.664H119.163L6.24825 475.582C-2.08275 483.913 -2.08275 497.421 6.24825 505.752C14.5793 514.083 28.0873 514.083 36.4183 505.752L149.333 392.837V448C149.333 459.782 158.884 469.333 170.666 469.333C182.448 469.333 191.999 459.782 191.999 448V341.333V341.332C192 340.63 191.963 339.928 191.894 339.228Z" fill="white"/>
<path d="M392.837 362.667H448C459.782 362.667 469.333 353.116 469.333 341.334C469.333 329.552 459.782 320.001 448 320.001H341.333C340.63 320.001 339.928 320.038 339.228 320.107C338.913 320.138 338.607 320.197 338.296 320.242C337.918 320.296 337.54 320.34 337.166 320.415C336.808 320.486 336.462 320.584 336.111 320.673C335.787 320.754 335.462 320.825 335.142 320.922C334.798 321.026 334.465 321.155 334.129 321.276C333.809 321.391 333.487 321.496 333.172 321.626C332.857 321.757 332.555 321.91 332.248 322.055C331.924 322.208 331.598 322.351 331.28 322.521C330.985 322.679 330.705 322.859 330.419 323.03C330.108 323.216 329.793 323.392 329.49 323.595C329.174 323.807 328.876 324.042 328.572 324.27C328.319 324.46 328.06 324.635 327.813 324.837C326.726 325.729 325.728 326.726 324.836 327.814C324.634 328.06 324.458 328.32 324.268 328.573C324.041 328.877 323.805 329.174 323.594 329.49C323.391 329.794 323.215 330.109 323.029 330.42C322.858 330.706 322.678 330.986 322.521 331.28C322.351 331.597 322.208 331.923 322.055 332.247C321.91 332.554 321.756 332.857 321.625 333.172C321.495 333.487 321.39 333.808 321.275 334.128C321.154 334.465 321.025 334.798 320.92 335.143C320.823 335.463 320.752 335.788 320.671 336.111C320.582 336.462 320.484 336.809 320.413 337.167C320.339 337.541 320.295 337.92 320.241 338.297C320.197 338.608 320.137 338.915 320.106 339.23C320.037 339.93 320 340.632 320 341.334V341.335V448C320 459.782 329.551 469.333 341.333 469.333C353.115 469.333 362.666 459.782 362.666 448V392.837L475.581 505.752C483.912 514.083 497.42 514.083 505.751 505.752C514.082 497.421 514.082 483.913 505.751 475.582L392.837 362.667Z" fill="white"/>
</svg>
