<svg width="24" height="24" viewBox="0 0 24 24" fill="none" xmlns="http://www.w3.org/2000/svg">
<path d="M22.921 6.72435L16.6584 0.220869C16.4541 0.00899064 16.1409 -0.0575191 15.8684 0.0522131C15.5947 0.163004 15.4155 0.427984 15.4155 0.722779V3.8542H15.1747C9.99504 3.8542 5.78076 8.06849 5.78076 13.2481V14.6933C5.78076 15.0285 6.01681 15.308 6.34336 15.3842C6.39646 15.3976 6.44939 15.4034 6.50231 15.4034C6.77506 15.4034 7.03615 15.2434 7.16229 14.992C8.51701 12.2817 11.2407 10.5985 14.2709 10.5985H15.4155V13.7297C15.4155 14.0247 15.5947 14.2897 15.8684 14.3994C16.1392 14.5102 16.4541 14.4428 16.6584 14.2308L22.921 7.72729C23.1908 7.44696 23.1908 7.00574 22.921 6.72435Z" fill="white"/>
<path d="M20.2331 23.1264H2.89044C1.29685 23.1264 0 21.8297 0 20.236V6.74737C0 5.15378 1.29685 3.85693 2.89044 3.85693H5.78087C6.31366 3.85693 6.7443 4.28757 6.7443 4.82035C6.7443 5.35314 6.31366 5.78377 5.78087 5.78377H2.89044C2.35854 5.78377 1.92684 6.21547 1.92684 6.74737V20.236C1.92684 20.7679 2.35854 21.1996 2.89044 21.1996H20.2331C20.7648 21.1996 21.1965 20.7679 21.1965 20.236V12.5282C21.1965 11.9955 21.6271 11.5646 22.1599 11.5646C22.6929 11.5646 23.1235 11.9955 23.1235 12.5282V20.236C23.1235 21.8297 21.8266 23.1264 20.2331 23.1264Z" fill="white"/>
</svg>
