<svg width="411" height="506" viewBox="0 0 411 506" fill="none" xmlns="http://www.w3.org/2000/svg">
<path d="M332.895 50.5074C324.771 45.7956 314.391 48.5835 309.68 56.7399L292.701 86.1198L351.533 120.078L368.512 90.6977C373.188 82.5414 370.404 72.1943 362.28 67.4826L332.895 50.5074Z" fill="white"/>
<path d="M75.8297 50.5058L46.449 67.4851C38.3249 72.1968 35.5403 82.5405 40.2132 90.7002L57.1917 120.081L116.024 86.1231L99.0449 56.7432C94.3331 48.5819 83.9539 45.7973 75.8297 50.5058Z" fill="white"/>
<path d="M205.377 76.4586C216.116 76.4586 226.606 77.5093 236.973 78.9904V51.5096L258.696 51.3435V15.7981C258.696 7.06597 251.63 0 242.898 0H168.023C159.291 0 152.225 7.06597 152.225 15.7981V51.3435L173.781 51.5096V78.9904C184.149 77.5093 194.639 76.4586 205.377 76.4586Z" fill="white"/>
<path d="M205.388 168.102C132.452 168.102 73.3242 227.226 73.3242 300.165C73.3242 373.105 132.448 432.229 205.388 432.229C278.328 432.229 337.452 373.101 337.452 300.165C337.452 227.23 278.323 168.102 205.388 168.102ZM224.377 324.364C216.734 331.331 201.466 327.031 190.273 314.759C179.08 302.484 176.196 286.883 183.839 279.916C191.481 272.949 259.839 235.262 280.736 232.257C275.82 252.788 232.02 317.397 224.377 324.364Z" fill="white"/>
<path d="M205.375 94.7856C91.9494 94.7856 0 186.734 0 300.161C0 413.587 91.9494 505.536 205.375 505.536C318.801 505.536 410.75 413.587 410.75 300.161C410.75 186.734 318.801 94.7856 205.375 94.7856ZM205.375 466.798C113.343 466.798 38.7373 392.193 38.7373 300.161C38.7373 208.129 113.344 133.519 205.375 133.519C297.407 133.519 372.017 208.13 372.017 300.161C372.017 392.193 297.407 466.798 205.375 466.798Z" fill="white"/>
</svg>
