<svg width="24" height="26" viewBox="0 0 24 26" fill="none" xmlns="http://www.w3.org/2000/svg">
<path d="M22.2698 23.8333H3.99395C3.40223 23.8333 2.81315 23.3608 2.81315 22.6525C2.81315 21.9917 3.34397 21.4608 3.99395 21.4608H22.2698C22.8811 21.4608 23.3532 20.9493 23.3532 20.3775C23.3532 20.2455 23.3424 2.81859 23.3423 2.68665C23.3423 1.20248 22.1398 0 20.6556 0C16.2467 0 8.11785 0 3.99395 0C2.20085 0 0.646484 1.46764 0.646484 3.34753V22.6525C0.646484 24.5582 2.20063 26 3.99395 26H22.2698C22.8657 26 23.3532 25.5125 23.3532 24.9167C23.3532 24.3208 22.8657 23.8333 22.2698 23.8333ZM2.81315 3.34753C2.81315 2.70833 3.35482 2.16667 3.99395 2.16667H4.99066V19.2942C4.30935 19.3367 3.73632 19.1784 2.81315 19.5108V3.34753ZM10.624 8.74251C10.624 8.16831 10.9382 7.63749 11.4365 7.36665C11.9348 7.08498 12.5523 7.10666 13.0398 7.42081L16.1381 9.41417C16.5931 9.69585 16.864 10.1941 16.864 10.7358C16.864 11.2667 16.5931 11.765 16.1381 12.0467L13.0398 14.04C12.5816 14.3455 11.9577 14.3785 11.4365 14.0942C10.9382 13.8233 10.624 13.2925 10.624 12.7183V8.74251Z" fill="white"/>
</svg>
