<svg width="172" height="131" viewBox="0 0 172 131" fill="none" xmlns="http://www.w3.org/2000/svg">
<path d="M145.606 10.8593C134.643 5.83321 122.887 2.13003 110.596 0.00889978C110.372 -0.0320527 110.148 0.0703284 110.033 0.274755C108.521 2.96184 106.846 6.46697 105.674 9.22219C92.4534 7.24439 79.3007 7.24439 66.3517 9.22219C65.1786 6.40587 63.4431 2.96184 61.9244 0.274755C61.8091 0.0770419 61.5854 -0.0253391 61.3617 0.00889978C49.0771 2.12299 37.3213 5.82616 26.3516 10.8593C26.2565 10.9002 26.1752 10.9684 26.1211 11.057C3.82289 44.3443 -2.2858 76.8135 0.710762 108.88C0.724199 109.037 0.812551 109.187 0.934496 109.282C15.6462 120.078 29.8974 126.632 43.8835 130.976C44.1072 131.044 44.3444 130.963 44.4868 130.778C47.7951 126.264 50.7443 121.504 53.2729 116.498C53.4221 116.205 53.2797 115.857 52.9746 115.741C48.2967 113.968 43.8425 111.806 39.5576 109.351C39.2187 109.153 39.1914 108.669 39.5035 108.437C40.4052 107.762 41.3072 107.059 42.1682 106.35C42.3241 106.22 42.5411 106.193 42.7242 106.275C70.8731 119.117 101.348 119.117 129.164 106.275C129.347 106.186 129.564 106.214 129.727 106.343C130.588 107.052 131.49 107.761 132.398 108.437C132.71 108.668 132.69 109.153 132.351 109.351C128.066 111.853 123.612 113.967 118.927 115.734C118.622 115.85 118.487 116.204 118.636 116.497C121.219 121.496 124.168 126.257 127.415 130.771C127.551 130.962 127.795 131.044 128.019 130.976C142.073 126.632 156.324 120.078 171.036 109.282C171.165 109.187 171.246 109.043 171.259 108.887C174.846 71.8143 165.252 39.6113 145.829 11.0637C145.782 10.9684 145.701 10.9002 145.606 10.8593ZM57.4772 89.3547C49.0025 89.3547 42.0194 81.5805 42.0194 72.0325C42.0194 62.4849 48.8668 54.7103 57.4772 54.7103C66.1548 54.7103 73.0704 62.553 72.9347 72.0325C72.9347 81.5805 66.087 89.3547 57.4772 89.3547ZM114.629 89.3547C106.155 89.3547 99.1718 81.5805 99.1718 72.0325C99.1718 62.4849 106.019 54.7103 114.629 54.7103C123.307 54.7103 130.223 62.553 130.087 72.0325C130.087 81.5805 123.308 89.3547 114.629 89.3547Z" fill="#5865F2" fill-opacity="0.2"/>
</svg>
