<svg width="130" height="130" viewBox="0 0 130 130" fill="none" xmlns="http://www.w3.org/2000/svg">
<path d="M101.111 130H28.8888C21.1728 130 13.9183 126.995 8.46151 121.538C3.00501 116.082 0 108.827 0 101.111V93.8884C0 89.8995 3.23333 86.6659 7.22226 86.6659C11.2112 86.6659 14.4445 89.8995 14.4445 93.8884V101.111C14.4445 104.969 15.9472 108.596 18.6749 111.324C21.4034 114.053 25.0306 115.555 28.8888 115.555H101.111C104.969 115.555 108.596 114.053 111.324 111.324C114.053 108.596 115.555 104.969 115.555 101.111V93.8884C115.555 89.8995 118.789 86.6659 122.777 86.6659C126.766 86.6659 130 89.8995 130 93.8884V101.111C130 108.827 126.995 116.081 121.538 121.538C116.081 126.995 108.827 130 101.111 130ZM64.9999 101.111C64.0008 101.111 63.0497 100.908 62.1843 100.541C61.377 100.2 60.6184 99.7047 59.9546 99.0566C59.9544 99.0563 59.9544 99.0561 59.9541 99.0561C59.9493 99.0515 59.9445 99.0467 59.9397 99.0419C59.9385 99.0409 59.9369 99.0392 59.9357 99.0379C59.9316 99.0344 59.9281 99.0306 59.9243 99.0268C59.9218 99.0243 59.9195 99.0222 59.917 99.0195C59.9145 99.0169 59.9112 99.0137 59.9089 99.0117C59.9039 99.0066 59.8983 99.0011 59.8933 98.996L31.0042 70.1067C28.1839 67.2864 28.1839 62.7134 31.0042 59.8928C33.8246 57.0725 38.3978 57.0722 41.2181 59.8928L57.7779 76.4525V7.22226C57.7776 3.23333 61.0109 0 64.9999 0C68.9888 0 72.2224 3.23333 72.2224 7.22226V76.4523L88.7819 59.8928C91.6019 57.0725 96.1757 57.0725 98.9958 59.8928C101.816 62.7131 101.816 67.2864 98.9958 70.1067L70.1067 98.9955C70.1017 99.0006 70.0961 99.0061 70.0911 99.0111C70.0883 99.0137 70.0853 99.017 70.083 99.019C70.0805 99.0217 70.0782 99.0238 70.0757 99.0263C70.0721 99.0303 70.0681 99.0339 70.0646 99.0374C70.0633 99.0386 70.0615 99.0404 70.0603 99.0414C70.0557 99.0462 70.0509 99.051 70.0462 99.0555C70.0459 99.0555 70.0459 99.0558 70.0456 99.0561C69.9662 99.1335 69.8857 99.2087 69.8035 99.2819C69.1987 99.8212 68.5251 100.242 67.8129 100.542C67.8104 100.543 67.8083 100.544 67.8058 100.545C67.8031 100.546 67.8008 100.548 67.798 100.548C66.9372 100.911 65.9921 101.111 64.9999 101.111Z" fill="white" fill-opacity="0.2"/>
</svg>
