<svg width="130" height="131" viewBox="0 0 130 131" fill="none" xmlns="http://www.w3.org/2000/svg">
<path d="M128.862 37.8042L93.6537 1.24172C92.5052 0.0505452 90.7447 -0.323372 89.2123 0.293541C87.674 0.916405 86.6663 2.40612 86.6663 4.06346V21.6683H85.3125C56.1926 21.6683 32.5 45.3609 32.5 74.4808V82.6058C32.5 84.4903 33.8271 86.0613 35.6629 86.4898C35.9615 86.5652 36.259 86.5979 36.5565 86.5979C38.0899 86.5979 39.5578 85.6983 40.267 84.285C47.8831 69.0476 63.1959 59.5846 80.2314 59.5846H86.6663V77.1885C86.6663 78.8468 87.674 80.3365 89.2123 80.9534C90.7348 81.5763 92.5052 81.1974 93.6537 80.0052L128.862 43.4427C130.379 41.8667 130.379 39.3862 128.862 37.8042Z" fill="white" fill-opacity="0.2"/>
<path d="M113.75 130.017H16.25C7.29088 130.017 0 122.727 0 113.767V37.9341C0 28.975 7.29088 21.6841 16.25 21.6841H32.5C35.4953 21.6841 37.9163 24.1051 37.9163 27.1004C37.9163 30.0957 35.4953 32.5168 32.5 32.5168H16.25C13.2597 32.5168 10.8327 34.9437 10.8327 37.9341V113.767C10.8327 116.757 13.2597 119.184 16.25 119.184H113.75C116.739 119.184 119.166 116.757 119.166 113.767V70.4341C119.166 67.4388 121.587 65.0168 124.583 65.0168C127.579 65.0168 130 67.4388 130 70.4341V113.767C130 122.727 122.709 130.017 113.75 130.017Z" fill="white" fill-opacity="0.2"/>
</svg>
