<svg width="140" height="35" viewBox="0 0 140 35" fill="none" xmlns="http://www.w3.org/2000/svg">
<rect width="140" height="35" rx="10" fill="#F580EB"/>
<path fill-rule="evenodd" clip-rule="evenodd" d="M17.287 24.4192L14.0114 23.5374L13.3437 22.7185V18.4352L11.5547 16.0731L13.3437 13.459V9.4277L16.0901 12.7032L17.8539 9.74265L20.6885 12.3882L23.001 9.80564L25.6032 12.7662L28.0599 9.4277L29.8867 12.2622L32.6262 9.67966V23.0335C32.6262 23.0335 24.1531 25.742 17.287 24.4192Z" fill="white"/>
<path fill-rule="evenodd" clip-rule="evenodd" d="M16.75 24.1043V11.3804L19.0511 13.9629L21.6873 11.3804L23.8385 14.3409L26.4842 11.3804L28.6889 13.9L31.3125 11.3804L32.6253 13.0181V22.9075C32.6253 22.9075 30.8691 24.4822 26.0628 24.6082C21.2565 24.7342 16.75 24.1043 16.75 24.1043Z" fill="#FEC652"/>
<path fill-rule="evenodd" clip-rule="evenodd" d="M22.9996 19.695L21.1924 17.0495L22.9996 14.3409L24.9089 17.018L22.9996 19.695Z" fill="white"/>
<path fill-rule="evenodd" clip-rule="evenodd" d="M32.6247 18.6872L30.8301 16.0416L32.6247 13.459L34.6726 16.0731L32.6247 18.6872Z" fill="white"/>
<path fill-rule="evenodd" clip-rule="evenodd" d="M14.0113 17.6794L12.9404 16.0416L14.0113 14.7818L15.1452 16.2306L14.0113 17.6794Z" fill="#95E7EE"/>
<path fill-rule="evenodd" clip-rule="evenodd" d="M23.9016 18.6242L22.5693 17.0494L23.9016 15.4117L24.9725 17.0494L23.9016 18.6242Z" fill="#FF4A70"/>
<path fill-rule="evenodd" clip-rule="evenodd" d="M33.602 17.6794L32.625 16.2306L33.602 14.5299L34.6099 16.1046L33.602 17.6794Z" fill="#95E7EE"/>
<path fill-rule="evenodd" clip-rule="evenodd" d="M13.1247 10C13.314 9.99899 13.5028 10.0201 13.6872 10.063C14.052 10.7868 14.8387 11.2491 15.3124 11.874C15.5474 12.1833 16.1874 12.8106 16.1874 12.8106C16.1874 12.8106 17.1323 11.2479 17.5002 10.6879C17.6312 10.4876 17.7194 10.0977 17.9373 10.0007H18.3783C18.4413 10.0511 18.3953 10.0227 18.5043 10.0637L20.5043 12.6865H20.5672C20.7802 12.0566 21.7294 11.3455 22.1301 10.8132C22.2945 10.5953 22.508 10.1109 22.755 10.0013H23.2551L25.5052 12.6865V12.6236C25.7572 12.4245 25.8737 12.1379 26.0677 11.874C26.5529 11.2219 27.0727 10.5964 27.6249 10H28.0627C28.4709 10.6551 29.0573 11.2472 29.5002 11.8733C29.6935 12.1467 29.7565 12.5253 30.125 12.6229C30.4898 11.8985 31.2765 11.4362 31.7502 10.812C31.9449 10.555 32.1225 10.189 32.4375 10.063C32.5975 9.95342 32.8243 10.0233 33 10.063C33.3005 11.1055 33.1291 12.7993 33.126 14.0597C33.4882 14.4181 34.9767 16.6095 35 17.1809C34.4545 17.7219 34.1181 18.5301 33.6872 19.1795C33.5392 19.4019 33.2129 19.6708 33.1247 19.9285V20.9905C33.1247 22.0046 33.1877 23.2298 32.9987 24.0499C32.6454 24.2823 32.3587 24.6168 31.9361 24.7995C30.7335 25.3179 29.2148 25.3664 27.8113 25.6738L25.4365 25.7997C24.4368 26.0108 22.6258 26.0933 21.5613 25.8627H20.5622C19.8529 25.7078 18.9339 25.7651 18.2498 25.6108C16.5024 25.2221 14.6913 25.3374 13.4378 24.4877C13.2016 24.3277 13.0712 24.0058 12.8753 23.8011V19.9285C12.5698 19.0025 11.0517 17.9141 11 16.8067C11.5518 16.2763 11.8819 15.4556 12.3128 14.808C12.4652 14.5788 12.7858 14.3318 12.8753 14.0591V10.252C12.9689 10.1791 13.0528 10.0944 13.1247 10V10ZM22.9376 11.1868C22.7109 11.8356 21.9531 12.2922 21.5625 12.81C20.9698 13.5949 20.268 14.2871 19.6872 15.0581C19.4983 15.3101 19.3238 15.6433 19.0624 15.8077C18.7241 16.0193 18.0778 16.0439 17.6872 15.8707C17.2778 15.6867 17.0472 15.1816 16.7499 14.871C16.0261 14.1101 14.0457 11.8532 13.8126 11.6863V14.0591C13.8126 14.0591 15.6646 16.6095 15.6872 17.1809C15.1411 17.7188 14.8054 18.5314 14.3751 19.1795C14.2271 19.4019 13.9002 19.6708 13.8126 19.9285V21.6771C14.7487 22.1974 15.9764 22.4531 17.1877 22.7384C17.9342 22.9148 18.7272 22.8323 19.4378 22.9904C20.3247 23.185 21.5543 22.6377 21.5625 23.74L21.3735 23.866C21.0542 24.1091 19.8132 23.9189 19.2488 23.866C18.0413 23.7519 16.6813 23.6833 15.5613 23.3664C14.9754 23.2008 14.3852 22.9488 13.8113 22.8046V23.5535C15.6772 24.6458 18.5326 24.8316 21.3704 24.9273C22.2321 24.9563 23.5172 25.1163 24.3707 24.9273H25.7458C26.3959 24.7837 27.2482 24.8196 27.8706 24.6754C29.0775 24.4001 30.1074 24.4234 31.1203 24.0505C31.4315 23.9359 32.0192 23.8615 32.183 23.6134V22.7384H32.12C31.3609 23.4446 28.2006 23.6455 26.8072 23.8628C26.2283 23.9529 24.5805 24.0518 24.4324 23.7368V23.2997C24.5477 23.2294 24.6535 23.1447 24.7474 23.0477C26.7531 23.0962 28.8356 22.8304 30.435 22.3611C30.8759 22.2307 31.9896 22.033 32.1849 21.7363V19.8661C31.8932 19.6356 31.7704 19.2457 31.56 18.9295C31.1707 18.3449 30.3915 17.6886 30.3102 16.8691C30.8772 16.2801 31.228 15.4323 31.6847 14.7457C31.8107 14.5605 32.1036 14.3243 32.1849 14.1215V11.6863H32.1219C31.5235 12.6941 30.4444 13.387 29.7471 14.3085C29.3937 14.7835 28.9402 15.4915 28.4375 15.8077C28.0652 16.0414 27.3099 16.042 26.9376 15.8077C26.5534 15.5652 26.2731 15.048 25.9997 14.6833C25.4076 13.8934 24.5924 13.2264 23.9997 12.4352C23.708 12.0459 23.3843 11.4034 22.9376 11.1868ZM18.1874 11.2498C18.1874 11.2498 17.0472 12.7388 16.7499 13.6219C17.3717 14.0471 17.5524 15.0531 18.5622 15.0581C18.9276 14.495 19.6438 14.0156 19.875 13.3719H19.812C19.7143 13.0727 18.1874 11.2491 18.1874 11.2491V11.2498ZM27.7502 11.2498C27.5424 11.6699 26.4198 13.1338 26.0627 13.3725V13.4355H26.1257C26.3953 13.9111 27.2274 15.0638 27.938 15.0594C28.3291 14.4673 29.1298 13.998 29.3754 13.3108C28.8022 12.8894 28.3606 11.4967 27.7502 11.2491V11.2498ZM22.8123 14.6833C22.9809 14.6845 23.1488 14.7056 23.3124 14.7463C23.7433 15.6206 25.2652 17.1519 25.3124 18.1181C24.7682 18.6718 24.3046 19.536 23.875 20.1792C23.6702 20.4859 23.5468 20.9716 23.1877 21.1158C23.034 21.2191 22.8595 21.1542 22.6876 21.1158C22.2567 20.2415 20.7348 18.7103 20.6876 17.744C21.5443 16.8817 22.0041 15.5891 22.8123 14.6833ZM13.3124 15.0613C13.0661 15.5727 12.4608 16.551 12.0627 16.9289C12.1017 17.0385 12.0746 16.9919 12.1257 17.0549C12.3398 17.7478 12.983 18.2907 13.3131 18.9282L13.4391 18.8652C13.754 18.2 14.5294 17.6608 14.6265 16.8672C14.0633 16.4168 13.9014 15.4764 13.3124 15.0581V15.0613ZM32.5622 15.0613C32.3537 15.8442 31.5783 16.3211 31.3124 17.0593C31.7924 17.4152 32.2315 18.7884 32.7499 18.9326C32.9647 18.1421 33.8296 17.732 33.9373 16.8722C33.5039 16.5138 33.0567 15.1954 32.5622 15.0581V15.0613ZM22.9376 15.9948C22.6913 16.5094 22.086 17.4883 21.6872 17.8681C21.7269 17.9777 21.6998 17.9311 21.7502 17.9941C21.9644 18.6869 22.6076 19.2299 22.9376 19.8674C23.0472 19.8283 23.0006 19.8554 23.0636 19.8044C23.5713 19.2935 23.795 18.4929 24.314 17.9934C24.2743 17.8838 24.3014 17.9304 24.251 17.8674C24.1553 17.5487 23.1984 16.0968 22.9376 15.9948ZM22.8117 23.1126C22.9803 23.1138 23.1482 23.1349 23.3118 23.1756L23.3748 23.3646C23.5443 23.5945 23.3956 23.8515 23.1858 23.9264C22.9553 24.0952 22.6983 23.9472 22.6233 23.7375C22.5194 23.5838 22.5849 23.4093 22.6233 23.2373C22.6928 23.2067 22.7566 23.1648 22.8123 23.1132L22.8117 23.1126Z" fill="black"/>
<path d="M50.439 13.471C50.439 13.055 50.777 12.717 51.193 12.717C51.609 12.717 51.947 13.055 51.947 13.471C51.947 13.887 51.609 14.225 51.193 14.225C50.777 14.225 50.439 13.887 50.439 13.471ZM49.633 13.471C49.633 14.329 50.335 15.031 51.193 15.031C52.051 15.031 52.753 14.329 52.753 13.471C52.753 12.613 52.051 11.911 51.193 11.911C50.335 11.911 49.633 12.613 49.633 13.471ZM51.219 14.498L49.932 13.679C49.594 13.77 49.178 13.783 48.918 13.783C48.19 13.783 43.874 13.783 42.899 13.783C42.47 13.783 41.742 13.718 41.352 13.666V15.512C41.69 15.486 42.301 15.447 42.899 15.447C43.874 15.447 48.164 15.447 48.957 15.447C48.788 16.565 48.294 18.047 47.423 19.126C46.383 20.439 44.914 21.57 42.327 22.168L43.744 23.728C46.071 22.987 47.8 21.7 48.97 20.14C50.062 18.697 50.634 16.669 50.933 15.395C50.998 15.122 51.089 14.745 51.219 14.498ZM55.535 22.493L56.757 23.559C57.069 23.351 57.355 23.26 57.524 23.208C60.592 22.207 63.296 20.647 65.077 18.528L64.154 17.046C62.49 19.087 59.591 20.751 57.472 21.349C57.472 20.361 57.472 16.032 57.472 14.589C57.472 14.095 57.524 13.614 57.589 13.12H55.548C55.626 13.484 55.704 14.108 55.704 14.589C55.704 16.045 55.704 20.66 55.704 21.648C55.704 21.947 55.678 22.168 55.535 22.493ZM69.692 12.821L69.094 14.368C70.927 14.602 74.606 15.421 76.127 15.98L76.79 14.368C75.152 13.796 71.408 13.029 69.692 12.821ZM69.107 16.318L68.496 17.891C70.433 18.203 73.774 18.957 75.256 19.529L75.893 17.904C74.268 17.345 70.966 16.63 69.107 16.318ZM68.431 20.049L67.781 21.674C69.861 21.999 73.982 22.896 75.737 23.611L76.452 21.986C74.658 21.323 70.667 20.387 68.431 20.049ZM91.402 14.212L90.375 13.25C90.128 13.315 89.413 13.367 89.049 13.367C88.373 13.367 82.861 13.367 82.042 13.367C81.509 13.367 80.963 13.302 80.456 13.224V15.044C81.067 14.979 81.509 14.953 82.042 14.953C82.861 14.953 88.035 14.953 88.828 14.953C88.49 15.59 87.476 16.734 86.423 17.371L87.775 18.45C89.062 17.54 90.297 15.889 90.908 14.875C91.025 14.693 91.272 14.381 91.402 14.212ZM86.111 15.954H84.226C84.291 16.383 84.304 16.721 84.304 17.137C84.304 19.269 83.992 20.634 82.354 21.778C81.873 22.142 81.405 22.363 80.976 22.506L82.497 23.741C86.033 21.83 86.111 19.178 86.111 15.954ZM98.2879 13.198L96.2209 12.782C96.1689 13.211 96.1039 13.627 95.9219 14.277C95.4929 15.785 94.1409 20.049 93.4389 21.713L95.3499 21.648C95.9089 20.296 97.2609 16.11 97.7419 14.654C97.9369 14.069 98.1189 13.588 98.2879 13.198ZM100.615 17.397L99.0029 18.073C99.9259 19.321 101.135 22.012 101.72 23.585L103.475 22.805C102.877 21.362 101.551 18.801 100.615 17.397ZM93.3089 21.128C92.8929 21.141 92.3209 21.154 91.8789 21.141L92.1909 23.052C92.5939 23 93.0879 22.935 93.4129 22.896C95.1679 22.714 99.6399 22.246 101.564 21.999L101.187 20.335C99.3669 20.582 95.1159 21.063 93.3089 21.128ZM109.494 12.964V14.069H116.384V12.964H109.494ZM109.273 16.097V17.202H116.631V16.097H109.273ZM109.221 20.972V22.077H116.657V20.972H109.221ZM109.793 14.537V15.59H116.189V14.537H109.793ZM110.911 11.963V16.591H112.263V11.963H110.911ZM113.602 11.963V16.591H114.98V11.963H113.602ZM112.25 16.604V21.271H113.602V16.604H112.25ZM114.629 17.683V22.74C114.629 22.896 114.577 22.935 114.408 22.948C114.252 22.948 113.693 22.948 113.186 22.922C113.355 23.273 113.524 23.806 113.589 24.17C114.434 24.17 115.045 24.17 115.487 23.962C115.916 23.754 116.046 23.403 116.046 22.753V17.683H114.629ZM109.91 17.683V24.196H111.288V18.788H115.227V17.683H109.91ZM110.599 19.373V20.335H115.227V19.373H110.599ZM105.685 20.959C105.438 21.882 104.931 22.818 104.333 23.429C104.658 23.611 105.23 23.988 105.503 24.196C106.114 23.494 106.712 22.376 107.05 21.284L105.685 20.959ZM107.219 21.427C107.635 22.116 108.103 23.039 108.298 23.624L109.494 23.052C109.286 22.48 108.805 21.596 108.363 20.933L107.219 21.427ZM106.387 16.045H107.674V17.254H106.387V16.045ZM106.387 18.398H107.674V19.633H106.387V18.398ZM106.387 13.692H107.674V14.888H106.387V13.692ZM105.061 12.444V20.868H109.039V12.444H105.061ZM120.063 12.691V14.277H123.742V12.691H120.063ZM122.975 12.691C122.975 15.343 123.547 21.154 128.5 24.131C128.773 23.741 129.397 23.052 129.761 22.766C124.938 19.945 124.587 15.161 124.587 12.691H122.975ZM122.416 15.538C121.714 18.983 120.154 21.505 117.437 22.883C117.84 23.169 118.568 23.819 118.854 24.157C121.571 22.519 123.3 19.724 124.21 15.863L122.416 15.538Z" fill="white"/>
</svg>
