<svg width="169" height="37" viewBox="0 0 169 37" fill="none" xmlns="http://www.w3.org/2000/svg">
<path d="M10.7226 26.0181C8.66928 23.927 7.04141 21.4396 5.93328 18.6997C4.82514 15.9599 4.25876 13.0221 4.26694 10.0565C4.26531 9.80054 4.18052 9.55244 4.02596 9.35133C3.8714 9.15021 3.65586 9.00753 3.41334 8.94578C3.17083 8.88403 2.91514 8.90674 2.68662 9.01032C2.4581 9.11389 2.26976 9.29245 2.1513 9.51781C0.310016 13.0527 -0.373142 17.1002 0.20262 21.063C0.778382 25.0259 2.58257 28.6943 5.349 31.5269C8.11543 34.3596 11.6976 36.2066 15.567 36.7953C19.4364 37.3841 23.3881 36.6834 26.839 34.7967C27.0595 34.6751 27.2341 34.4817 27.3351 34.2471C27.4361 34.0124 27.4578 33.7499 27.3968 33.5012C27.3357 33.2525 27.1954 33.0318 26.998 32.8739C26.8007 32.7161 26.5575 32.6302 26.3072 32.6299C23.4116 32.6383 20.5432 32.0582 17.8681 30.9232C15.1929 29.7883 12.7642 28.121 10.7226 26.0181Z" fill="white"/>
<path d="M31.5363 15.3419C31.9909 15.3559 32.4459 15.3404 32.8986 15.2953C33.3249 15.2548 33.7363 15.1135 34.1004 14.8825C34.4644 14.6516 34.7712 14.3373 34.9965 13.9644C35.2219 13.5915 35.3597 13.1701 35.3991 12.7334C35.4386 12.2967 35.3786 11.8566 35.2238 11.4477C34.318 9.10817 32.9625 6.97893 31.2377 5.18635C29.513 3.39377 27.4541 1.97439 25.1834 1.01249C24.7934 0.848075 24.3718 0.777652 23.951 0.806655C23.5302 0.835658 23.1215 0.963311 22.7566 1.17976C22.3916 1.39621 22.0801 1.69566 21.8461 2.055C21.6121 2.41434 21.4618 2.82395 21.4069 3.25221C21.3327 3.88914 21.3122 4.53144 21.3456 5.17198C21.5022 7.86258 22.6337 10.3964 24.5186 12.2775C26.4035 14.1585 28.906 15.2513 31.5363 15.3419Z" fill="white"/>
<path d="M31.3518 19.2219C29.3969 19.1513 27.4768 18.6712 25.7101 17.8112C23.9434 16.9511 22.3675 15.7294 21.0796 14.2214C19.7918 12.7134 18.8193 10.9511 18.2222 9.04327C17.6252 7.13542 17.4161 5.1225 17.6081 3.12871C17.6533 2.6812 17.5939 2.22908 17.4348 1.80974C17.2757 1.39039 17.0214 1.01585 16.693 0.717078C16.3645 0.418303 15.9714 0.203869 15.546 0.0915003C15.1207 -0.0208684 14.6753 -0.0279454 14.2468 0.0708542C13.3268 0.282348 12.4244 0.567406 11.5479 0.923407C11.0438 1.13014 10.5865 1.44036 10.2039 1.83495C9.82139 2.22954 9.52175 2.70015 9.32347 3.21781C8.02255 6.60462 7.71543 10.3068 8.43983 13.8698C9.16423 17.4329 10.8886 20.7018 13.4013 23.2753C15.914 25.8488 19.1057 27.6149 22.5846 28.3568C26.0635 29.0987 29.6782 28.7842 32.985 27.4518C33.4891 27.2504 33.9475 26.9452 34.3318 26.5551C34.7161 26.165 35.0182 25.6982 35.2193 25.1837C35.5424 24.3579 35.8067 23.5092 36.0102 22.6443C36.1096 22.2058 36.1056 21.7493 35.9986 21.3127C35.8916 20.8761 35.6846 20.4719 35.3947 20.1335C35.1049 19.7951 34.7406 19.5322 34.3318 19.3666C33.9231 19.2011 33.4818 19.1376 33.0443 19.1814C32.4814 19.2286 31.9163 19.2421 31.3518 19.2219Z" fill="white"/>
<path d="M52.8673 17.0976C52.7018 17.0983 52.538 17.0625 52.3872 16.9926C52.2364 16.9228 52.1021 16.8204 51.9934 16.6926C51.8821 16.5578 51.7582 16.4343 51.6236 16.324C51.3361 16.0868 51.0181 15.8913 50.6785 15.7428C50.3115 15.5805 49.9283 15.4596 49.5357 15.3824C49.1202 15.2987 48.6976 15.2574 48.2742 15.2589C47.6822 15.2542 47.0923 15.3311 46.5204 15.4877C46.0125 15.6245 45.5365 15.8641 45.1205 16.1924C44.7204 16.5151 44.4023 16.9319 44.1932 17.4075C43.9578 17.9621 43.8437 18.5627 43.859 19.1672C43.8437 19.7718 43.9578 20.3724 44.1932 20.927C44.4023 21.4026 44.7204 21.8194 45.1205 22.1421C45.5365 22.4704 46.0125 22.71 46.5204 22.8468C47.0923 23.0033 47.6822 23.0803 48.2742 23.0756C48.6976 23.0771 49.1202 23.0357 49.5357 22.9521C49.9283 22.8749 50.3115 22.754 50.6785 22.5916C51.0181 22.4432 51.3361 22.2476 51.6236 22.0104C51.7582 21.9001 51.8821 21.7767 51.9934 21.6419C52.1021 21.5141 52.2364 21.4117 52.3872 21.3418C52.538 21.272 52.7018 21.2361 52.8673 21.2369H53.7373C53.9567 21.2359 54.1718 21.2995 54.3569 21.4201C54.542 21.5407 54.6894 21.7133 54.7815 21.9173C54.8735 22.1213 54.9065 22.3481 54.8763 22.5707C54.8461 22.7932 54.7541 23.0023 54.6112 23.1728L54.5954 23.189C54.1003 23.7591 53.5139 24.2385 52.8614 24.6066C52.1772 24.9902 51.4456 25.2777 50.6864 25.4612C48.9327 25.8883 47.1008 25.8422 45.3696 25.3275C44.471 25.0665 43.6248 24.6442 42.8704 24.0801C42.148 23.5245 41.5528 22.814 41.1265 21.9983C40.6721 21.127 40.444 20.1507 40.4641 19.1632C40.444 18.1756 40.6721 17.1994 41.1265 16.3281C41.5587 15.5225 42.1563 14.8226 42.8783 14.2767C43.6331 13.7128 44.4791 13.2898 45.3775 13.0272C46.3211 12.7454 47.2992 12.6035 48.2821 12.606C49.0941 12.6042 49.9035 12.6986 50.6943 12.8875C51.4548 13.0656 52.187 13.3527 52.8693 13.7401C53.5197 14.1113 54.1056 14.5903 54.6033 15.1576L54.6191 15.1738C54.762 15.3444 54.854 15.5534 54.8842 15.776C54.9144 15.9986 54.8815 16.2253 54.7894 16.4293C54.6973 16.6333 54.5499 16.8059 54.3648 16.9265C54.1797 17.0472 53.9646 17.1108 53.7452 17.1098L52.8673 17.0976Z" fill="white"/>
<path d="M66.2608 19.9833C66.2622 19.6892 66.2243 19.3962 66.1481 19.1126C66.0791 18.8453 65.9497 18.5983 65.7705 18.3916C65.5715 18.1721 65.325 18.0036 65.0508 17.8995C64.6698 17.7635 64.2677 17.7004 63.8644 17.7132C62.661 17.7132 61.7587 17.9367 61.1576 18.3835C60.5565 18.8304 60.256 19.5689 60.256 20.599V24.2117C60.256 24.5044 60.1424 24.7851 59.9404 24.9921C59.7383 25.1991 59.4642 25.3153 59.1784 25.3153H58.1206C57.8348 25.3153 57.5607 25.1991 57.3586 24.9921C57.1565 24.7851 57.043 24.5044 57.043 24.2117V12.8713C57.043 12.5786 57.1565 12.2979 57.3586 12.0909C57.5607 11.8839 57.8348 11.7676 58.1206 11.7676H59.1784C59.4642 11.7676 59.7383 11.8839 59.9404 12.0909C60.1424 12.2979 60.256 12.5786 60.256 12.8713V15.0624C60.2567 15.2512 60.3045 15.4367 60.3947 15.6013C60.4849 15.7659 60.6146 15.9042 60.7716 16.0031C60.9286 16.1021 61.1076 16.1583 61.2918 16.1667C61.4759 16.175 61.6591 16.1351 61.8239 16.0507C62.7119 15.6371 63.6801 15.4355 64.6553 15.4614C65.425 15.4432 66.1929 15.5443 66.9331 15.7611C67.4876 15.9288 67.9947 16.2302 68.4121 16.6399C68.7937 17.0353 69.0718 17.5229 69.2208 18.0575C69.3884 18.682 69.469 19.3276 69.46 19.9752V24.2036C69.46 24.4963 69.3465 24.777 69.1444 24.984C68.9423 25.191 68.6682 25.3072 68.3824 25.3072H67.3424C67.0566 25.3072 66.7825 25.191 66.5804 24.984C66.3783 24.777 66.2648 24.4963 66.2648 24.2036L66.2608 19.9833Z" fill="white"/>
<path d="M70.7854 20.599C70.7972 20.0241 70.9167 19.457 71.1373 18.9283C71.3952 18.2975 71.7783 17.7286 72.2624 17.2576C72.8393 16.701 73.5162 16.2643 74.2554 15.9717C75.1935 15.6091 76.1912 15.4358 77.1936 15.4614C78.1695 15.4316 79.1409 15.6088 80.0467 15.9818C80.7512 16.2826 81.3839 16.7357 81.9014 17.3103C82.357 17.8252 82.6995 18.4343 82.9058 19.0964C83.0484 19.551 83.1419 20.0202 83.1846 20.4957C83.1902 20.5611 83.1822 20.627 83.1613 20.6891C83.1403 20.7512 83.1068 20.8081 83.063 20.856C83.0192 20.904 82.966 20.9419 82.9069 20.9674C82.8477 20.9929 82.7841 21.0054 82.7199 21.004H74.3721C74.2963 21.0044 74.2217 21.0236 74.1547 21.0601C74.0877 21.0965 74.0304 21.149 73.9876 21.2132C73.9448 21.2773 73.9179 21.3511 73.9091 21.4282C73.9003 21.5054 73.9099 21.5836 73.9371 21.6561C73.9928 21.8021 74.063 21.9419 74.1467 22.0732C74.3417 22.3783 74.5962 22.6389 74.8941 22.8387C75.216 23.0524 75.57 23.2104 75.942 23.3065C76.349 23.4133 76.7676 23.4663 77.1877 23.4644C77.8362 23.4844 78.4828 23.3829 79.0957 23.1647C79.4847 23.0234 79.8245 22.7677 80.0724 22.4296C80.1146 22.3675 80.1708 22.3167 80.2361 22.2814C80.3015 22.2462 80.3742 22.2275 80.4481 22.2271H82.451C82.5325 22.2264 82.6127 22.2476 82.6836 22.2886C82.7545 22.3296 82.8136 22.389 82.8551 22.4607C82.8965 22.5325 82.9188 22.6142 82.9197 22.6976C82.9207 22.781 82.9002 22.8632 82.8603 22.9359C82.721 23.1774 82.5636 23.4076 82.3897 23.6244C82.0344 24.0636 81.6068 24.4358 81.1263 24.724C80.5848 25.0482 80.0009 25.2916 79.3923 25.447C78.67 25.6305 77.9278 25.719 77.1837 25.7102C76.2354 25.7274 75.2905 25.5907 74.384 25.3052C73.6534 25.0758 72.9736 24.7022 72.383 24.2056C71.8665 23.7664 71.4547 23.2123 71.1789 22.5856C70.9128 21.959 70.7788 21.2821 70.7854 20.599ZM77.1936 17.7132C76.5132 17.6943 75.8373 17.8328 75.2164 18.1183C74.9983 18.2245 74.7954 18.3608 74.6133 18.5233C74.5411 18.5868 74.4896 18.6714 74.4657 18.7657C74.4418 18.8601 74.4467 18.9596 74.4796 19.0511C74.5125 19.1425 74.5719 19.2215 74.6499 19.2774C74.7279 19.3332 74.8207 19.3633 74.9158 19.3637H79.2796C79.3708 19.3628 79.4597 19.3343 79.5353 19.282C79.6109 19.2296 79.6697 19.1557 79.7045 19.0693C79.7393 18.9829 79.7485 18.8879 79.7309 18.7962C79.7134 18.7046 79.6699 18.6202 79.6058 18.5536C79.3311 18.3137 79.0207 18.1202 78.6864 17.9806C78.2094 17.7893 77.6997 17.6984 77.1877 17.7132H77.1936Z" fill="white"/>
<path d="M90.622 23.4685C91.2247 23.4794 91.8244 23.3779 92.3916 23.1688C92.7459 23.0415 93.0619 22.8224 93.309 22.5329C93.3874 22.4387 93.4851 22.3634 93.5952 22.3123C93.7052 22.2612 93.8249 22.2356 93.9457 22.2372H95.1775C95.3345 22.2368 95.4885 22.2817 95.6218 22.3667C95.7551 22.4517 95.8624 22.5734 95.9313 22.718C96.0002 22.8625 96.028 23.024 96.0115 23.1839C95.9949 23.3439 95.9348 23.4958 95.8379 23.6224V23.6345C95.4826 24.0737 95.055 24.4459 94.5745 24.7341C94.0322 25.0583 93.4477 25.3017 92.8385 25.4571C92.1169 25.6407 91.3753 25.7291 90.6319 25.7203C89.6836 25.7375 88.7386 25.6008 87.8321 25.3153C87.0948 25.0876 86.4083 24.714 85.8114 24.2157C85.2961 23.7759 84.885 23.222 84.6092 22.5957C84.5855 22.541 84.5618 22.4863 84.54 22.4296C84.2099 21.5731 84.1305 20.6365 84.3117 19.7346C84.4929 18.8326 84.9268 18.0042 85.5603 17.3507C85.6888 17.2179 85.8241 17.0922 85.9656 16.9741C86.5677 16.4819 87.2525 16.1065 87.9863 15.8664C88.836 15.5875 89.7239 15.4508 90.616 15.4613C91.3858 15.451 92.1537 15.5402 92.9017 15.7266C93.5111 15.8786 94.0954 16.1215 94.6358 16.4476C95.107 16.7344 95.5231 17.1071 95.8636 17.5472L95.8774 17.5634C95.9717 17.6922 96.0289 17.8453 96.0427 18.0056C96.0566 18.1659 96.0265 18.327 95.9558 18.4708C95.8851 18.6145 95.7767 18.7352 95.6427 18.8192C95.5087 18.9033 95.3544 18.9473 95.1973 18.9465H93.9338C93.8141 18.9475 93.6955 18.9219 93.5863 18.8716C93.4771 18.8213 93.3798 18.7473 93.3011 18.6549C93.0568 18.3705 92.7468 18.1532 92.3995 18.0231C91.8308 17.8057 91.227 17.7005 90.62 17.7132C89.6116 17.7132 88.8445 17.9832 88.3185 18.5232C88.0539 18.7963 87.8472 19.1222 87.7111 19.4807C87.575 19.8393 87.5126 20.2227 87.5276 20.607C87.5247 20.9906 87.5973 21.3708 87.7412 21.7249C87.8834 22.0682 88.0942 22.3772 88.36 22.6321C88.6433 22.8956 88.9727 23.1017 89.3309 23.2396C89.7434 23.3983 90.1814 23.4759 90.622 23.4685Z" fill="white"/>
<path d="M102.749 22.5167L101.563 23.5758C101.458 23.669 101.374 23.7841 101.316 23.9133C101.259 24.0426 101.229 24.183 101.229 24.3251C101.229 24.5877 101.127 24.8396 100.945 25.0253C100.764 25.211 100.518 25.3153 100.262 25.3153H98.9825C98.7261 25.3153 98.4801 25.211 98.2988 25.0253C98.1175 24.8396 98.0156 24.5877 98.0156 24.3251V12.7579C98.0156 12.4953 98.1175 12.2434 98.2988 12.0577C98.4801 11.872 98.7261 11.7676 98.9825 11.7676H100.262C100.517 11.7692 100.762 11.8743 100.942 12.0598C101.122 12.2454 101.223 12.4963 101.223 12.7579V18.1912C101.222 18.382 101.276 18.5688 101.377 18.7292C101.478 18.8896 101.622 19.0167 101.792 19.0952C101.962 19.1737 102.15 19.2003 102.334 19.1718C102.518 19.1432 102.691 19.0608 102.83 18.9344L105.948 16.1155C106.125 15.955 106.353 15.8663 106.589 15.8664H107.334C107.529 15.8669 107.72 15.9277 107.88 16.0407C108.041 16.1537 108.165 16.3138 108.235 16.4999C108.305 16.686 108.32 16.8896 108.275 17.0841C108.231 17.2785 108.13 17.4547 107.987 17.5897L106.075 19.3738C105.979 19.4642 105.901 19.5736 105.847 19.6954C105.793 19.8173 105.764 19.949 105.761 20.0827C105.758 20.2165 105.781 20.3494 105.83 20.4737C105.878 20.5979 105.951 20.7107 106.043 20.8055L108.788 23.6264C108.922 23.7652 109.014 23.9417 109.051 24.1337C109.088 24.3258 109.068 24.5248 108.995 24.7055C108.922 24.8862 108.798 25.0406 108.639 25.1491C108.48 25.2577 108.293 25.3155 108.101 25.3153H107.218C106.965 25.3156 106.722 25.2146 106.541 25.0339L104.058 22.5552C103.884 22.3818 103.653 22.2816 103.411 22.2744C103.168 22.2673 102.932 22.3538 102.749 22.5167Z" fill="white"/>
<path d="M119.106 25.7183C117.572 25.7183 116.333 25.3315 115.389 24.558C115.329 24.5064 115.255 24.4736 115.176 24.4635C115.098 24.4533 115.019 24.4662 114.947 24.5007C114.876 24.5351 114.816 24.5896 114.774 24.6578C114.731 24.7261 114.709 24.8052 114.709 24.886V28.4562C114.709 28.7102 114.611 28.9539 114.435 29.1335C114.26 29.3131 114.022 29.4141 113.774 29.4141H112.437C112.188 29.4141 111.948 29.3125 111.772 29.1317C111.595 28.951 111.496 28.7058 111.496 28.4501V16.9073C111.496 16.7715 111.522 16.6369 111.572 16.5114C111.623 16.3859 111.697 16.2718 111.791 16.1757C111.884 16.0795 111.996 16.0033 112.118 15.9513C112.241 15.8992 112.372 15.8724 112.504 15.8724H114.284C114.395 15.8724 114.501 15.9175 114.579 15.9976C114.657 16.0777 114.701 16.1864 114.701 16.2997C114.701 16.3805 114.723 16.4597 114.766 16.5279C114.808 16.5962 114.868 16.6507 114.939 16.6851C115.011 16.7195 115.09 16.7324 115.169 16.7223C115.247 16.7121 115.321 16.6793 115.381 16.6278C116.326 15.8542 117.566 15.4674 119.099 15.4674C119.868 15.4493 120.635 15.5504 121.374 15.7671C121.932 15.9335 122.442 16.235 122.861 16.646C123.243 17.041 123.521 17.5287 123.668 18.0636C123.837 18.6877 123.918 19.3335 123.909 19.9813V21.2146C123.919 21.859 123.838 22.5016 123.668 23.1222C123.521 23.6573 123.243 24.1452 122.861 24.5397C122.442 24.9514 121.932 25.253 121.374 25.4186C120.638 25.6356 119.873 25.7366 119.106 25.7183ZM118.316 23.4664C118.718 23.479 119.12 23.4194 119.502 23.2903C119.78 23.1927 120.031 23.0265 120.231 22.8063C120.411 22.5996 120.54 22.3526 120.609 22.0853C120.685 21.8017 120.723 21.5087 120.722 21.2146V19.9833C120.723 19.6892 120.685 19.3962 120.609 19.1126C120.54 18.8453 120.411 18.5983 120.231 18.3916C120.03 18.1708 119.78 18.0021 119.502 17.8995C119.121 17.7636 118.719 17.7004 118.316 17.7132C117.113 17.7132 116.212 17.9367 115.611 18.3835C115.01 18.8304 114.709 19.5689 114.709 20.599C114.709 22.5133 115.911 23.4698 118.316 23.4685V23.4664Z" fill="white"/>
<path d="M131.322 25.7183C130.461 25.7289 129.604 25.592 128.787 25.3133C128.069 25.0714 127.399 24.6989 126.81 24.2137C126.278 23.7732 125.844 23.2207 125.539 22.5936C125.242 21.9749 125.089 21.2943 125.092 20.605C125.091 19.908 125.259 19.2218 125.582 18.6083C125.918 17.9703 126.38 17.4109 126.939 16.966C127.532 16.4872 128.201 16.1154 128.916 15.8664C129.69 15.5937 130.503 15.4568 131.322 15.4614C132.177 15.4517 133.028 15.5886 133.839 15.8664C134.551 16.108 135.215 16.4807 135.797 16.966C136.328 17.4133 136.762 17.9709 137.068 18.6022C137.393 19.2656 137.549 20.0027 137.52 20.7445C137.491 21.4862 137.278 22.2082 136.902 22.8427C136.589 23.3686 136.187 23.8334 135.716 24.2157C135.123 24.6965 134.454 25.0685 133.738 25.3153C132.961 25.5877 132.144 25.7239 131.322 25.7183ZM128.323 20.5989C128.32 20.9809 128.387 21.36 128.52 21.7168C128.652 22.0595 128.854 22.3689 129.114 22.624C129.386 22.8889 129.707 23.0954 130.059 23.2315C130.467 23.3904 130.901 23.4681 131.338 23.4604C131.792 23.4727 132.244 23.4006 132.673 23.2477C133.025 23.119 133.344 22.9114 133.608 22.6402C133.855 22.3815 134.043 22.0695 134.157 21.7269C134.279 21.3641 134.34 20.9827 134.337 20.5989C134.34 20.22 134.282 19.8432 134.167 19.4831C134.055 19.1409 133.87 18.8284 133.626 18.5678C133.357 18.2902 133.031 18.0766 132.673 17.9421C132.238 17.7799 131.778 17.7023 131.316 17.7132C130.308 17.7132 129.554 17.9832 129.056 18.5233C128.553 19.0885 128.289 19.8349 128.323 20.5989Z" fill="white"/>
<path d="M138.969 13.1042C138.969 12.9286 139.002 12.7547 139.068 12.5924C139.133 12.4301 139.229 12.2827 139.35 12.1585C139.472 12.0343 139.616 11.9359 139.774 11.8688C139.933 11.8018 140.102 11.7674 140.274 11.7676H140.867C141.038 11.7674 141.208 11.8018 141.367 11.8688C141.525 11.9359 141.669 12.0343 141.79 12.1585C141.912 12.2827 142.008 12.4301 142.073 12.5924C142.139 12.7547 142.172 12.9286 142.172 13.1042C142.172 13.2798 142.139 13.4537 142.073 13.616C142.008 13.7783 141.912 13.9257 141.79 14.0499C141.669 14.174 141.525 14.2725 141.367 14.3395C141.208 14.4066 141.038 14.441 140.867 14.4407H140.274C140.102 14.441 139.933 14.4066 139.774 14.3395C139.616 14.2725 139.472 14.174 139.35 14.0499C139.229 13.9257 139.133 13.7783 139.068 13.616C139.002 13.4537 138.969 13.2798 138.969 13.1042ZM138.969 23.9788V17.213C138.969 16.8586 139.106 16.5186 139.351 16.268C139.596 16.0173 139.928 15.8765 140.274 15.8765H140.867C141.038 15.8765 141.208 15.9111 141.366 15.9782C141.525 16.0454 141.669 16.1439 141.79 16.268C141.911 16.3921 142.007 16.5394 142.073 16.7016C142.138 16.8637 142.172 17.0375 142.172 17.213V23.9889C142.172 24.1644 142.138 24.3382 142.073 24.5004C142.007 24.6626 141.911 24.8099 141.79 24.934C141.669 25.0581 141.525 25.1566 141.366 25.2237C141.208 25.2909 141.038 25.3255 140.867 25.3255H140.274C140.102 25.3255 139.931 25.2906 139.772 25.2228C139.613 25.155 139.469 25.0556 139.347 24.9304C139.226 24.8052 139.13 24.6567 139.065 24.4934C139 24.3301 138.967 24.1552 138.969 23.9788Z" fill="white"/>
<path d="M153.294 19.9833C153.295 19.6893 153.258 19.3965 153.183 19.1125C153.113 18.8455 152.983 18.5987 152.804 18.3916C152.603 18.1699 152.352 18.0011 152.074 17.8995C151.693 17.7635 151.291 17.7003 150.888 17.7132C149.683 17.7132 148.781 17.9366 148.181 18.3835C147.581 18.8304 147.281 19.5689 147.279 20.5989V24.2441C147.279 24.5271 147.17 24.7985 146.974 24.9987C146.779 25.1988 146.514 25.3113 146.237 25.3113H145.083C144.814 25.3113 144.555 25.2019 144.365 25.0071C144.174 24.8124 144.067 24.5481 144.066 24.2724V17.0105C144.066 16.7092 144.183 16.4203 144.391 16.2072C144.599 15.9941 144.881 15.8745 145.176 15.8745H146.862C146.917 15.8742 146.971 15.8851 147.022 15.9064C147.073 15.9278 147.119 15.9593 147.158 15.999C147.197 16.0387 147.227 16.086 147.248 16.1379C147.269 16.1899 147.28 16.2456 147.279 16.3017C147.279 16.3825 147.302 16.4617 147.344 16.5299C147.386 16.5982 147.446 16.6527 147.518 16.6871C147.589 16.7215 147.669 16.7344 147.747 16.7243C147.825 16.7141 147.899 16.6814 147.96 16.6298C148.905 15.8562 150.144 15.4694 151.677 15.4694C152.446 15.4513 153.214 15.5524 153.955 15.7692C154.511 15.936 155.02 16.2374 155.439 16.648C155.821 17.0434 156.099 17.531 156.248 18.0656C156.416 18.6901 156.496 19.3357 156.487 19.9833V24.1793C156.487 24.4806 156.371 24.7695 156.162 24.9826C155.954 25.1956 155.672 25.3153 155.378 25.3153H154.421C154.124 25.3153 153.839 25.1943 153.628 24.979C153.418 24.7637 153.3 24.4716 153.3 24.1671L153.294 19.9833Z" fill="white"/>
<path d="M162.555 21.2166C162.549 21.5896 162.57 21.9625 162.617 22.3324C162.628 22.4504 162.666 22.564 162.727 22.6648C162.788 22.7655 162.87 22.8506 162.968 22.9136C163.245 23.0588 163.551 23.1345 163.862 23.1343C164.082 23.1465 164.353 23.1566 164.675 23.1627C164.912 23.1664 165.137 23.2653 165.303 23.4381C165.47 23.6109 165.563 23.8436 165.563 24.0861V24.3899C165.562 24.5118 165.539 24.6324 165.493 24.7448C165.447 24.8573 165.38 24.9593 165.295 25.0451C165.211 25.1309 165.11 25.1988 165 25.2448C164.89 25.2908 164.772 25.3141 164.653 25.3133C164.02 25.3133 163.461 25.3052 162.976 25.289C162.39 25.2805 161.805 25.2339 161.225 25.1493C160.849 25.1026 160.486 24.9793 160.157 24.7868C159.902 24.6201 159.707 24.3736 159.599 24.0841C159.466 23.7112 159.393 23.3186 159.384 22.9217C159.36 22.4539 159.35 21.8849 159.35 21.2166V18.6306C159.35 18.3853 159.254 18.1502 159.085 17.9768C158.916 17.8033 158.686 17.7057 158.447 17.7051C158.207 17.7051 157.978 17.6078 157.809 17.4347C157.64 17.2615 157.545 17.0266 157.545 16.7817C157.545 16.5368 157.64 16.3019 157.809 16.1287C157.978 15.9556 158.207 15.8583 158.447 15.8583C158.686 15.8583 158.915 15.761 159.085 15.5879C159.254 15.4148 159.35 15.1799 159.35 14.9348V12.6911C159.35 12.4462 159.445 12.2113 159.614 12.0381C159.783 11.8649 160.013 11.7676 160.252 11.7676H161.66C161.899 11.7676 162.128 11.8649 162.297 12.0381C162.466 12.2113 162.561 12.4462 162.561 12.6911V14.9429C162.562 15.188 162.657 15.4229 162.827 15.596C162.996 15.7691 163.225 15.8664 163.465 15.8664H164.667C164.906 15.8664 165.135 15.9637 165.304 16.1368C165.474 16.31 165.569 16.5449 165.569 16.7898C165.569 17.0347 165.474 17.2696 165.304 17.4428C165.135 17.6159 164.906 17.7132 164.667 17.7132H163.459C163.221 17.7138 162.992 17.8103 162.823 17.982C162.654 18.1537 162.558 18.3867 162.555 18.6306V21.2166Z" fill="white"/>
<path d="M166.285 16.9397C166.285 16.7868 166.322 16.6362 166.394 16.5022C166.464 16.3637 166.562 16.2416 166.681 16.1438C166.811 16.0399 166.958 15.9585 167.114 15.9028C167.283 15.844 167.461 15.8145 167.64 15.8157C167.827 15.8131 168.013 15.8425 168.191 15.9028C168.347 15.9571 168.492 16.0387 168.62 16.1438C168.737 16.2416 168.831 16.3638 168.897 16.5022C168.986 16.685 169.017 16.8918 168.986 17.0936C168.98 17.1456 168.967 17.1966 168.949 17.2454C168.878 17.4358 168.758 17.603 168.603 17.7294C168.473 17.8345 168.328 17.916 168.172 17.9704C168 18.0304 167.821 18.0606 167.64 18.0595C167.452 18.0615 167.264 18.0314 167.086 17.9704C166.929 17.917 166.784 17.8354 166.655 17.7294C166.539 17.6327 166.445 17.5119 166.378 17.375C166.315 17.2391 166.283 17.0902 166.285 16.9397ZM167.646 16.0385C167.385 16.0376 167.132 16.1308 166.932 16.3018C166.841 16.3811 166.766 16.479 166.714 16.5893C166.661 16.6981 166.634 16.8181 166.635 16.9397C166.634 17.0605 166.661 17.1799 166.714 17.288C166.767 17.3971 166.841 17.4937 166.932 17.5715C167.082 17.7025 167.264 17.7903 167.459 17.8259C167.653 17.8614 167.854 17.8435 168.039 17.774C168.157 17.7268 168.265 17.6582 168.359 17.5715C168.449 17.493 168.523 17.3965 168.575 17.288C168.628 17.1799 168.655 17.0605 168.654 16.9397C168.655 16.8181 168.628 16.6981 168.575 16.5893C168.523 16.4795 168.449 16.3817 168.359 16.3018C168.265 16.2158 168.156 16.1473 168.039 16.0993C167.911 16.0544 167.777 16.0338 167.642 16.0385H167.646ZM167.669 17.4965C167.565 17.4986 167.461 17.4842 167.361 17.454C167.282 17.4275 167.207 17.3871 167.141 17.3345C167.084 17.2866 167.039 17.2256 167.009 17.1563C166.98 17.0878 166.966 17.0141 166.965 16.9397C166.966 16.863 166.983 16.7875 167.017 16.7189C167.051 16.6496 167.1 16.5888 167.159 16.5407C167.226 16.4882 167.301 16.4478 167.381 16.4212C167.474 16.3913 167.571 16.3762 167.669 16.3767C167.822 16.3677 167.974 16.4051 168.106 16.484C168.183 16.5357 168.248 16.605 168.294 16.6865C168.298 16.6939 168.301 16.7024 168.301 16.7109C168.3 16.7195 168.298 16.7279 168.294 16.7353C168.29 16.7427 168.284 16.7488 168.277 16.7531C168.269 16.7573 168.261 16.7595 168.253 16.7594H168.005C167.998 16.7594 167.991 16.7576 167.984 16.7541C167.978 16.7505 167.972 16.7454 167.968 16.7392C167.94 16.7016 167.903 16.6733 167.859 16.6582C167.796 16.6348 167.729 16.6238 167.661 16.6258C167.615 16.6221 167.569 16.6279 167.525 16.6429C167.481 16.6579 167.441 16.6816 167.406 16.7128C167.353 16.7666 167.322 16.839 167.319 16.9154C167.317 16.983 167.336 17.0497 167.373 17.1057C167.405 17.1519 167.449 17.1887 167.5 17.2128C167.55 17.2369 167.606 17.2474 167.661 17.2434C167.729 17.2447 167.796 17.2338 167.859 17.211C167.902 17.1934 167.94 17.1648 167.97 17.128C167.974 17.1217 167.98 17.1166 167.986 17.1131C167.993 17.1096 168 17.1077 168.007 17.1077H168.249C168.257 17.1074 168.266 17.1096 168.273 17.1139C168.281 17.1182 168.287 17.1246 168.292 17.1323C168.296 17.14 168.298 17.1488 168.298 17.1577C168.298 17.1666 168.295 17.1752 168.29 17.1827C168.242 17.2665 168.174 17.3363 168.092 17.3852C167.964 17.4622 167.818 17.5008 167.669 17.4965Z" fill="white"/>
<path d="M123.775 3.42842C124.044 3.42546 124.312 3.47069 124.566 3.56207C124.8 3.64697 125.017 3.7761 125.205 3.94279C125.388 4.10736 125.536 4.3095 125.638 4.53613C125.742 4.78075 125.796 5.0448 125.796 5.31173C125.796 5.57866 125.742 5.84271 125.638 6.08733C125.532 6.31674 125.379 6.51988 125.189 6.6827C125.002 6.85011 124.785 6.97933 124.55 7.06342C124.297 7.15648 124.029 7.20243 123.759 7.1991H120.956V8.81915H119.469V3.42842H123.775ZM120.966 4.50576V6.12581H123.775C123.874 6.12473 123.972 6.10267 124.062 6.06101C124.156 6.01785 124.242 5.95899 124.317 5.88685C124.392 5.81502 124.453 5.7291 124.497 5.63372C124.542 5.53499 124.565 5.42697 124.564 5.31781C124.566 5.20008 124.543 5.08329 124.497 4.97557C124.454 4.87896 124.393 4.79217 124.317 4.72041C124.242 4.65188 124.156 4.5983 124.062 4.56246C123.97 4.52834 123.873 4.51054 123.775 4.50981L120.966 4.50576Z" fill="white"/>
<path d="M129.333 5.48993C128.806 5.48993 128.411 5.61684 128.147 5.87064C128.012 6.00877 127.907 6.1745 127.839 6.35699C127.771 6.53949 127.741 6.73466 127.752 6.92975V8.81509H126.346V4.68193H127.752V5.31375C128.189 4.77373 128.83 4.50372 129.675 4.50372C129.78 4.50372 129.872 4.50777 129.954 4.51587C130.033 4.51587 130.116 4.53207 130.201 4.5422V5.67016C130.062 5.59803 129.913 5.54817 129.758 5.52233C129.618 5.50082 129.476 5.48999 129.333 5.48993Z" fill="white"/>
<path d="M130.527 6.75158C130.533 6.5007 130.585 6.25321 130.682 6.02255C130.793 5.74601 130.961 5.49686 131.174 5.2915C131.426 5.04777 131.722 4.85657 132.046 4.72853C132.456 4.5704 132.893 4.49477 133.331 4.50578C133.757 4.4923 134.181 4.56953 134.577 4.73258C134.885 4.86397 135.163 5.06224 135.389 5.31378C135.592 5.53794 135.745 5.80471 135.836 6.09546C135.922 6.36504 135.966 6.64639 135.969 6.92978H131.842C131.858 7.09699 131.912 7.25799 132 7.3996C132.085 7.53305 132.196 7.64687 132.327 7.73373C132.468 7.82606 132.623 7.89445 132.785 7.93624C132.964 7.98316 133.147 8.0063 133.331 8.00509C133.614 8.01339 133.896 7.96879 134.164 7.87346C134.367 7.80203 134.538 7.6583 134.646 7.46845H135.961C135.875 7.68873 135.755 7.89375 135.607 8.07597C135.451 8.26769 135.265 8.4307 135.055 8.55794C134.818 8.69827 134.562 8.80393 134.296 8.87182C133.98 8.95202 133.656 8.99081 133.331 8.98725C132.916 8.9948 132.502 8.93534 132.105 8.81107C131.786 8.71127 131.489 8.54744 131.231 8.3291C131.005 8.13666 130.825 7.89344 130.705 7.61831C130.587 7.3456 130.526 7.05015 130.527 6.75158ZM133.331 5.48996C133.036 5.48325 132.743 5.54486 132.475 5.67019C132.239 5.7789 132.05 5.97083 131.941 6.21088H134.65C134.586 6.07439 134.497 5.95196 134.387 5.85042C134.269 5.74593 134.135 5.66118 133.992 5.59931C133.781 5.51769 133.556 5.4805 133.331 5.48996Z" fill="white"/>
<path d="M136.6 8.8151V4.68194H138.011V5.31376C138.22 5.05016 138.488 4.84182 138.792 4.70624C139.156 4.56008 139.545 4.49119 139.935 4.50373C140.115 4.50373 140.303 4.50373 140.495 4.53006C140.682 4.54697 140.866 4.5857 141.044 4.64549C141.214 4.70354 141.375 4.78678 141.521 4.89255C141.667 5.00003 141.784 5.14445 141.859 5.31173C142.057 5.02851 142.332 4.8115 142.65 4.68801C143.044 4.55298 143.458 4.49058 143.874 4.50373C144.208 4.49382 144.542 4.53825 144.863 4.63536C145.098 4.70677 145.311 4.83932 145.481 5.02013C145.639 5.19609 145.75 5.40993 145.806 5.64182C145.87 5.91626 145.902 6.19788 145.899 6.4802V8.8151H144.495V6.56728C144.497 6.4101 144.481 6.25319 144.449 6.09949C144.424 5.97443 144.366 5.85848 144.283 5.76332C144.194 5.66886 144.083 5.59916 143.961 5.56082C143.793 5.51105 143.618 5.48784 143.443 5.49197C142.921 5.49197 142.543 5.58309 142.308 5.7613C142.189 5.85636 142.094 5.97993 142.032 6.12115C141.971 6.26238 141.944 6.41696 141.954 6.57133V8.81915H140.55V6.56728C140.552 6.4101 140.537 6.25319 140.505 6.09949C140.479 5.97443 140.422 5.85848 140.339 5.76332C140.25 5.66886 140.139 5.59916 140.016 5.56082C139.848 5.51105 139.673 5.48784 139.498 5.49197C138.976 5.49197 138.599 5.58309 138.363 5.7613C138.244 5.85636 138.15 5.97993 138.088 6.12115C138.026 6.26238 137.999 6.41696 138.009 6.57133V8.81915L136.6 8.8151Z" fill="white"/>
<path d="M146.668 4.06026V2.88977H148.072V4.06026H146.668ZM146.668 8.81512V4.68195H148.072V8.81512H146.668Z" fill="white"/>
<path d="M152.872 8.81511V8.18329C152.437 8.7233 151.793 8.99331 150.942 8.99331C150.608 9.00085 150.275 8.95717 149.953 8.86371C149.71 8.79052 149.488 8.65856 149.305 8.47895C149.137 8.30691 149.015 8.09351 148.951 7.85928C148.877 7.58779 148.842 7.30677 148.846 7.02495V4.68195H150.25V7.02292C150.25 7.15126 150.265 7.27912 150.295 7.40364C150.324 7.52103 150.381 7.62907 150.461 7.71752C150.551 7.81072 150.662 7.88021 150.784 7.92003C150.951 7.97588 151.126 8.00191 151.302 7.99698C151.829 7.99698 152.225 7.89303 152.488 7.68512C152.623 7.57186 152.73 7.42699 152.798 7.26274C152.867 7.09849 152.896 6.91969 152.884 6.74144V4.68195H154.281V8.81511H152.872Z" fill="white"/>
<path d="M155.104 8.81509V4.68193H156.509V5.31375C156.72 5.04797 156.992 4.83935 157.3 4.70623C157.663 4.56002 158.051 4.49111 158.441 4.50372C158.621 4.50372 158.809 4.50372 159.001 4.53005C159.188 4.54696 159.372 4.58569 159.55 4.64548C159.72 4.70312 159.881 4.78639 160.027 4.89254C160.169 5.0016 160.282 5.14675 160.353 5.31375C160.551 5.03094 160.826 4.81405 161.144 4.69003C161.538 4.55516 161.952 4.49277 162.368 4.50575C162.702 4.49584 163.036 4.54026 163.356 4.63738C163.592 4.70872 163.806 4.84126 163.977 5.02214C164.136 5.19796 164.25 5.41166 164.308 5.64384C164.373 5.9181 164.404 6.19984 164.4 6.48221V8.81509H162.997V6.56727C162.999 6.41009 162.983 6.25319 162.951 6.09948C162.926 5.97442 162.868 5.85848 162.785 5.76332C162.696 5.66885 162.585 5.59915 162.463 5.56081C162.295 5.51092 162.12 5.4877 161.945 5.49196C161.423 5.49196 161.045 5.58308 160.81 5.76129C160.691 5.85645 160.597 5.98009 160.535 6.12134C160.474 6.26258 160.447 6.4171 160.458 6.57132V8.81914H159.048V6.56727C159.05 6.41009 159.035 6.25319 159.003 6.09948C158.977 5.97442 158.92 5.85848 158.837 5.76332C158.748 5.66842 158.637 5.59865 158.514 5.56081C158.346 5.51092 158.171 5.4877 157.996 5.49196C157.474 5.49196 157.097 5.58308 156.861 5.76129C156.742 5.85645 156.648 5.98009 156.587 6.12134C156.525 6.26258 156.499 6.4171 156.509 6.57132V8.81914L155.104 8.81509Z" fill="white"/>
</svg>
