<svg width="140" height="35" viewBox="0 0 140 35" fill="none" xmlns="http://www.w3.org/2000/svg">
<rect width="140" height="35" rx="10" fill="#F580EB"/>
<path d="M48.3809 12.4688V13.377L45.082 21H43.3008L46.5996 13.7871H42.3516V12.4688H48.3809ZM52.875 16.6758V18H49.5645V16.6758H52.875ZM57.0059 21H55.1484L55.1602 19.6289H57.0059C57.4668 19.6289 57.8555 19.5254 58.1719 19.3184C58.4883 19.1074 58.7266 18.8008 58.8867 18.3984C59.0508 17.9961 59.1328 17.5098 59.1328 16.9395V16.5234C59.1328 16.0859 59.0859 15.7012 58.9922 15.3691C58.9023 15.0371 58.7676 14.7578 58.5879 14.5312C58.4082 14.3047 58.1875 14.1348 57.9258 14.0215C57.6641 13.9043 57.3633 13.8457 57.0234 13.8457H55.1133V12.4688H57.0234C57.5938 12.4688 58.1152 12.5664 58.5879 12.7617C59.0645 12.9531 59.4766 13.2285 59.8242 13.5879C60.1719 13.9473 60.4395 14.377 60.627 14.877C60.8184 15.373 60.9141 15.9258 60.9141 16.5352V16.9395C60.9141 17.5449 60.8184 18.0977 60.627 18.5977C60.4395 19.0977 60.1719 19.5273 59.8242 19.8867C59.4805 20.2422 59.0684 20.5176 58.5879 20.7129C58.1113 20.9043 57.584 21 57.0059 21ZM56.1445 12.4688V21H54.3867V12.4688H56.1445ZM65.5078 19.5703V16.7461C65.5078 16.543 65.4746 16.3691 65.4082 16.2246C65.3418 16.0762 65.2383 15.9609 65.0977 15.8789C64.9609 15.7969 64.7832 15.7559 64.5645 15.7559C64.377 15.7559 64.2148 15.7891 64.0781 15.8555C63.9414 15.918 63.8359 16.0098 63.7617 16.1309C63.6875 16.248 63.6504 16.3867 63.6504 16.5469H61.9629C61.9629 16.2773 62.0254 16.0215 62.1504 15.7793C62.2754 15.5371 62.457 15.3242 62.6953 15.1406C62.9336 14.9531 63.2168 14.8066 63.5449 14.7012C63.877 14.5957 64.248 14.543 64.6582 14.543C65.1504 14.543 65.5879 14.625 65.9707 14.7891C66.3535 14.9531 66.6543 15.1992 66.873 15.5273C67.0957 15.8555 67.207 16.2656 67.207 16.7578V19.4707C67.207 19.8184 67.2285 20.1035 67.2715 20.3262C67.3145 20.5449 67.377 20.7363 67.459 20.9004V21H65.7539C65.6719 20.8281 65.6094 20.6133 65.5664 20.3555C65.5273 20.0938 65.5078 19.832 65.5078 19.5703ZM65.7305 17.1387L65.7422 18.0938H64.7988C64.5762 18.0938 64.3828 18.1191 64.2188 18.1699C64.0547 18.2207 63.9199 18.293 63.8145 18.3867C63.709 18.4766 63.6309 18.582 63.5801 18.7031C63.5332 18.8242 63.5098 18.957 63.5098 19.1016C63.5098 19.2461 63.543 19.377 63.6094 19.4941C63.6758 19.6074 63.7715 19.6973 63.8965 19.7637C64.0215 19.8262 64.168 19.8574 64.3359 19.8574C64.5898 19.8574 64.8105 19.8066 64.998 19.7051C65.1855 19.6035 65.3301 19.4785 65.4316 19.3301C65.5371 19.1816 65.5918 19.041 65.5957 18.9082L66.041 19.623C65.9785 19.7832 65.8926 19.9492 65.7832 20.1211C65.6777 20.293 65.543 20.4551 65.3789 20.6074C65.2148 20.7559 65.0176 20.8789 64.7871 20.9766C64.5566 21.0703 64.2832 21.1172 63.9668 21.1172C63.5645 21.1172 63.1992 21.0371 62.8711 20.877C62.5469 20.7129 62.2891 20.4883 62.0977 20.2031C61.9102 19.9141 61.8164 19.5859 61.8164 19.2188C61.8164 18.8867 61.8789 18.5918 62.0039 18.334C62.1289 18.0762 62.3125 17.8594 62.5547 17.6836C62.8008 17.5039 63.1074 17.3691 63.4746 17.2793C63.8418 17.1855 64.2676 17.1387 64.752 17.1387H65.7305ZM70.2949 20.2852L71.9766 14.6602H73.7871L71.2383 21.9551C71.1836 22.1152 71.1094 22.2871 71.0156 22.4707C70.9258 22.6543 70.8027 22.8281 70.6465 22.9922C70.4941 23.1602 70.3008 23.2969 70.0664 23.4023C69.8359 23.5078 69.5527 23.5605 69.2168 23.5605C69.0566 23.5605 68.9258 23.5508 68.8242 23.5312C68.7227 23.5117 68.6016 23.4844 68.4609 23.4492V22.2129C68.5039 22.2129 68.5488 22.2129 68.5957 22.2129C68.6426 22.2168 68.6875 22.2188 68.7305 22.2188C68.9531 22.2188 69.1348 22.1934 69.2754 22.1426C69.416 22.0918 69.5293 22.0137 69.6152 21.9082C69.7012 21.8066 69.7695 21.6738 69.8203 21.5098L70.2949 20.2852ZM69.5918 14.6602L70.9688 19.2539L71.209 21.041L70.0605 21.1641L67.7812 14.6602H69.5918ZM79.3125 12.4688V21H77.5547V12.4688H79.3125ZM82.7109 16.1133V17.4844H78.832V16.1133H82.7109ZM83.1211 12.4688V13.8457H78.832V12.4688H83.1211ZM85.5703 16.043V21H83.8828V14.6602H85.4707L85.5703 16.043ZM87.4805 14.6191L87.4512 16.1836C87.3691 16.1719 87.2695 16.1621 87.1523 16.1543C87.0391 16.1426 86.9355 16.1367 86.8418 16.1367C86.6035 16.1367 86.3965 16.168 86.2207 16.2305C86.0488 16.2891 85.9043 16.377 85.7871 16.4941C85.6738 16.6113 85.5879 16.7539 85.5293 16.9219C85.4746 17.0898 85.4434 17.2812 85.4355 17.4961L85.0957 17.3906C85.0957 16.9805 85.1367 16.6035 85.2188 16.2598C85.3008 15.9121 85.4199 15.6094 85.5762 15.3516C85.7363 15.0938 85.9316 14.8945 86.1621 14.7539C86.3926 14.6133 86.6562 14.543 86.9531 14.543C87.0469 14.543 87.1426 14.5508 87.2402 14.5664C87.3379 14.5781 87.418 14.5957 87.4805 14.6191ZM91.0781 21.1172C90.5859 21.1172 90.1445 21.0391 89.7539 20.8828C89.3633 20.7227 89.0312 20.502 88.7578 20.2207C88.4883 19.9395 88.2812 19.6133 88.1367 19.2422C87.9922 18.8672 87.9199 18.4688 87.9199 18.0469V17.8125C87.9199 17.332 87.9883 16.8926 88.125 16.4941C88.2617 16.0957 88.457 15.75 88.7109 15.457C88.9688 15.1641 89.2812 14.9395 89.6484 14.7832C90.0156 14.623 90.4297 14.543 90.8906 14.543C91.3398 14.543 91.7383 14.6172 92.0859 14.7656C92.4336 14.9141 92.7246 15.125 92.959 15.3984C93.1973 15.6719 93.377 16 93.498 16.3828C93.6191 16.7617 93.6797 17.1836 93.6797 17.6484V18.3516H88.6406V17.2266H92.0215V17.0977C92.0215 16.8633 91.9785 16.6543 91.8926 16.4707C91.8105 16.2832 91.6855 16.1348 91.5176 16.0254C91.3496 15.916 91.1348 15.8613 90.873 15.8613C90.6504 15.8613 90.459 15.9102 90.2988 16.0078C90.1387 16.1055 90.0078 16.2422 89.9062 16.418C89.8086 16.5938 89.7344 16.8008 89.6836 17.0391C89.6367 17.2734 89.6133 17.5312 89.6133 17.8125V18.0469C89.6133 18.3008 89.6484 18.5352 89.7188 18.75C89.793 18.9648 89.8965 19.1504 90.0293 19.3066C90.166 19.4629 90.3301 19.584 90.5215 19.6699C90.7168 19.7559 90.9375 19.7988 91.1836 19.7988C91.4883 19.7988 91.7715 19.7402 92.0332 19.623C92.2988 19.502 92.5273 19.3203 92.7188 19.0781L93.5391 19.9688C93.4062 20.1602 93.2246 20.3438 92.9941 20.5195C92.7676 20.6953 92.4941 20.8398 92.1738 20.9531C91.8535 21.0625 91.4883 21.1172 91.0781 21.1172ZM97.5586 21.1172C97.0664 21.1172 96.625 21.0391 96.2344 20.8828C95.8438 20.7227 95.5117 20.502 95.2383 20.2207C94.9688 19.9395 94.7617 19.6133 94.6172 19.2422C94.4727 18.8672 94.4004 18.4688 94.4004 18.0469V17.8125C94.4004 17.332 94.4688 16.8926 94.6055 16.4941C94.7422 16.0957 94.9375 15.75 95.1914 15.457C95.4492 15.1641 95.7617 14.9395 96.1289 14.7832C96.4961 14.623 96.9102 14.543 97.3711 14.543C97.8203 14.543 98.2188 14.6172 98.5664 14.7656C98.9141 14.9141 99.2051 15.125 99.4395 15.3984C99.6777 15.6719 99.8574 16 99.9785 16.3828C100.1 16.7617 100.16 17.1836 100.16 17.6484V18.3516H95.1211V17.2266H98.502V17.0977C98.502 16.8633 98.459 16.6543 98.373 16.4707C98.291 16.2832 98.166 16.1348 97.998 16.0254C97.8301 15.916 97.6152 15.8613 97.3535 15.8613C97.1309 15.8613 96.9395 15.9102 96.7793 16.0078C96.6191 16.1055 96.4883 16.2422 96.3867 16.418C96.2891 16.5938 96.2148 16.8008 96.1641 17.0391C96.1172 17.2734 96.0938 17.5312 96.0938 17.8125V18.0469C96.0938 18.3008 96.1289 18.5352 96.1992 18.75C96.2734 18.9648 96.377 19.1504 96.5098 19.3066C96.6465 19.4629 96.8105 19.584 97.002 19.6699C97.1973 19.7559 97.418 19.7988 97.6641 19.7988C97.9688 19.7988 98.252 19.7402 98.5137 19.623C98.7793 19.502 99.0078 19.3203 99.1992 19.0781L100.02 19.9688C99.8867 20.1602 99.7051 20.3438 99.4746 20.5195C99.248 20.6953 98.9746 20.8398 98.6543 20.9531C98.334 21.0625 97.9688 21.1172 97.5586 21.1172ZM107.713 12.4688V21H105.961V12.4688H107.713ZM110.338 12.4688V13.8457H103.377V12.4688H110.338ZM112.512 16.043V21H110.824V14.6602H112.412L112.512 16.043ZM114.422 14.6191L114.393 16.1836C114.311 16.1719 114.211 16.1621 114.094 16.1543C113.98 16.1426 113.877 16.1367 113.783 16.1367C113.545 16.1367 113.338 16.168 113.162 16.2305C112.99 16.2891 112.846 16.377 112.729 16.4941C112.615 16.6113 112.529 16.7539 112.471 16.9219C112.416 17.0898 112.385 17.2812 112.377 17.4961L112.037 17.3906C112.037 16.9805 112.078 16.6035 112.16 16.2598C112.242 15.9121 112.361 15.6094 112.518 15.3516C112.678 15.0938 112.873 14.8945 113.104 14.7539C113.334 14.6133 113.598 14.543 113.895 14.543C113.988 14.543 114.084 14.5508 114.182 14.5664C114.279 14.5781 114.359 14.5957 114.422 14.6191ZM117 14.6602V21H115.307V14.6602H117ZM115.201 13.0078C115.201 12.7617 115.287 12.5586 115.459 12.3984C115.631 12.2383 115.861 12.1582 116.15 12.1582C116.436 12.1582 116.664 12.2383 116.836 12.3984C117.012 12.5586 117.1 12.7617 117.1 13.0078C117.1 13.2539 117.012 13.457 116.836 13.6172C116.664 13.7773 116.436 13.8574 116.15 13.8574C115.861 13.8574 115.631 13.7773 115.459 13.6172C115.287 13.457 115.201 13.2539 115.201 13.0078ZM121.816 19.5703V16.7461C121.816 16.543 121.783 16.3691 121.717 16.2246C121.65 16.0762 121.547 15.9609 121.406 15.8789C121.27 15.7969 121.092 15.7559 120.873 15.7559C120.686 15.7559 120.523 15.7891 120.387 15.8555C120.25 15.918 120.145 16.0098 120.07 16.1309C119.996 16.248 119.959 16.3867 119.959 16.5469H118.271C118.271 16.2773 118.334 16.0215 118.459 15.7793C118.584 15.5371 118.766 15.3242 119.004 15.1406C119.242 14.9531 119.525 14.8066 119.854 14.7012C120.186 14.5957 120.557 14.543 120.967 14.543C121.459 14.543 121.896 14.625 122.279 14.7891C122.662 14.9531 122.963 15.1992 123.182 15.5273C123.404 15.8555 123.516 16.2656 123.516 16.7578V19.4707C123.516 19.8184 123.537 20.1035 123.58 20.3262C123.623 20.5449 123.686 20.7363 123.768 20.9004V21H122.062C121.98 20.8281 121.918 20.6133 121.875 20.3555C121.836 20.0938 121.816 19.832 121.816 19.5703ZM122.039 17.1387L122.051 18.0938H121.107C120.885 18.0938 120.691 18.1191 120.527 18.1699C120.363 18.2207 120.229 18.293 120.123 18.3867C120.018 18.4766 119.939 18.582 119.889 18.7031C119.842 18.8242 119.818 18.957 119.818 19.1016C119.818 19.2461 119.852 19.377 119.918 19.4941C119.984 19.6074 120.08 19.6973 120.205 19.7637C120.33 19.8262 120.477 19.8574 120.645 19.8574C120.898 19.8574 121.119 19.8066 121.307 19.7051C121.494 19.6035 121.639 19.4785 121.74 19.3301C121.846 19.1816 121.9 19.041 121.904 18.9082L122.35 19.623C122.287 19.7832 122.201 19.9492 122.092 20.1211C121.986 20.293 121.852 20.4551 121.688 20.6074C121.523 20.7559 121.326 20.8789 121.096 20.9766C120.865 21.0703 120.592 21.1172 120.275 21.1172C119.873 21.1172 119.508 21.0371 119.18 20.877C118.855 20.7129 118.598 20.4883 118.406 20.2031C118.219 19.9141 118.125 19.5859 118.125 19.2188C118.125 18.8867 118.188 18.5918 118.312 18.334C118.438 18.0762 118.621 17.8594 118.863 17.6836C119.109 17.5039 119.416 17.3691 119.783 17.2793C120.15 17.1855 120.576 17.1387 121.061 17.1387H122.039ZM126.598 12V21H124.904V12H126.598Z" fill="white"/>
<path fill-rule="evenodd" clip-rule="evenodd" d="M17.287 24.4193L14.0114 23.5374L13.3437 22.7186V18.4353L11.5547 16.0731L13.3437 13.4591V9.42773L16.0901 12.7032L17.8539 9.74268L20.6885 12.3882L23.001 9.80567L25.6032 12.7662L28.0599 9.42773L29.8867 12.2623L32.6262 9.67969V23.0335C32.6262 23.0335 24.1531 25.7421 17.287 24.4193Z" fill="white"/>
<path fill-rule="evenodd" clip-rule="evenodd" d="M16.75 24.1043V11.3804L19.0511 13.9629L21.6873 11.3804L23.8385 14.3409L26.4842 11.3804L28.6889 13.9L31.3125 11.3804L32.6253 13.0181V22.9075C32.6253 22.9075 30.8691 24.4822 26.0628 24.6082C21.2565 24.7342 16.75 24.1043 16.75 24.1043Z" fill="#FEC652"/>
<path fill-rule="evenodd" clip-rule="evenodd" d="M23.0006 19.6949L21.1934 17.0494L23.0006 14.3408L24.9099 17.0179L23.0006 19.6949Z" fill="white"/>
<path fill-rule="evenodd" clip-rule="evenodd" d="M32.6247 18.6871L30.8301 16.0416L32.6247 13.459L34.6726 16.0731L32.6247 18.6871Z" fill="white"/>
<path fill-rule="evenodd" clip-rule="evenodd" d="M14.0123 17.6793L12.9414 16.0415L14.0123 14.7817L15.1461 16.2305L14.0123 17.6793Z" fill="#95E7EE"/>
<path fill-rule="evenodd" clip-rule="evenodd" d="M23.9006 18.6241L22.5684 17.0493L23.9006 15.4116L24.9715 17.0493L23.9006 18.6241Z" fill="#FF4A70"/>
<path fill-rule="evenodd" clip-rule="evenodd" d="M33.602 17.6793L32.625 16.2305L33.602 14.5298L34.6099 16.1045L33.602 17.6793Z" fill="#95E7EE"/>
<path fill-rule="evenodd" clip-rule="evenodd" d="M13.1247 10C13.314 9.99899 13.5028 10.0201 13.6872 10.063C14.052 10.7868 14.8387 11.2491 15.3124 11.874C15.5474 12.1833 16.1874 12.8106 16.1874 12.8106C16.1874 12.8106 17.1323 11.2479 17.5002 10.6879C17.6312 10.4876 17.7194 10.0977 17.9373 10.0007H18.3783C18.4413 10.0511 18.3953 10.0227 18.5043 10.0637L20.5043 12.6865H20.5672C20.7802 12.0566 21.7294 11.3455 22.1301 10.8132C22.2945 10.5953 22.508 10.1109 22.755 10.0013H23.2551L25.5052 12.6865V12.6236C25.7572 12.4245 25.8737 12.1379 26.0677 11.874C26.5529 11.2219 27.0727 10.5964 27.6249 10H28.0627C28.4709 10.6551 29.0573 11.2472 29.5002 11.8733C29.6935 12.1467 29.7565 12.5253 30.125 12.6229C30.4898 11.8985 31.2765 11.4362 31.7502 10.812C31.9449 10.555 32.1225 10.189 32.4375 10.063C32.5975 9.95342 32.8243 10.0233 33 10.063C33.3005 11.1055 33.1291 12.7993 33.126 14.0597C33.4882 14.4181 34.9767 16.6095 35 17.1809C34.4545 17.7219 34.1181 18.5301 33.6872 19.1795C33.5392 19.4019 33.2129 19.6708 33.1247 19.9285V20.9905C33.1247 22.0046 33.1877 23.2298 32.9987 24.0499C32.6454 24.2823 32.3587 24.6168 31.9361 24.7995C30.7335 25.3179 29.2148 25.3664 27.8113 25.6738L25.4365 25.7997C24.4368 26.0108 22.6258 26.0933 21.5613 25.8627H20.5622C19.8529 25.7078 18.9339 25.7651 18.2498 25.6108C16.5024 25.2221 14.6913 25.3374 13.4378 24.4877C13.2016 24.3277 13.0712 24.0058 12.8753 23.8011V19.9285C12.5698 19.0025 11.0517 17.9141 11 16.8067C11.5518 16.2763 11.8819 15.4556 12.3128 14.808C12.4652 14.5788 12.7858 14.3318 12.8753 14.0591V10.252C12.9689 10.1791 13.0528 10.0944 13.1247 10ZM22.9376 11.1868C22.7109 11.8356 21.9531 12.2922 21.5625 12.81C20.9698 13.5949 20.268 14.2871 19.6872 15.0581C19.4983 15.3101 19.3238 15.6433 19.0624 15.8077C18.7241 16.0193 18.0778 16.0439 17.6872 15.8707C17.2778 15.6867 17.0472 15.1816 16.7499 14.871C16.0261 14.1101 14.0457 11.8532 13.8126 11.6863V14.0591C13.8126 14.0591 15.6646 16.6095 15.6872 17.1809C15.1411 17.7188 14.8054 18.5314 14.3751 19.1795C14.2271 19.4019 13.9002 19.6708 13.8126 19.9285V21.6771C14.7487 22.1974 15.9764 22.4531 17.1877 22.7384C17.9342 22.9148 18.7272 22.8323 19.4378 22.9904C20.3247 23.185 21.5543 22.6377 21.5625 23.74L21.3735 23.866C21.0542 24.1091 19.8132 23.9189 19.2488 23.866C18.0413 23.7519 16.6813 23.6833 15.5613 23.3664C14.9754 23.2008 14.3852 22.9488 13.8113 22.8046V23.5535C15.6772 24.6458 18.5326 24.8316 21.3704 24.9273C22.2321 24.9563 23.5172 25.1163 24.3707 24.9273H25.7458C26.3959 24.7837 27.2482 24.8196 27.8706 24.6754C29.0775 24.4001 30.1074 24.4234 31.1203 24.0505C31.4315 23.9359 32.0192 23.8615 32.183 23.6134V22.7384H32.12C31.3609 23.4446 28.2006 23.6455 26.8072 23.8628C26.2283 23.9529 24.5805 24.0518 24.4324 23.7368V23.2997C24.5477 23.2294 24.6535 23.1447 24.7474 23.0477C26.7531 23.0962 28.8356 22.8304 30.435 22.3611C30.8759 22.2307 31.9896 22.033 32.1849 21.7363V19.8661C31.8932 19.6356 31.7704 19.2457 31.56 18.9295C31.1707 18.3449 30.3915 17.6886 30.3102 16.8691C30.8772 16.2801 31.228 15.4323 31.6847 14.7457C31.8107 14.5605 32.1036 14.3243 32.1849 14.1215V11.6863H32.1219C31.5235 12.6941 30.4444 13.387 29.7471 14.3085C29.3937 14.7835 28.9402 15.4915 28.4375 15.8077C28.0652 16.0414 27.3099 16.042 26.9376 15.8077C26.5534 15.5652 26.2731 15.048 25.9997 14.6833C25.4076 13.8934 24.5924 13.2264 23.9997 12.4352C23.708 12.0459 23.3843 11.4034 22.9376 11.1868ZM18.1874 11.2498C18.1874 11.2498 17.0472 12.7388 16.7499 13.6219C17.3717 14.0471 17.5524 15.0531 18.5622 15.0581C18.9276 14.495 19.6438 14.0156 19.875 13.3719H19.812C19.7143 13.0727 18.1874 11.2491 18.1874 11.2491V11.2498ZM27.7502 11.2498C27.5424 11.6699 26.4198 13.1338 26.0627 13.3725V13.4355H26.1257C26.3953 13.9111 27.2274 15.0638 27.938 15.0594C28.3291 14.4673 29.1298 13.998 29.3754 13.3108C28.8022 12.8894 28.3606 11.4967 27.7502 11.2491V11.2498ZM22.8123 14.6833C22.9809 14.6845 23.1488 14.7056 23.3124 14.7463C23.7433 15.6206 25.2652 17.1519 25.3124 18.1181C24.7682 18.6718 24.3046 19.536 23.875 20.1792C23.6702 20.4859 23.5468 20.9716 23.1877 21.1158C23.034 21.2191 22.8595 21.1542 22.6876 21.1158C22.2567 20.2415 20.7348 18.7103 20.6876 17.744C21.5443 16.8817 22.0041 15.5891 22.8123 14.6833ZM13.3124 15.0613C13.0661 15.5727 12.4608 16.551 12.0627 16.9289C12.1017 17.0385 12.0746 16.9919 12.1257 17.0549C12.3398 17.7478 12.983 18.2907 13.3131 18.9282L13.4391 18.8652C13.754 18.2 14.5294 17.6608 14.6265 16.8672C14.0633 16.4168 13.9014 15.4764 13.3124 15.0581V15.0613ZM32.5622 15.0613C32.3537 15.8442 31.5783 16.3211 31.3124 17.0593C31.7924 17.4152 32.2315 18.7884 32.7499 18.9326C32.9647 18.1421 33.8296 17.732 33.9373 16.8722C33.5039 16.5138 33.0567 15.1954 32.5622 15.0581V15.0613ZM22.9376 15.9948C22.6913 16.5094 22.086 17.4883 21.6872 17.8681C21.7269 17.9777 21.6998 17.9311 21.7502 17.9941C21.9644 18.6869 22.6076 19.2299 22.9376 19.8674C23.0472 19.8283 23.0006 19.8554 23.0636 19.8044C23.5713 19.2935 23.795 18.4929 24.314 17.9934C24.2743 17.8838 24.3014 17.9304 24.251 17.8674C24.1553 17.5487 23.1984 16.0968 22.9376 15.9948ZM22.8117 23.1126C22.9803 23.1138 23.1482 23.1349 23.3118 23.1756L23.3748 23.3646C23.5443 23.5945 23.3956 23.8515 23.1858 23.9264C22.9553 24.0952 22.6983 23.9472 22.6233 23.7375C22.5194 23.5838 22.5849 23.4093 22.6233 23.2373C22.6928 23.2067 22.7566 23.1648 22.8123 23.1132L22.8117 23.1126Z" fill="black"/>
</svg>
