<svg width="52" height="52" viewBox="0 0 52 52" fill="none" xmlns="http://www.w3.org/2000/svg">
<path d="M26 0C11.6415 0 0 11.6415 0 26C0 40.3585 11.6415 52 26 52C40.3585 52 52 40.3585 52 26C52 11.6415 40.3585 0 26 0ZM10.8333 41.4722C13.3618 33.8888 20.9452 36.8485 22.2083 32.7405V30.0018C21.6407 29.6963 20.0135 27.599 19.8423 25.961C19.3938 25.922 18.6918 25.4778 18.4838 23.7207C18.3733 22.7782 18.8153 22.2473 19.0818 22.0805C19.0818 22.0805 18.4145 20.5595 18.4145 19.0493C18.4167 14.56 20.6397 10.8333 26 10.8333C28.8947 10.8333 29.7917 12.8852 29.7917 12.8852C32.3787 12.8852 33.5833 15.7213 33.5833 19.0472C33.5833 20.7047 32.916 22.0783 32.916 22.0783C33.1847 22.2452 33.6267 22.776 33.5162 23.7185C33.3082 25.4757 32.6062 25.9198 32.1577 25.9588C31.9865 27.5968 30.3615 29.6942 29.7917 29.9997V32.7383C31.0548 36.8485 38.6382 33.8888 41.1667 41.4722C41.1667 41.4722 35.4943 47.6667 26 47.6667C16.4515 47.6667 10.8333 41.4722 10.8333 41.4722Z" fill="white"/>
</svg>
