<svg width="170" height="34" viewBox="0 0 170 34" fill="none" xmlns="http://www.w3.org/2000/svg">
<rect width="170" height="34" rx="5" fill="black"/>
<path d="M49.248 19.4365C49.248 19.2314 49.2161 19.0492 49.1523 18.8896C49.0931 18.7301 48.986 18.5843 48.8311 18.4521C48.6761 18.32 48.4574 18.1924 48.1748 18.0693C47.8968 17.9417 47.5413 17.8118 47.1084 17.6797C46.6344 17.5339 46.1969 17.3721 45.7959 17.1943C45.3994 17.012 45.0531 16.8024 44.7568 16.5654C44.4606 16.3239 44.2305 16.0482 44.0664 15.7383C43.9023 15.4238 43.8203 15.0615 43.8203 14.6514C43.8203 14.2458 43.9046 13.8766 44.0732 13.5439C44.2464 13.2113 44.4902 12.9242 44.8047 12.6826C45.1237 12.4365 45.4997 12.2474 45.9326 12.1152C46.3656 11.9785 46.8441 11.9102 47.3682 11.9102C48.1064 11.9102 48.7422 12.0469 49.2754 12.3203C49.8132 12.5938 50.2256 12.9606 50.5127 13.4209C50.8044 13.8812 50.9502 14.3893 50.9502 14.9453H49.248C49.248 14.6172 49.1774 14.3278 49.0361 14.0771C48.8994 13.8219 48.6898 13.6214 48.4072 13.4756C48.1292 13.3298 47.776 13.2568 47.3477 13.2568C46.9421 13.2568 46.6048 13.3184 46.3359 13.4414C46.0671 13.5645 45.8665 13.7308 45.7344 13.9404C45.6022 14.1501 45.5361 14.387 45.5361 14.6514C45.5361 14.8382 45.5794 15.0091 45.666 15.1641C45.7526 15.3145 45.8848 15.4557 46.0625 15.5879C46.2402 15.7155 46.4635 15.8363 46.7324 15.9502C47.0013 16.0641 47.318 16.1735 47.6826 16.2783C48.234 16.4424 48.7148 16.6247 49.125 16.8252C49.5352 17.0212 49.877 17.2445 50.1504 17.4951C50.4238 17.7458 50.6289 18.0306 50.7656 18.3496C50.9023 18.6641 50.9707 19.0218 50.9707 19.4229C50.9707 19.8421 50.8864 20.2204 50.7178 20.5576C50.5492 20.8903 50.3076 21.1751 49.9932 21.4121C49.6833 21.6445 49.3096 21.8245 48.8721 21.9521C48.4391 22.0752 47.9561 22.1367 47.4229 22.1367C46.9443 22.1367 46.4727 22.0729 46.0078 21.9453C45.5475 21.8177 45.1283 21.624 44.75 21.3643C44.3717 21.0999 44.071 20.7718 43.8477 20.3799C43.6243 19.9834 43.5127 19.5208 43.5127 18.9922H45.2285C45.2285 19.3158 45.2832 19.5915 45.3926 19.8193C45.5065 20.0472 45.6637 20.234 45.8643 20.3799C46.0648 20.5212 46.2972 20.626 46.5615 20.6943C46.8304 20.7627 47.1175 20.7969 47.4229 20.7969C47.8239 20.7969 48.1589 20.7399 48.4277 20.626C48.7012 20.512 48.9062 20.3525 49.043 20.1475C49.1797 19.9424 49.248 19.7054 49.248 19.4365ZM53.8879 14.6035V22H52.2336V14.6035H53.8879ZM52.1242 12.6621C52.1242 12.4115 52.2063 12.2041 52.3703 12.04C52.5389 11.8714 52.7714 11.7871 53.0676 11.7871C53.3592 11.7871 53.5894 11.8714 53.758 12.04C53.9266 12.2041 54.0109 12.4115 54.0109 12.6621C54.0109 12.9082 53.9266 13.1133 53.758 13.2773C53.5894 13.4414 53.3592 13.5234 53.0676 13.5234C52.7714 13.5234 52.5389 13.4414 52.3703 13.2773C52.2063 13.1133 52.1242 12.9082 52.1242 12.6621ZM60.2299 14.6035H61.727V21.7949C61.727 22.4603 61.5857 23.0254 61.3031 23.4902C61.0206 23.9551 60.6264 24.3083 60.1205 24.5498C59.6146 24.7959 59.029 24.9189 58.3637 24.9189C58.0811 24.9189 57.7667 24.8779 57.4203 24.7959C57.0785 24.7139 56.7458 24.5817 56.4223 24.3994C56.1033 24.2217 55.8367 23.987 55.6225 23.6953L56.3949 22.7246C56.6592 23.0391 56.9509 23.2692 57.2699 23.415C57.5889 23.5609 57.9239 23.6338 58.2748 23.6338C58.6531 23.6338 58.9743 23.5632 59.2387 23.4219C59.5076 23.2852 59.7149 23.0824 59.8607 22.8135C60.0066 22.5446 60.0795 22.2165 60.0795 21.8291V16.2783L60.2299 14.6035ZM55.2055 18.3838V18.2402C55.2055 17.6797 55.2738 17.1693 55.4105 16.709C55.5473 16.2441 55.7432 15.8454 55.9984 15.5127C56.2536 15.1755 56.5635 14.918 56.9281 14.7402C57.2927 14.5579 57.7051 14.4668 58.1654 14.4668C58.6439 14.4668 59.0518 14.5534 59.3891 14.7266C59.7309 14.8997 60.0157 15.1481 60.2436 15.4717C60.4714 15.7907 60.6492 16.1735 60.7768 16.6201C60.9089 17.0622 61.0069 17.5544 61.0707 18.0967V18.5547C61.0115 19.0833 60.9112 19.5664 60.7699 20.0039C60.6286 20.4414 60.4418 20.8197 60.2094 21.1387C59.977 21.4577 59.6898 21.7038 59.348 21.877C59.0108 22.0501 58.612 22.1367 58.1518 22.1367C57.7006 22.1367 57.2927 22.0433 56.9281 21.8564C56.5681 21.6696 56.2582 21.4076 55.9984 21.0703C55.7432 20.7331 55.5473 20.3366 55.4105 19.8809C55.2738 19.4206 55.2055 18.9215 55.2055 18.3838ZM56.8529 18.2402V18.3838C56.8529 18.721 56.8848 19.0355 56.9486 19.3271C57.017 19.6188 57.1195 19.8763 57.2563 20.0996C57.3975 20.3184 57.5753 20.4915 57.7895 20.6191C58.0082 20.7422 58.2657 20.8037 58.5619 20.8037C58.9493 20.8037 59.266 20.7217 59.5121 20.5576C59.7628 20.3936 59.9542 20.1725 60.0863 19.8945C60.223 19.612 60.3188 19.2975 60.3734 18.9512V17.7139C60.3461 17.445 60.2891 17.1943 60.2025 16.9619C60.1205 16.7295 60.0089 16.5267 59.8676 16.3535C59.7263 16.1758 59.5486 16.0391 59.3344 15.9434C59.1202 15.8431 58.8673 15.793 58.5756 15.793C58.2794 15.793 58.0219 15.8568 57.8031 15.9844C57.5844 16.112 57.4044 16.2874 57.2631 16.5107C57.1264 16.734 57.0238 16.9938 56.9555 17.29C56.8871 17.5863 56.8529 17.903 56.8529 18.2402ZM64.8697 16.1826V22H63.2223V14.6035H64.774L64.8697 16.1826ZM64.5758 18.0283L64.0426 18.0215C64.0471 17.4974 64.1201 17.0166 64.2613 16.5791C64.4072 16.1416 64.6077 15.7656 64.8629 15.4512C65.1227 15.1367 65.4326 14.8952 65.7926 14.7266C66.1526 14.5534 66.5536 14.4668 66.9957 14.4668C67.3512 14.4668 67.6725 14.5169 67.9596 14.6172C68.2512 14.7129 68.4996 14.8701 68.7047 15.0889C68.9143 15.3076 69.0738 15.5924 69.1832 15.9434C69.2926 16.2897 69.3473 16.7158 69.3473 17.2217V22H67.693V17.2148C67.693 16.8594 67.6406 16.5791 67.5357 16.374C67.4355 16.1644 67.2874 16.0163 67.0914 15.9297C66.9 15.8385 66.6607 15.793 66.3736 15.793C66.0911 15.793 65.8382 15.8522 65.6148 15.9707C65.3915 16.0892 65.2024 16.251 65.0475 16.4561C64.8971 16.6611 64.7809 16.8981 64.6988 17.167C64.6168 17.4359 64.5758 17.723 64.5758 18.0283ZM75.8789 14.6035V22H74.2246V14.6035H75.8789ZM74.1152 12.6621C74.1152 12.4115 74.1973 12.2041 74.3613 12.04C74.5299 11.8714 74.7624 11.7871 75.0586 11.7871C75.3503 11.7871 75.5804 11.8714 75.749 12.04C75.9176 12.2041 76.002 12.4115 76.002 12.6621C76.002 12.9082 75.9176 13.1133 75.749 13.2773C75.5804 13.4414 75.3503 13.5234 75.0586 13.5234C74.7624 13.5234 74.5299 13.4414 74.3613 13.2773C74.1973 13.1133 74.1152 12.9082 74.1152 12.6621ZM79.1174 16.1826V22H77.4699V14.6035H79.0217L79.1174 16.1826ZM78.8234 18.0283L78.2902 18.0215C78.2948 17.4974 78.3677 17.0166 78.509 16.5791C78.6548 16.1416 78.8553 15.7656 79.1105 15.4512C79.3703 15.1367 79.6802 14.8952 80.0402 14.7266C80.4003 14.5534 80.8013 14.4668 81.2434 14.4668C81.5988 14.4668 81.9201 14.5169 82.2072 14.6172C82.4989 14.7129 82.7473 14.8701 82.9523 15.0889C83.162 15.3076 83.3215 15.5924 83.4309 15.9434C83.5402 16.2897 83.5949 16.7158 83.5949 17.2217V22H81.9406V17.2148C81.9406 16.8594 81.8882 16.5791 81.7834 16.374C81.6831 16.1644 81.535 16.0163 81.3391 15.9297C81.1477 15.8385 80.9084 15.793 80.6213 15.793C80.3387 15.793 80.0858 15.8522 79.8625 15.9707C79.6392 16.0892 79.4501 16.251 79.2951 16.4561C79.1447 16.6611 79.0285 16.8981 78.9465 17.167C78.8645 17.4359 78.8234 17.723 78.8234 18.0283ZM90.3727 20.3594L92.0816 14.6035H93.1344L92.8473 16.3262L91.1246 22H90.1813L90.3727 20.3594ZM89.3678 14.6035L90.7008 20.3867L90.8102 22H89.7574L87.7545 14.6035H89.3678ZM94.734 20.3184L96.026 14.6035H97.6324L95.6363 22H94.5836L94.734 20.3184ZM93.3121 14.6035L95.0006 20.291L95.2125 22H94.2691L92.526 16.3193L92.2389 14.6035H93.3121ZM100.317 14.6035V22H98.6629V14.6035H100.317ZM98.5535 12.6621C98.5535 12.4115 98.6355 12.2041 98.7996 12.04C98.9682 11.8714 99.2007 11.7871 99.4969 11.7871C99.7885 11.7871 100.019 11.8714 100.187 12.04C100.356 12.2041 100.44 12.4115 100.44 12.6621C100.44 12.9082 100.356 13.1133 100.187 13.2773C100.019 13.4414 99.7885 13.5234 99.4969 13.5234C99.2007 13.5234 98.9682 13.4414 98.7996 13.2773C98.6355 13.1133 98.5535 12.9082 98.5535 12.6621ZM105.312 14.6035V15.8066H101.143V14.6035H105.312ZM102.346 12.792H103.993V19.9561C103.993 20.1839 104.025 20.3594 104.089 20.4824C104.157 20.6009 104.251 20.6807 104.369 20.7217C104.488 20.7627 104.627 20.7832 104.786 20.7832C104.9 20.7832 105.009 20.7764 105.114 20.7627C105.219 20.749 105.303 20.7354 105.367 20.7217L105.374 21.9795C105.237 22.0205 105.078 22.057 104.896 22.0889C104.718 22.1208 104.513 22.1367 104.28 22.1367C103.902 22.1367 103.567 22.0706 103.275 21.9385C102.984 21.8018 102.756 21.5807 102.592 21.2754C102.428 20.9701 102.346 20.5645 102.346 20.0586V12.792ZM108.011 11.5V22H106.37V11.5H108.011ZM107.724 18.0283L107.191 18.0215C107.195 17.5111 107.266 17.0394 107.403 16.6064C107.544 16.1735 107.74 15.7975 107.99 15.4785C108.246 15.1549 108.551 14.9066 108.906 14.7334C109.262 14.5557 109.656 14.4668 110.089 14.4668C110.454 14.4668 110.782 14.5169 111.073 14.6172C111.37 14.7174 111.625 14.8792 111.839 15.1025C112.053 15.3213 112.215 15.6084 112.324 15.9639C112.438 16.3148 112.495 16.7432 112.495 17.249V22H110.841V17.2354C110.841 16.8799 110.789 16.5973 110.684 16.3877C110.584 16.1781 110.435 16.0277 110.239 15.9365C110.043 15.8408 109.804 15.793 109.522 15.793C109.225 15.793 108.963 15.8522 108.736 15.9707C108.512 16.0892 108.325 16.251 108.175 16.4561C108.025 16.6611 107.911 16.8981 107.833 17.167C107.76 17.4359 107.724 17.723 107.724 18.0283ZM121.29 13.373L118.316 22H116.518L120.264 12.0469H121.413L121.29 13.373ZM123.778 22L120.797 13.373L120.668 12.0469H121.823L125.583 22H123.778ZM123.634 18.3086V19.6689H118.22V18.3086H123.634ZM127.864 16.0254V24.8438H126.217V14.6035H127.734L127.864 16.0254ZM132.683 18.2334V18.377C132.683 18.9147 132.62 19.4137 132.492 19.874C132.369 20.3298 132.184 20.7285 131.938 21.0703C131.697 21.4076 131.398 21.6696 131.043 21.8564C130.687 22.0433 130.277 22.1367 129.812 22.1367C129.352 22.1367 128.949 22.0524 128.602 21.8838C128.261 21.7106 127.971 21.4668 127.734 21.1523C127.497 20.8379 127.306 20.4688 127.16 20.0449C127.019 19.6165 126.918 19.1471 126.859 18.6367V18.083C126.918 17.5407 127.019 17.0485 127.16 16.6064C127.306 16.1644 127.497 15.7839 127.734 15.4648C127.971 15.1458 128.261 14.8997 128.602 14.7266C128.944 14.5534 129.343 14.4668 129.799 14.4668C130.263 14.4668 130.676 14.5579 131.036 14.7402C131.396 14.918 131.699 15.1732 131.945 15.5059C132.191 15.834 132.376 16.2305 132.499 16.6953C132.622 17.1556 132.683 17.6683 132.683 18.2334ZM131.036 18.377V18.2334C131.036 17.8916 131.004 17.5749 130.94 17.2832C130.876 16.987 130.776 16.7272 130.639 16.5039C130.503 16.2806 130.327 16.1074 130.113 15.9844C129.903 15.8568 129.651 15.793 129.354 15.793C129.063 15.793 128.812 15.8431 128.602 15.9434C128.393 16.0391 128.217 16.1735 128.076 16.3467C127.935 16.5199 127.825 16.7227 127.748 16.9551C127.67 17.1829 127.616 17.4313 127.584 17.7002V19.0264C127.638 19.3545 127.732 19.6553 127.864 19.9287C127.996 20.2021 128.183 20.4209 128.425 20.585C128.671 20.7445 128.985 20.8242 129.368 20.8242C129.664 20.8242 129.917 20.7604 130.127 20.6328C130.336 20.5052 130.507 20.3298 130.639 20.1064C130.776 19.8786 130.876 19.6165 130.94 19.3203C131.004 19.0241 131.036 18.7096 131.036 18.377ZM135.539 16.0254V24.8438H133.892V14.6035H135.409L135.539 16.0254ZM140.358 18.2334V18.377C140.358 18.9147 140.295 19.4137 140.167 19.874C140.044 20.3298 139.859 20.7285 139.613 21.0703C139.372 21.4076 139.073 21.6696 138.718 21.8564C138.362 22.0433 137.952 22.1367 137.487 22.1367C137.027 22.1367 136.624 22.0524 136.277 21.8838C135.936 21.7106 135.646 21.4668 135.409 21.1523C135.172 20.8379 134.981 20.4688 134.835 20.0449C134.694 19.6165 134.593 19.1471 134.534 18.6367V18.083C134.593 17.5407 134.694 17.0485 134.835 16.6064C134.981 16.1644 135.172 15.7839 135.409 15.4648C135.646 15.1458 135.936 14.8997 136.277 14.7266C136.619 14.5534 137.018 14.4668 137.474 14.4668C137.938 14.4668 138.351 14.5579 138.711 14.7402C139.071 14.918 139.374 15.1732 139.62 15.5059C139.866 15.834 140.051 16.2305 140.174 16.6953C140.297 17.1556 140.358 17.6683 140.358 18.2334ZM138.711 18.377V18.2334C138.711 17.8916 138.679 17.5749 138.615 17.2832C138.551 16.987 138.451 16.7272 138.314 16.5039C138.178 16.2806 138.002 16.1074 137.788 15.9844C137.578 15.8568 137.326 15.793 137.029 15.793C136.738 15.793 136.487 15.8431 136.277 15.9434C136.068 16.0391 135.892 16.1735 135.751 16.3467C135.61 16.5199 135.5 16.7227 135.423 16.9551C135.345 17.1829 135.291 17.4313 135.259 17.7002V19.0264C135.313 19.3545 135.407 19.6553 135.539 19.9287C135.671 20.2021 135.858 20.4209 136.1 20.585C136.346 20.7445 136.66 20.8242 137.043 20.8242C137.339 20.8242 137.592 20.7604 137.802 20.6328C138.011 20.5052 138.182 20.3298 138.314 20.1064C138.451 19.8786 138.551 19.6165 138.615 19.3203C138.679 19.0241 138.711 18.7096 138.711 18.377ZM143.323 11.5V22H141.669V11.5H143.323ZM148.189 22.1367C147.642 22.1367 147.148 22.0479 146.705 21.8701C146.268 21.6878 145.894 21.4349 145.584 21.1113C145.279 20.7878 145.044 20.4072 144.88 19.9697C144.716 19.5322 144.634 19.0605 144.634 18.5547V18.2812C144.634 17.7025 144.718 17.1784 144.887 16.709C145.056 16.2396 145.29 15.8385 145.591 15.5059C145.892 15.1686 146.247 14.9111 146.658 14.7334C147.068 14.5557 147.512 14.4668 147.991 14.4668C148.519 14.4668 148.982 14.5557 149.378 14.7334C149.775 14.9111 150.103 15.1618 150.363 15.4854C150.627 15.8044 150.823 16.1849 150.951 16.627C151.083 17.069 151.149 17.5566 151.149 18.0898V18.7939H145.434V17.6113H149.522V17.4814C149.513 17.1852 149.454 16.9072 149.344 16.6475C149.239 16.3877 149.078 16.1781 148.859 16.0186C148.64 15.859 148.348 15.7793 147.984 15.7793C147.71 15.7793 147.467 15.8385 147.252 15.957C147.043 16.071 146.867 16.2373 146.726 16.4561C146.585 16.6748 146.475 16.9391 146.398 17.249C146.325 17.5544 146.288 17.8984 146.288 18.2812V18.5547C146.288 18.8783 146.332 19.179 146.418 19.457C146.51 19.7305 146.642 19.9697 146.815 20.1748C146.988 20.3799 147.198 20.5417 147.444 20.6602C147.69 20.7741 147.97 20.8311 148.285 20.8311C148.681 20.8311 149.034 20.7513 149.344 20.5918C149.654 20.4323 149.923 20.2067 150.151 19.915L151.019 20.7559C150.859 20.9883 150.652 21.2116 150.397 21.4258C150.142 21.6354 149.829 21.8063 149.46 21.9385C149.096 22.0706 148.672 22.1367 148.189 22.1367Z" fill="white"/>
<path d="M26.9182 19.0482C26.7091 18.9599 26.5112 18.855 26.3417 18.7004C25.8613 18.2644 25.5391 17.74 25.46 17.0941C25.426 16.7905 25.426 16.4814 25.4995 16.1778C25.5956 15.7749 25.7934 15.4216 26.093 15.1235C26.2852 14.9358 26.483 14.7537 26.6751 14.566C26.7938 14.4501 26.8164 14.2789 26.7147 14.152C26.4999 13.887 26.2625 13.6386 25.9799 13.4344C25.6295 13.1749 25.2339 12.9983 24.8043 12.8989C24.4991 12.8327 24.1939 12.7941 23.8774 12.8217C23.3517 12.8713 22.8487 13.0149 22.3513 13.1805C21.9557 13.3074 21.5714 13.3461 21.1644 13.2301C20.6953 13.0921 20.2205 12.9652 19.7288 12.91C19.2258 12.8548 18.7397 12.8879 18.2649 13.0645C17.6714 13.2853 17.2136 13.6607 16.8463 14.163C16.575 14.5329 16.3715 14.9358 16.2358 15.3719C16.0776 15.8742 16.0041 16.3931 16.0041 16.6746C15.9815 17.4198 16.055 17.9166 16.1624 18.4079C16.2471 18.7832 16.3658 19.1476 16.5071 19.5064C16.8406 20.362 17.2758 21.1568 17.8693 21.8634C18.1858 22.2387 18.5475 22.5644 19.0053 22.7631C19.2992 22.8901 19.6044 22.9398 19.9153 22.8901C20.2431 22.8404 20.5596 22.7245 20.8705 22.6086C21.0683 22.5368 21.2661 22.4706 21.4753 22.4375C21.8087 22.3823 22.1253 22.443 22.4418 22.5368C22.7752 22.6362 23.0974 22.7521 23.4309 22.8404C23.9339 22.9729 24.3974 22.9122 24.8382 22.6472C25.3865 22.316 25.7934 21.8468 26.1495 21.3335C26.5451 20.7539 26.8786 20.1412 27.0934 19.4732C27.1612 19.2856 27.099 19.12 26.9182 19.0482Z" fill="white"/>
<path d="M22.6267 12.5898C22.6833 12.5843 22.7454 12.5788 22.8019 12.5733C23.2032 12.5401 23.5819 12.4573 23.921 12.2255C24.1754 12.0489 24.3958 11.8446 24.5936 11.6128C24.8367 11.3257 25.0402 11.0111 25.1645 10.6578C25.2549 10.4039 25.2832 10.1334 25.3114 9.86847C25.3284 9.70839 25.3284 9.55383 25.3397 9.39375C25.3567 9.14536 25.1815 8.94664 24.8989 9.01288C24.6162 9.07912 24.3393 9.16192 24.0737 9.28336C23.6724 9.46551 23.305 9.69735 23.0224 10.0396C22.5137 10.6523 22.2933 11.3699 22.248 12.1482C22.248 12.1924 22.248 12.231 22.248 12.2752C22.248 12.496 22.4007 12.6229 22.6267 12.5898Z" fill="white"/>
</svg>
