<svg width="170" height="34" viewBox="0 0 170 34" fill="none" xmlns="http://www.w3.org/2000/svg">
<rect width="170" height="34" rx="5" fill="#4285F4"/>
<rect x="1" y="1" width="32" height="32" rx="4" fill="white"/>
<path d="M46.8384 19.4365C46.8384 19.2314 46.8065 19.0492 46.7427 18.8896C46.6835 18.7301 46.5764 18.5843 46.4214 18.4521C46.2665 18.32 46.0477 18.1924 45.7652 18.0693C45.4872 17.9417 45.1317 17.8118 44.6988 17.6797C44.2248 17.5339 43.7873 17.3721 43.3863 17.1943C42.9898 17.012 42.6434 16.8024 42.3472 16.5654C42.051 16.3239 41.8209 16.0482 41.6568 15.7383C41.4927 15.4238 41.4107 15.0615 41.4107 14.6514C41.4107 14.2458 41.495 13.8766 41.6636 13.5439C41.8368 13.2113 42.0806 12.9242 42.3951 12.6826C42.7141 12.4365 43.0901 12.2474 43.523 12.1152C43.9559 11.9785 44.4345 11.9102 44.9585 11.9102C45.6968 11.9102 46.3326 12.0469 46.8658 12.3203C47.4035 12.5938 47.816 12.9606 48.1031 13.4209C48.3947 13.8812 48.5406 14.3893 48.5406 14.9453H46.8384C46.8384 14.6172 46.7678 14.3278 46.6265 14.0771C46.4898 13.8219 46.2802 13.6214 45.9976 13.4756C45.7196 13.3298 45.3664 13.2568 44.938 13.2568C44.5324 13.2568 44.1952 13.3184 43.9263 13.4414C43.6574 13.5645 43.4569 13.7308 43.3248 13.9404C43.1926 14.1501 43.1265 14.387 43.1265 14.6514C43.1265 14.8382 43.1698 15.0091 43.2564 15.1641C43.343 15.3145 43.4752 15.4557 43.6529 15.5879C43.8306 15.7155 44.0539 15.8363 44.3228 15.9502C44.5917 16.0641 44.9084 16.1735 45.273 16.2783C45.8244 16.4424 46.3052 16.6247 46.7154 16.8252C47.1255 17.0212 47.4673 17.2445 47.7408 17.4951C48.0142 17.7458 48.2193 18.0306 48.356 18.3496C48.4927 18.6641 48.5611 19.0218 48.5611 19.4229C48.5611 19.8421 48.4768 20.2204 48.3082 20.5576C48.1395 20.8903 47.898 21.1751 47.5835 21.4121C47.2737 21.6445 46.9 21.8245 46.4625 21.9521C46.0295 22.0752 45.5464 22.1367 45.0132 22.1367C44.5347 22.1367 44.063 22.0729 43.5982 21.9453C43.1379 21.8177 42.7186 21.624 42.3404 21.3643C41.9621 21.0999 41.6613 20.7718 41.438 20.3799C41.2147 19.9834 41.1031 19.5208 41.1031 18.9922H42.8189C42.8189 19.3158 42.8736 19.5915 42.983 19.8193C43.0969 20.0472 43.2541 20.234 43.4546 20.3799C43.6552 20.5212 43.8876 20.626 44.1519 20.6943C44.4208 20.7627 44.7079 20.7969 45.0132 20.7969C45.4143 20.7969 45.7492 20.7399 46.0181 20.626C46.2916 20.512 46.4966 20.3525 46.6334 20.1475C46.7701 19.9424 46.8384 19.7054 46.8384 19.4365ZM51.4783 14.6035V22H49.824V14.6035H51.4783ZM49.7146 12.6621C49.7146 12.4115 49.7966 12.2041 49.9607 12.04C50.1293 11.8714 50.3617 11.7871 50.658 11.7871C50.9496 11.7871 51.1798 11.8714 51.3484 12.04C51.517 12.2041 51.6013 12.4115 51.6013 12.6621C51.6013 12.9082 51.517 13.1133 51.3484 13.2773C51.1798 13.4414 50.9496 13.5234 50.658 13.5234C50.3617 13.5234 50.1293 13.4414 49.9607 13.2773C49.7966 13.1133 49.7146 12.9082 49.7146 12.6621ZM57.8203 14.6035H59.3173V21.7949C59.3173 22.4603 59.1761 23.0254 58.8935 23.4902C58.611 23.9551 58.2168 24.3083 57.7109 24.5498C57.205 24.7959 56.6194 24.9189 55.9541 24.9189C55.6715 24.9189 55.3571 24.8779 55.0107 24.7959C54.6689 24.7139 54.3362 24.5817 54.0127 24.3994C53.6936 24.2217 53.427 23.987 53.2128 23.6953L53.9853 22.7246C54.2496 23.0391 54.5413 23.2692 54.8603 23.415C55.1793 23.5609 55.5143 23.6338 55.8652 23.6338C56.2434 23.6338 56.5647 23.5632 56.8291 23.4219C57.0979 23.2852 57.3053 23.0824 57.4511 22.8135C57.597 22.5446 57.6699 22.2165 57.6699 21.8291V16.2783L57.8203 14.6035ZM52.7959 18.3838V18.2402C52.7959 17.6797 52.8642 17.1693 53.0009 16.709C53.1377 16.2441 53.3336 15.8454 53.5888 15.5127C53.844 15.1755 54.1539 14.918 54.5185 14.7402C54.8831 14.5579 55.2955 14.4668 55.7558 14.4668C56.2343 14.4668 56.6422 14.5534 56.9794 14.7266C57.3212 14.8997 57.6061 15.1481 57.8339 15.4717C58.0618 15.7907 58.2395 16.1735 58.3671 16.6201C58.4993 17.0622 58.5973 17.5544 58.6611 18.0967V18.5547C58.6018 19.0833 58.5016 19.5664 58.3603 20.0039C58.219 20.4414 58.0322 20.8197 57.7998 21.1387C57.5673 21.4577 57.2802 21.7038 56.9384 21.877C56.6012 22.0501 56.2024 22.1367 55.7421 22.1367C55.291 22.1367 54.8831 22.0433 54.5185 21.8564C54.1585 21.6696 53.8486 21.4076 53.5888 21.0703C53.3336 20.7331 53.1377 20.3366 53.0009 19.8809C52.8642 19.4206 52.7959 18.9215 52.7959 18.3838ZM54.4433 18.2402V18.3838C54.4433 18.721 54.4752 19.0355 54.539 19.3271C54.6074 19.6188 54.7099 19.8763 54.8466 20.0996C54.9879 20.3184 55.1656 20.4915 55.3798 20.6191C55.5986 20.7422 55.8561 20.8037 56.1523 20.8037C56.5397 20.8037 56.8564 20.7217 57.1025 20.5576C57.3531 20.3936 57.5446 20.1725 57.6767 19.8945C57.8134 19.612 57.9091 19.2975 57.9638 18.9512V17.7139C57.9365 17.445 57.8795 17.1943 57.7929 16.9619C57.7109 16.7295 57.5992 16.5267 57.458 16.3535C57.3167 16.1758 57.139 16.0391 56.9248 15.9434C56.7106 15.8431 56.4576 15.793 56.166 15.793C55.8697 15.793 55.6123 15.8568 55.3935 15.9844C55.1748 16.112 54.9947 16.2874 54.8535 16.5107C54.7168 16.734 54.6142 16.9938 54.5459 17.29C54.4775 17.5863 54.4433 17.903 54.4433 18.2402ZM62.4601 16.1826V22H60.8127V14.6035H62.3644L62.4601 16.1826ZM62.1662 18.0283L61.633 18.0215C61.6375 17.4974 61.7104 17.0166 61.8517 16.5791C61.9975 16.1416 62.1981 15.7656 62.4533 15.4512C62.713 15.1367 63.0229 14.8952 63.383 14.7266C63.743 14.5534 64.144 14.4668 64.5861 14.4668C64.9416 14.4668 65.2628 14.5169 65.55 14.6172C65.8416 14.7129 66.09 14.8701 66.2951 15.0889C66.5047 15.3076 66.6642 15.5924 66.7736 15.9434C66.883 16.2897 66.9377 16.7158 66.9377 17.2217V22H65.2834V17.2148C65.2834 16.8594 65.2309 16.5791 65.1261 16.374C65.0259 16.1644 64.8778 16.0163 64.6818 15.9297C64.4904 15.8385 64.2511 15.793 63.964 15.793C63.6815 15.793 63.4285 15.8522 63.2052 15.9707C62.9819 16.0892 62.7928 16.251 62.6378 16.4561C62.4875 16.6611 62.3712 16.8981 62.2892 17.167C62.2072 17.4359 62.1662 17.723 62.1662 18.0283ZM76.1558 20.2568V14.6035H77.8101V22H76.2515L76.1558 20.2568ZM76.3882 18.7188L76.9419 18.7051C76.9419 19.2018 76.8873 19.6598 76.7779 20.0791C76.6685 20.4938 76.4999 20.8561 76.272 21.166C76.0442 21.4714 75.7525 21.7106 75.397 21.8838C75.0416 22.0524 74.6155 22.1367 74.1187 22.1367C73.7587 22.1367 73.4283 22.0843 73.1275 21.9795C72.8267 21.8747 72.5669 21.7129 72.3482 21.4941C72.134 21.2754 71.9677 20.9906 71.8492 20.6396C71.7307 20.2887 71.6714 19.8695 71.6714 19.3818V14.6035H73.3189V19.3955C73.3189 19.6644 73.3508 19.89 73.4146 20.0723C73.4784 20.25 73.565 20.3936 73.6744 20.5029C73.7837 20.6123 73.9113 20.6898 74.0572 20.7354C74.203 20.7809 74.358 20.8037 74.522 20.8037C74.9914 20.8037 75.3606 20.7126 75.6294 20.5303C75.9029 20.3434 76.0966 20.0928 76.2105 19.7783C76.329 19.4639 76.3882 19.1107 76.3882 18.7188ZM80.9529 16.0254V24.8438H79.3054V14.6035H80.823L80.9529 16.0254ZM85.7722 18.2334V18.377C85.7722 18.9147 85.7084 19.4137 85.5808 19.874C85.4578 20.3298 85.2732 20.7285 85.0271 21.0703C84.7856 21.4076 84.4871 21.6696 84.1316 21.8564C83.7761 22.0433 83.366 22.1367 82.9011 22.1367C82.4408 22.1367 82.0375 22.0524 81.6912 21.8838C81.3494 21.7106 81.06 21.4668 80.823 21.1523C80.586 20.8379 80.3946 20.4688 80.2488 20.0449C80.1075 19.6165 80.0072 19.1471 79.948 18.6367V18.083C80.0072 17.5407 80.1075 17.0485 80.2488 16.6064C80.3946 16.1644 80.586 15.7839 80.823 15.4648C81.06 15.1458 81.3494 14.8997 81.6912 14.7266C82.033 14.5534 82.4317 14.4668 82.8875 14.4668C83.3523 14.4668 83.7647 14.5579 84.1248 14.7402C84.4848 14.918 84.7878 15.1732 85.0339 15.5059C85.28 15.834 85.4646 16.2305 85.5877 16.6953C85.7107 17.1556 85.7722 17.6683 85.7722 18.2334ZM84.1248 18.377V18.2334C84.1248 17.8916 84.0929 17.5749 84.0291 17.2832C83.9653 16.987 83.865 16.7272 83.7283 16.5039C83.5916 16.2806 83.4161 16.1074 83.2019 15.9844C82.9923 15.8568 82.7393 15.793 82.4431 15.793C82.1515 15.793 81.9008 15.8431 81.6912 15.9434C81.4815 16.0391 81.3061 16.1735 81.1648 16.3467C81.0235 16.5199 80.9141 16.7227 80.8367 16.9551C80.7592 17.1829 80.7045 17.4313 80.6726 17.7002V19.0264C80.7273 19.3545 80.8207 19.6553 80.9529 19.9287C81.085 20.2021 81.2719 20.4209 81.5134 20.585C81.7595 20.7445 82.074 20.8242 82.4568 20.8242C82.753 20.8242 83.0059 20.7604 83.2156 20.6328C83.4252 20.5052 83.5961 20.3298 83.7283 20.1064C83.865 19.8786 83.9653 19.6165 84.0291 19.3203C84.0929 19.0241 84.1248 18.7096 84.1248 18.377ZM92.2697 20.3594L93.9787 14.6035H95.0314L94.7443 16.3262L93.0216 22H92.0783L92.2697 20.3594ZM91.2648 14.6035L92.5978 20.3867L92.7072 22H91.6544L89.6515 14.6035H91.2648ZM96.631 20.3184L97.923 14.6035H99.5294L97.5334 22H96.4806L96.631 20.3184ZM95.2091 14.6035L96.8976 20.291L97.1095 22H96.1662L94.423 16.3193L94.1359 14.6035H95.2091ZM102.214 14.6035V22H100.56V14.6035H102.214ZM100.451 12.6621C100.451 12.4115 100.533 12.2041 100.697 12.04C100.865 11.8714 101.098 11.7871 101.394 11.7871C101.686 11.7871 101.916 11.8714 102.084 12.04C102.253 12.2041 102.337 12.4115 102.337 12.6621C102.337 12.9082 102.253 13.1133 102.084 13.2773C101.916 13.4414 101.686 13.5234 101.394 13.5234C101.098 13.5234 100.865 13.4414 100.697 13.2773C100.533 13.1133 100.451 12.9082 100.451 12.6621ZM107.21 14.6035V15.8066H103.04V14.6035H107.21ZM104.243 12.792H105.89V19.9561C105.89 20.1839 105.922 20.3594 105.986 20.4824C106.054 20.6009 106.148 20.6807 106.266 20.7217C106.385 20.7627 106.524 20.7832 106.683 20.7832C106.797 20.7832 106.906 20.7764 107.011 20.7627C107.116 20.749 107.2 20.7354 107.264 20.7217L107.271 21.9795C107.134 22.0205 106.975 22.057 106.793 22.0889C106.615 22.1208 106.41 22.1367 106.177 22.1367C105.799 22.1367 105.464 22.0706 105.172 21.9385C104.881 21.8018 104.653 21.5807 104.489 21.2754C104.325 20.9701 104.243 20.5645 104.243 20.0586V12.792ZM109.908 11.5V22H108.267V11.5H109.908ZM109.621 18.0283L109.088 18.0215C109.092 17.5111 109.163 17.0394 109.3 16.6064C109.441 16.1735 109.637 15.7975 109.887 15.4785C110.143 15.1549 110.448 14.9066 110.803 14.7334C111.159 14.5557 111.553 14.4668 111.986 14.4668C112.351 14.4668 112.679 14.5169 112.97 14.6172C113.267 14.7174 113.522 14.8792 113.736 15.1025C113.95 15.3213 114.112 15.6084 114.221 15.9639C114.335 16.3148 114.392 16.7432 114.392 17.249V22H112.738V17.2354C112.738 16.8799 112.686 16.5973 112.581 16.3877C112.481 16.1781 112.332 16.0277 112.136 15.9365C111.941 15.8408 111.701 15.793 111.419 15.793C111.122 15.793 110.86 15.8522 110.633 15.9707C110.409 16.0892 110.222 16.251 110.072 16.4561C109.922 16.6611 109.808 16.8981 109.73 17.167C109.657 17.4359 109.621 17.723 109.621 18.0283ZM126.953 16.9141V20.7148C126.812 20.9017 126.591 21.1068 126.29 21.3301C125.994 21.5488 125.6 21.738 125.108 21.8975C124.615 22.057 124.002 22.1367 123.269 22.1367C122.644 22.1367 122.072 22.0319 121.553 21.8223C121.033 21.6081 120.584 21.2959 120.206 20.8857C119.833 20.4756 119.543 19.9766 119.338 19.3887C119.133 18.7962 119.03 18.1217 119.03 17.3652V16.6748C119.03 15.9229 119.124 15.2529 119.311 14.665C119.502 14.0726 119.776 13.5713 120.131 13.1611C120.486 12.751 120.915 12.4411 121.416 12.2314C121.922 12.0173 122.494 11.9102 123.132 11.9102C123.948 11.9102 124.622 12.0469 125.155 12.3203C125.693 12.5892 126.108 12.9629 126.4 13.4414C126.691 13.9199 126.876 14.4668 126.953 15.082H125.272C125.217 14.7357 125.11 14.4258 124.95 14.1523C124.795 13.8789 124.572 13.6647 124.28 13.5098C123.993 13.3503 123.62 13.2705 123.159 13.2705C122.763 13.2705 122.414 13.3457 122.113 13.4961C121.813 13.6465 121.562 13.8675 121.361 14.1592C121.166 14.4508 121.017 14.8063 120.917 15.2256C120.817 15.6449 120.767 16.1234 120.767 16.6611V17.3652C120.767 17.9121 120.824 18.3975 120.938 18.8213C121.056 19.2451 121.225 19.6029 121.444 19.8945C121.667 20.1862 121.938 20.4072 122.257 20.5576C122.576 20.7035 122.936 20.7764 123.337 20.7764C123.729 20.7764 124.05 20.7445 124.301 20.6807C124.552 20.6123 124.75 20.5326 124.896 20.4414C125.046 20.3457 125.162 20.2546 125.244 20.168V18.1924H123.173V16.9141H126.953ZM128.175 18.3838V18.2266C128.175 17.6934 128.253 17.1989 128.408 16.7432C128.563 16.2829 128.786 15.8841 129.077 15.5469C129.374 15.2051 129.734 14.9408 130.158 14.7539C130.586 14.5625 131.069 14.4668 131.607 14.4668C132.149 14.4668 132.632 14.5625 133.056 14.7539C133.484 14.9408 133.847 15.2051 134.143 15.5469C134.439 15.8841 134.665 16.2829 134.82 16.7432C134.975 17.1989 135.052 17.6934 135.052 18.2266V18.3838C135.052 18.917 134.975 19.4115 134.82 19.8672C134.665 20.3229 134.439 20.7217 134.143 21.0635C133.847 21.4007 133.487 21.665 133.063 21.8564C132.639 22.0433 132.158 22.1367 131.62 22.1367C131.078 22.1367 130.593 22.0433 130.164 21.8564C129.741 21.665 129.381 21.4007 129.084 21.0635C128.788 20.7217 128.563 20.3229 128.408 19.8672C128.253 19.4115 128.175 18.917 128.175 18.3838ZM129.823 18.2266V18.3838C129.823 18.7165 129.857 19.0309 129.925 19.3271C129.994 19.6234 130.101 19.8831 130.246 20.1064C130.392 20.3298 130.579 20.5052 130.807 20.6328C131.035 20.7604 131.306 20.8242 131.62 20.8242C131.926 20.8242 132.19 20.7604 132.413 20.6328C132.641 20.5052 132.828 20.3298 132.974 20.1064C133.12 19.8831 133.227 19.6234 133.295 19.3271C133.368 19.0309 133.405 18.7165 133.405 18.3838V18.2266C133.405 17.8984 133.368 17.5885 133.295 17.2969C133.227 17.0007 133.118 16.7386 132.967 16.5107C132.821 16.2829 132.634 16.1051 132.407 15.9775C132.183 15.8454 131.917 15.7793 131.607 15.7793C131.297 15.7793 131.028 15.8454 130.8 15.9775C130.577 16.1051 130.392 16.2829 130.246 16.5107C130.101 16.7386 129.994 17.0007 129.925 17.2969C129.857 17.5885 129.823 17.8984 129.823 18.2266ZM135.919 18.3838V18.2266C135.919 17.6934 135.996 17.1989 136.151 16.7432C136.306 16.2829 136.529 15.8841 136.821 15.5469C137.117 15.2051 137.477 14.9408 137.901 14.7539C138.329 14.5625 138.812 14.4668 139.35 14.4668C139.892 14.4668 140.376 14.5625 140.799 14.7539C141.228 14.9408 141.59 15.2051 141.886 15.5469C142.183 15.8841 142.408 16.2829 142.563 16.7432C142.718 17.1989 142.795 17.6934 142.795 18.2266V18.3838C142.795 18.917 142.718 19.4115 142.563 19.8672C142.408 20.3229 142.183 20.7217 141.886 21.0635C141.59 21.4007 141.23 21.665 140.806 21.8564C140.382 22.0433 139.902 22.1367 139.364 22.1367C138.822 22.1367 138.336 22.0433 137.908 21.8564C137.484 21.665 137.124 21.4007 136.828 21.0635C136.531 20.7217 136.306 20.3229 136.151 19.8672C135.996 19.4115 135.919 18.917 135.919 18.3838ZM137.566 18.2266V18.3838C137.566 18.7165 137.6 19.0309 137.669 19.3271C137.737 19.6234 137.844 19.8831 137.99 20.1064C138.136 20.3298 138.322 20.5052 138.55 20.6328C138.778 20.7604 139.049 20.8242 139.364 20.8242C139.669 20.8242 139.933 20.7604 140.157 20.6328C140.385 20.5052 140.572 20.3298 140.717 20.1064C140.863 19.8831 140.97 19.6234 141.039 19.3271C141.112 19.0309 141.148 18.7165 141.148 18.3838V18.2266C141.148 17.8984 141.112 17.5885 141.039 17.2969C140.97 17.0007 140.861 16.7386 140.711 16.5107C140.565 16.2829 140.378 16.1051 140.15 15.9775C139.927 15.8454 139.66 15.7793 139.35 15.7793C139.04 15.7793 138.771 15.8454 138.544 15.9775C138.32 16.1051 138.136 16.2829 137.99 16.5107C137.844 16.7386 137.737 17.0007 137.669 17.2969C137.6 17.5885 137.566 17.8984 137.566 18.2266ZM148.714 14.6035H150.211V21.7949C150.211 22.4603 150.069 23.0254 149.787 23.4902C149.504 23.9551 149.11 24.3083 148.604 24.5498C148.098 24.7959 147.513 24.9189 146.847 24.9189C146.565 24.9189 146.25 24.8779 145.904 24.7959C145.562 24.7139 145.23 24.5817 144.906 24.3994C144.587 24.2217 144.32 23.987 144.106 23.6953L144.879 22.7246C145.143 23.0391 145.435 23.2692 145.754 23.415C146.073 23.5609 146.408 23.6338 146.759 23.6338C147.137 23.6338 147.458 23.5632 147.722 23.4219C147.991 23.2852 148.199 23.0824 148.344 22.8135C148.49 22.5446 148.563 22.2165 148.563 21.8291V16.2783L148.714 14.6035ZM143.689 18.3838V18.2402C143.689 17.6797 143.758 17.1693 143.894 16.709C144.031 16.2441 144.227 15.8454 144.482 15.5127C144.737 15.1755 145.047 14.918 145.412 14.7402C145.776 14.5579 146.189 14.4668 146.649 14.4668C147.128 14.4668 147.536 14.5534 147.873 14.7266C148.215 14.8997 148.499 15.1481 148.727 15.4717C148.955 15.7907 149.133 16.1735 149.261 16.6201C149.393 17.0622 149.491 17.5544 149.554 18.0967V18.5547C149.495 19.0833 149.395 19.5664 149.254 20.0039C149.112 20.4414 148.926 20.8197 148.693 21.1387C148.461 21.4577 148.174 21.7038 147.832 21.877C147.495 22.0501 147.096 22.1367 146.636 22.1367C146.184 22.1367 145.776 22.0433 145.412 21.8564C145.052 21.6696 144.742 21.4076 144.482 21.0703C144.227 20.7331 144.031 20.3366 143.894 19.8809C143.758 19.4206 143.689 18.9215 143.689 18.3838ZM145.337 18.2402V18.3838C145.337 18.721 145.369 19.0355 145.432 19.3271C145.501 19.6188 145.603 19.8763 145.74 20.0996C145.881 20.3184 146.059 20.4915 146.273 20.6191C146.492 20.7422 146.749 20.8037 147.046 20.8037C147.433 20.8037 147.75 20.7217 147.996 20.5576C148.247 20.3936 148.438 20.1725 148.57 19.8945C148.707 19.612 148.802 19.2975 148.857 18.9512V17.7139C148.83 17.445 148.773 17.1943 148.686 16.9619C148.604 16.7295 148.493 16.5267 148.351 16.3535C148.21 16.1758 148.032 16.0391 147.818 15.9434C147.604 15.8431 147.351 15.793 147.059 15.793C146.763 15.793 146.506 15.8568 146.287 15.9844C146.068 16.112 145.888 16.2874 145.747 16.5107C145.61 16.734 145.508 16.9938 145.439 17.29C145.371 17.5863 145.337 17.903 145.337 18.2402ZM153.483 11.5V22H151.829V11.5H153.483ZM158.349 22.1367C157.802 22.1367 157.307 22.0479 156.865 21.8701C156.428 21.6878 156.054 21.4349 155.744 21.1113C155.439 20.7878 155.204 20.4072 155.04 19.9697C154.876 19.5322 154.794 19.0605 154.794 18.5547V18.2812C154.794 17.7025 154.878 17.1784 155.047 16.709C155.216 16.2396 155.45 15.8385 155.751 15.5059C156.052 15.1686 156.407 14.9111 156.818 14.7334C157.228 14.5557 157.672 14.4668 158.151 14.4668C158.679 14.4668 159.142 14.5557 159.538 14.7334C159.935 14.9111 160.263 15.1618 160.523 15.4854C160.787 15.8044 160.983 16.1849 161.111 16.627C161.243 17.069 161.309 17.5566 161.309 18.0898V18.7939H155.594V17.6113H159.682V17.4814C159.673 17.1852 159.613 16.9072 159.504 16.6475C159.399 16.3877 159.237 16.1781 159.019 16.0186C158.8 15.859 158.508 15.7793 158.144 15.7793C157.87 15.7793 157.626 15.8385 157.412 15.957C157.203 16.071 157.027 16.2373 156.886 16.4561C156.745 16.6748 156.635 16.9391 156.558 17.249C156.485 17.5544 156.448 17.8984 156.448 18.2812V18.5547C156.448 18.8783 156.492 19.179 156.578 19.457C156.669 19.7305 156.802 19.9697 156.975 20.1748C157.148 20.3799 157.358 20.5417 157.604 20.6602C157.85 20.7741 158.13 20.8311 158.444 20.8311C158.841 20.8311 159.194 20.7513 159.504 20.5918C159.814 20.4323 160.083 20.2067 160.311 19.915L161.179 20.7559C161.019 20.9883 160.812 21.2116 160.557 21.4258C160.302 21.6354 159.989 21.8063 159.62 21.9385C159.256 22.0706 158.832 22.1367 158.349 22.1367Z" fill="white"/>
<path fill-rule="evenodd" clip-rule="evenodd" d="M23.6236 17.1085C23.6236 16.6156 23.5794 16.1417 23.4973 15.6868H16.9512V18.3753H20.6918C20.5307 19.2442 20.041 19.9803 19.3049 20.4731V22.2171H21.5511C22.8654 21.0071 23.6236 19.2252 23.6236 17.1085Z" fill="#4285F4"/>
<path fill-rule="evenodd" clip-rule="evenodd" d="M16.9495 23.901C18.8261 23.901 20.3995 23.2786 21.5495 22.2171L19.3032 20.4731C18.6808 20.8902 17.8847 21.1366 16.9495 21.1366C15.1392 21.1366 13.6069 19.9139 13.0604 18.2711H10.7383V20.0719C11.882 22.3434 14.2325 23.901 16.9495 23.901Z" fill="#34A853"/>
<path fill-rule="evenodd" clip-rule="evenodd" d="M13.0614 18.2711C12.9224 17.8541 12.8434 17.4086 12.8434 16.9505C12.8434 16.4924 12.9224 16.0469 13.0614 15.6299V13.8291H10.7393C10.2685 14.7674 10 15.8289 10 16.9505C10 18.0721 10.2685 19.1336 10.7393 20.0719L13.0614 18.2711Z" fill="#FBBC05"/>
<path fill-rule="evenodd" clip-rule="evenodd" d="M16.9495 12.7644C17.97 12.7644 18.8862 13.1151 19.6065 13.8038L21.6 11.8103C20.3963 10.6887 18.823 10 16.9495 10C14.2325 10 11.882 11.5575 10.7383 13.8291L13.0604 15.6299C13.6069 13.9871 15.1392 12.7644 16.9495 12.7644Z" fill="#EA4335"/>
</svg>
